<svg width="38" height="129" viewBox="0 0 38 129" fill="none" xmlns="http://www.w3.org/2000/svg">
<path d="M21.3418 14.417C21.377 14.4697 21.3887 14.5137 21.377 14.5488C21.3652 14.584 21.3359 14.5957 21.2891 14.584C21.2422 14.5781 21.1807 14.5283 21.1045 14.4346C20.7178 13.9482 20.3018 13.3506 19.8564 12.6416C19.417 11.9385 19.0244 11.209 18.6787 10.4531C18.333 9.69727 18.1133 9.00293 18.0195 8.37012C17.9258 7.7373 18.0371 7.25391 18.3535 6.91992C18.6699 6.58594 19.2676 6.4834 20.1465 6.6123C20.2344 6.62402 20.2812 6.61816 20.2871 6.59473C20.2988 6.57129 20.2871 6.53906 20.252 6.49805C20.2461 6.49219 20.2402 6.48633 20.2344 6.48047C20.2168 6.45703 20.1963 6.43066 20.1729 6.40137C20.1729 6.40137 20.1699 6.40137 20.1641 6.40137C20.1641 6.39551 20.1641 6.39258 20.1641 6.39258C18.9922 4.91602 18.1865 3.78516 17.7471 3C17.3135 2.2207 17.1084 1.66992 17.1318 1.34766C17.1436 1.10156 17.2139 0.928711 17.3428 0.829102C17.6006 0.618164 17.958 0.600586 18.415 0.776367C18.8721 0.952148 19.3408 1.21875 19.8213 1.57617C20.3018 1.93359 20.7031 2.2793 21.0254 2.61328C21.5176 3.13477 21.8486 3.5625 22.0186 3.89648C22.1885 4.23633 22.2617 4.5 22.2383 4.6875C22.2207 4.875 22.1768 5.00391 22.1064 5.07422C21.9307 5.27344 21.6699 5.32617 21.3242 5.23242C20.9844 5.13867 20.6006 4.91016 20.1729 4.54687C20.0557 4.44141 19.9795 4.32129 19.9443 4.18652C19.915 4.05176 19.9355 3.93164 20.0059 3.82617C20.0762 3.72656 20.1758 3.67676 20.3047 3.67676C20.4336 3.67676 20.5566 3.73242 20.6738 3.84375C20.7207 3.89062 20.7676 3.95215 20.8145 4.02832C20.873 4.11621 20.9258 4.18066 20.9727 4.22168C21.0254 4.26855 21.0723 4.25684 21.1133 4.18652C21.1367 4.11621 21.0693 3.9668 20.9111 3.73828C20.7529 3.50977 20.5596 3.27539 20.3311 3.03516C20.0205 2.71289 19.6807 2.39062 19.3115 2.06836C18.9482 1.74609 18.6113 1.5 18.3008 1.33008C17.9961 1.1543 17.7822 1.125 17.6592 1.24219C17.5127 1.5 17.5596 1.89551 17.7998 2.42871C18.0459 2.95605 18.4033 3.55078 18.8721 4.21289C19.3467 4.88086 19.8564 5.5459 20.4014 6.20801C20.6064 6.43652 20.7852 6.60352 20.9375 6.70898C21.0957 6.81445 21.2246 6.88184 21.3242 6.91113C21.3535 6.92285 21.3828 6.93164 21.4121 6.9375C21.4297 6.94336 21.4502 6.94922 21.4736 6.95508C21.4854 6.96094 21.4941 6.96387 21.5 6.96387C21.5117 6.96973 21.5205 6.97266 21.5264 6.97266C23.917 7.73437 26.0967 8.64258 28.0654 9.69727C30.0342 10.7578 31.7334 11.8535 33.1631 12.9844C34.5986 14.1211 35.7061 15.1846 36.4854 16.1748C37.2705 17.165 37.6631 17.9531 37.6631 18.5391C37.6631 19.0781 37.3906 19.4121 36.8457 19.541C35.7148 19.7109 33.9482 19.0078 31.5459 17.4316C30.585 16.8164 29.3721 15.8818 27.9072 14.6279C26.4424 13.3799 24.7842 11.7305 22.9326 9.67969C22.9268 9.67383 22.9238 9.6709 22.9238 9.6709C22.5605 9.2666 22.1973 8.85059 21.834 8.42285C21.8281 8.41113 21.8223 8.40234 21.8164 8.39648C21.8047 8.38477 21.793 8.37012 21.7812 8.35254C21.7754 8.35254 21.7725 8.35254 21.7725 8.35254C21.7725 8.34668 21.7725 8.34375 21.7725 8.34375C21.7139 8.2793 21.6582 8.21484 21.6055 8.15039C21.4707 7.98047 21.2656 7.80176 20.9902 7.61426C20.7207 7.42676 20.3838 7.30371 19.9795 7.24512C19.2939 7.18066 18.8428 7.30957 18.626 7.63184C18.415 7.95996 18.3711 8.4082 18.4941 8.97656C18.623 9.54492 18.8516 10.166 19.1797 10.8398C19.5078 11.5137 19.8682 12.1641 20.2607 12.791C20.6592 13.4238 21.0195 13.9658 21.3418 14.417ZM22.0186 7.79883C21.9131 7.76367 21.8486 7.75488 21.8252 7.77246C21.8076 7.7959 21.8135 7.83105 21.8428 7.87793C21.8779 7.9248 21.916 7.97168 21.957 8.01855C22.4844 8.61035 22.8652 9.03516 23.0996 9.29297C23.1699 9.36914 23.2197 9.42188 23.249 9.45117C25.0537 11.4434 26.6855 13.04 28.1445 14.2412C29.6035 15.4482 30.7959 16.3506 31.7217 16.9482C32.8877 17.71 33.9072 18.2256 34.7803 18.4951C35.6533 18.7646 36.248 18.8643 36.5645 18.7939C36.6465 18.7764 36.708 18.75 36.749 18.7148C36.79 18.6855 36.8135 18.6533 36.8193 18.6182C36.8252 18.5889 36.8252 18.5625 36.8193 18.5391C36.3096 17.2324 35.4307 15.9932 34.1826 14.8213C32.9346 13.6553 31.5342 12.5947 29.9814 11.6396C28.4287 10.6846 26.9346 9.87598 25.499 9.21387C24.0635 8.55762 22.9033 8.08594 22.0186 7.79883ZM21.3418 28.0312C21.3652 28.0781 21.3682 28.1162 21.3506 28.1455C21.3389 28.1748 21.3125 28.1836 21.2715 28.1719C21.2363 28.1602 21.1982 28.1191 21.1572 28.0488C20.2549 26.5605 19.4229 25.1338 18.6611 23.7686C17.9053 22.4092 17.3516 21.2402 17 20.2617C16.6426 19.2832 16.6221 18.624 16.9385 18.2842C17.1904 18.0557 17.5039 17.9824 17.8789 18.0645C18.2539 18.1465 18.6934 18.2988 19.1973 18.5215C19.3965 18.6035 19.6104 18.6885 19.8389 18.7764C19.9561 18.8174 20.0352 18.8379 20.0762 18.8379C20.1172 18.8379 20.1318 18.8203 20.1201 18.7852C20.1143 18.7559 20.0908 18.7178 20.0498 18.6709C20.0146 18.6299 19.9766 18.5859 19.9355 18.5391C19.9297 18.5391 19.9268 18.5391 19.9268 18.5391C18.6084 17.2207 17.6562 16.1543 17.0703 15.3398C16.4902 14.5254 16.2383 13.8164 16.3145 13.2129C16.332 13.0605 16.3848 12.9111 16.4727 12.7646C16.5547 12.6123 16.707 12.5127 16.9297 12.4658C17.1465 12.4189 17.4658 12.4775 17.8877 12.6416C18.7314 12.9756 19.4902 13.3389 20.1641 13.7314C20.8379 14.124 21.4414 14.4961 21.9746 14.8477C22.0273 14.8828 22.0801 14.918 22.1328 14.9531C22.625 15.2637 22.959 15.4658 23.1348 15.5596C23.1406 15.5596 23.1494 15.5596 23.1611 15.5596C23.2373 15.5596 23.3135 15.5684 23.3896 15.5859C23.4717 15.6094 23.5449 15.6562 23.6094 15.7266C23.7031 15.8613 23.75 16.0195 23.75 16.2012C23.75 16.3828 23.6914 16.5117 23.5742 16.5879C23.4102 16.6758 23.1992 16.6553 22.9414 16.5264C22.6895 16.4033 22.291 16.1426 21.7461 15.7441C21.377 15.4805 20.876 15.1465 20.2432 14.7422C19.6104 14.3379 18.9951 13.9805 18.3975 13.6699C17.8057 13.3594 17.3838 13.2158 17.1318 13.2393C16.9619 13.2568 16.8506 13.3594 16.7979 13.5469C16.7451 13.7285 16.833 14.042 17.0615 14.4873C17.29 14.9385 17.7383 15.5713 18.4062 16.3857C19.0742 17.2002 20.041 18.2461 21.3066 19.5234C21.3711 19.5938 21.4297 19.6846 21.4824 19.7959C21.5352 19.9131 21.5439 20.0068 21.5088 20.0771C21.4736 20.1475 21.3564 20.1533 21.1572 20.0947C20.6592 19.9307 20.1729 19.7549 19.6982 19.5674C19.124 19.333 18.6201 19.1572 18.1865 19.04C17.7588 18.9229 17.4629 18.9521 17.2988 19.1279C17.1816 19.2451 17.2109 19.6113 17.3867 20.2266C17.5684 20.8418 17.9697 21.7793 18.5908 23.0391C19.2178 24.2988 20.1348 25.9629 21.3418 28.0312ZM21.3506 35.5635C21.3682 35.5928 21.3711 35.6191 21.3594 35.6426C21.3535 35.6719 21.3389 35.6865 21.3154 35.6865C21.292 35.6924 21.2656 35.6719 21.2363 35.625C20.7793 34.916 20.3838 34.0928 20.0498 33.1553C19.7217 32.2236 19.5576 31.3623 19.5576 30.5713C19.5576 30.4658 19.5576 30.3633 19.5576 30.2637C19.5576 30.1699 19.54 30.0996 19.5049 30.0527C19.4756 30.0059 19.4404 29.9707 19.3994 29.9473C19.3936 29.9473 19.3906 29.9443 19.3906 29.9385C19.3848 29.9385 19.3818 29.9355 19.3818 29.9297C19.376 29.9297 19.373 29.9297 19.373 29.9297C18.1191 29.0098 17.416 28.1543 17.2637 27.3633C17.2578 27.3223 17.2549 27.2783 17.2549 27.2314C17.2549 26.9736 17.3545 26.792 17.5537 26.6865C17.8994 26.5225 18.418 26.6836 19.1094 27.1699C19.3672 27.3574 19.6455 27.583 19.9443 27.8467C20.0205 27.917 20.0762 27.9932 20.1113 28.0752C20.1289 28.1104 20.1465 28.1279 20.1641 28.1279C20.1816 28.1338 20.1963 28.1309 20.208 28.1191C20.6475 27.7793 21.1807 27.8438 21.8076 28.3125C22.2295 28.6465 22.5605 29.0625 22.8008 29.5605C23.0469 30.0645 23.0938 30.4951 22.9414 30.8525C22.8652 31.0225 22.7188 31.1426 22.502 31.2129C22.291 31.2832 21.9805 31.2539 21.5703 31.125C21.1602 31.002 20.6211 30.7324 19.9531 30.3164C19.9121 30.293 19.8799 30.2783 19.8564 30.2725C19.8389 30.2725 19.8242 30.2754 19.8125 30.2812C19.8066 30.293 19.8037 30.3105 19.8037 30.334C19.7979 30.416 19.7949 30.501 19.7949 30.5889C19.7949 31.3271 19.8916 32.0273 20.085 32.6895C20.2783 33.3574 20.4951 33.9404 20.7354 34.4385C20.9756 34.9365 21.1807 35.3115 21.3506 35.5635ZM20.876 28.7344C20.876 28.7344 20.873 28.7344 20.8672 28.7344C20.8613 28.7285 20.8555 28.7256 20.8496 28.7256C20.8438 28.7256 20.8379 28.7256 20.832 28.7256C20.7441 28.7021 20.6416 28.6992 20.5244 28.7168C20.4131 28.7344 20.3018 28.8047 20.1904 28.9277C20.0791 29.0566 19.9854 29.2646 19.9092 29.5518C19.9092 29.5576 19.9092 29.5605 19.9092 29.5605C19.9033 29.5723 19.9004 29.5869 19.9004 29.6045C19.8945 29.6162 19.8916 29.6309 19.8916 29.6484C19.8916 29.6484 19.8916 29.6514 19.8916 29.6572C19.8857 29.6631 19.8828 29.6719 19.8828 29.6836C19.8828 29.6895 19.8799 29.6982 19.874 29.71C19.874 29.71 19.874 29.7129 19.874 29.7188C19.8623 29.7949 19.8711 29.8506 19.9004 29.8857C19.9297 29.9209 19.9648 29.9502 20.0059 29.9736C20.5215 30.2725 20.9434 30.457 21.2715 30.5273C21.5996 30.5977 21.8428 30.5977 22.001 30.5273C22.165 30.4629 22.2529 30.375 22.2646 30.2637C22.2822 30.082 22.2031 29.8711 22.0273 29.6309C21.8574 29.3906 21.6494 29.1768 21.4033 28.9893C21.2568 28.8721 21.0811 28.7871 20.876 28.7344ZM17.6328 27.249C17.5449 27.6064 17.6943 28.002 18.0811 28.4355C18.4736 28.8691 18.9307 29.2617 19.4521 29.6133C19.5107 29.6602 19.5488 29.6748 19.5664 29.6572C19.584 29.6396 19.5957 29.6074 19.6016 29.5605C19.625 29.3027 19.666 29.0742 19.7246 28.875C19.7246 28.8691 19.7246 28.8662 19.7246 28.8662C19.7246 28.8662 19.7246 28.8633 19.7246 28.8574C19.7305 28.8281 19.7275 28.8076 19.7158 28.7959C19.71 28.79 19.6982 28.7842 19.6807 28.7783C19.6338 28.7666 19.584 28.7373 19.5312 28.6904C19.4492 28.6084 19.3613 28.5029 19.2676 28.374C19.2676 28.3682 19.2676 28.3652 19.2676 28.3652C19.2266 28.3125 19.1855 28.2568 19.1445 28.1982C19.1387 28.1865 19.1299 28.1748 19.1182 28.1631C19.083 28.1221 19.0449 28.0781 19.0039 28.0312C18.8984 27.9023 18.7666 27.7617 18.6084 27.6094C18.4502 27.4512 18.2891 27.3281 18.125 27.2402C17.9609 27.1465 17.8203 27.1289 17.7031 27.1875C17.6797 27.2051 17.6562 27.2256 17.6328 27.249ZM21.3418 46.2246C21.3652 46.248 21.374 46.2686 21.3682 46.2861C21.3682 46.3096 21.3564 46.3213 21.333 46.3213C21.3154 46.3213 21.292 46.3066 21.2627 46.2773C19.8154 44.5312 18.7637 43.0459 18.1074 41.8213C17.4512 40.6025 17.2754 39.6826 17.5801 39.0615C17.7969 38.6572 18.1748 38.4199 18.7139 38.3496C19.2529 38.2852 19.9062 38.3965 20.6738 38.6836C20.8086 38.7363 20.9434 38.7949 21.0781 38.8594C21.3066 38.9707 21.5176 39.0498 21.7109 39.0967C21.7812 39.1084 21.8193 39.0938 21.8252 39.0527C21.8369 39.0176 21.8281 38.9707 21.7988 38.9121C21.7754 38.8535 21.749 38.7979 21.7197 38.7451C21.415 38.3057 20.9492 37.7432 20.3223 37.0576C19.6953 36.3721 19.0947 35.7305 18.5205 35.1328C17.9521 34.541 17.5947 34.1543 17.4482 33.9727C17.3193 33.8203 17.2227 33.665 17.1582 33.5068C17.0996 33.3486 17.0967 33.2373 17.1494 33.1729C17.208 33.1025 17.3516 33.123 17.5801 33.2344C17.6035 33.2461 17.8145 33.3691 18.2129 33.6035C18.6172 33.832 19.1035 34.1221 19.6719 34.4736C20.2461 34.8252 20.8027 35.1855 21.3418 35.5547C21.4648 35.6426 21.5381 35.7451 21.5615 35.8623C21.5908 35.9854 21.5791 36.1055 21.5264 36.2227C21.4795 36.3398 21.4092 36.4102 21.3154 36.4336C21.2275 36.4629 21.0986 36.4277 20.9287 36.3281C20.7646 36.2168 20.457 35.9678 20.0059 35.5811C19.4551 35.1123 18.8691 34.6406 18.248 34.166C18.1777 34.1191 18.1104 34.0781 18.0459 34.043C17.9873 34.002 17.9404 33.9785 17.9053 33.9727C17.8701 33.9609 17.8613 33.9785 17.8789 34.0254C17.9023 34.0723 17.9668 34.1572 18.0723 34.2803C18.4004 34.6436 18.8193 35.0889 19.3291 35.6162C19.8564 36.167 20.3838 36.7295 20.9111 37.3037C21.4443 37.8838 21.8809 38.3994 22.2207 38.8506C22.5664 39.3018 22.7187 39.6182 22.6777 39.7998C22.5957 40.0869 22.4082 40.207 22.1152 40.1602C21.8223 40.1133 21.3184 39.9082 20.6035 39.5449C20.1992 39.3516 19.7861 39.208 19.3643 39.1143C18.9482 39.0264 18.5879 39.0088 18.2832 39.0615C17.9844 39.1201 17.8086 39.2725 17.7559 39.5186C17.6797 40.0928 17.8057 40.7373 18.1338 41.4521C18.4619 42.1729 18.8955 42.9111 19.4346 43.667C19.9736 44.4287 20.5215 45.1641 21.0781 45.873C21.166 45.9902 21.2539 46.1074 21.3418 46.2246ZM21.1924 59.1621C20.3779 57.5801 19.5254 56.0273 18.6348 54.5039C18.4414 54.1758 18.2744 53.9502 18.1338 53.8271C17.9932 53.7041 17.8643 53.6279 17.7471 53.5986C17.7295 53.5928 17.709 53.5869 17.6855 53.5811C17.668 53.5752 17.6533 53.5693 17.6416 53.5635C17.6182 53.5576 17.5947 53.5518 17.5713 53.5459C17.5713 53.5459 17.5684 53.5459 17.5625 53.5459C17.5391 53.5342 17.5156 53.5254 17.4922 53.5195C17.4512 53.5078 17.4102 53.4961 17.3691 53.4844C12.459 51.9668 8.45996 49.8281 5.37207 47.0684C2.8291 44.7363 1.31738 42.4336 0.836914 40.1602C0.77832 39.8262 0.749023 39.5098 0.749023 39.2109C0.749023 38.5312 0.904297 37.9775 1.21484 37.5498C1.52539 37.1162 1.9707 36.8467 2.55078 36.7412C3.42383 36.583 4.52246 36.917 5.84668 37.7432C7.1709 38.5693 8.71191 39.9961 10.4697 42.0234C12.2275 44.0449 14.1963 46.7695 16.376 50.1973C16.458 50.3379 16.543 50.4756 16.6309 50.6104C16.7422 50.792 16.8506 50.9707 16.9561 51.1465C17.1553 51.4805 17.3545 51.8145 17.5537 52.1484C17.6885 52.3711 17.8057 52.5176 17.9053 52.5879C18.0049 52.6641 18.0869 52.708 18.1514 52.7197C19.4873 53.042 20.4658 53.1621 21.0869 53.0801C21.708 52.998 22.0859 52.8311 22.2207 52.5791C22.3965 52.2803 22.4463 51.9375 22.3701 51.5508C22.2939 51.1699 22.1475 50.7773 21.9307 50.373C21.7139 49.9746 21.4795 49.6055 21.2275 49.2656C21.0928 49.084 20.8818 48.8584 20.5947 48.5889C20.3076 48.3193 20.0088 48.0586 19.6982 47.8066C19.165 47.373 18.7227 46.9746 18.3711 46.6113C18.0254 46.2539 17.8467 45.9053 17.835 45.5654C17.835 45.5596 17.835 45.5566 17.835 45.5566C17.835 45.5508 17.835 45.5479 17.835 45.5479C17.8408 45.1963 18.0605 44.9707 18.4941 44.8711C19.1094 44.7656 19.7246 44.9209 20.3398 45.3369C20.9609 45.7529 21.4766 46.2773 21.8867 46.9102C22.5137 47.8945 22.6807 48.7354 22.3877 49.4326C22.3467 49.5088 22.291 49.5645 22.2207 49.5996C22.1973 49.6172 22.1885 49.6406 22.1943 49.6699C22.2002 49.7051 22.2148 49.7402 22.2383 49.7754C22.2617 49.8105 22.2822 49.8428 22.2998 49.8721C22.6924 50.4111 22.9678 50.9766 23.126 51.5684C23.2842 52.166 23.2256 52.7432 22.9502 53.2998C22.4346 54.2197 21.0576 54.4131 18.8193 53.8799C18.7197 53.8623 18.6582 53.8652 18.6348 53.8887C18.6113 53.9121 18.6084 53.9502 18.626 54.0029C18.6494 54.0557 18.6787 54.1143 18.7139 54.1787C19.5986 55.7607 20.4805 57.416 21.3594 59.1445C21.377 59.1738 21.377 59.1973 21.3594 59.2148C21.3418 59.2383 21.3154 59.2471 21.2803 59.2412C21.251 59.2412 21.2217 59.2148 21.1924 59.1621ZM20.999 48.3691V48.3604C21.0869 48.4482 21.1572 48.501 21.21 48.5186C21.2686 48.542 21.3096 48.5479 21.333 48.5361C21.3623 48.5244 21.3828 48.5068 21.3945 48.4834C21.4766 48.3076 21.4883 48.1113 21.4297 47.8945C21.377 47.6777 21.3037 47.4873 21.21 47.3232C21.1807 47.2646 21.1514 47.2119 21.1221 47.165C21.1045 47.1182 21.0781 47.0684 21.043 47.0156C20.8613 46.7051 20.5771 46.3945 20.1904 46.084C19.8096 45.7734 19.4346 45.5625 19.0654 45.4512C18.7021 45.334 18.4619 45.416 18.3447 45.6973C18.3682 45.9902 18.5791 46.3154 18.9775 46.6729C19.376 47.0303 19.7363 47.3262 20.0586 47.5605C20.1406 47.6191 20.2051 47.6689 20.252 47.71C20.4453 47.8564 20.6943 48.0762 20.999 48.3691ZM17.1406 52.4385C17.2285 52.4619 17.29 52.4678 17.3252 52.4561C17.3604 52.4443 17.375 52.4238 17.3691 52.3945C17.3691 52.3652 17.3574 52.3271 17.334 52.2803C17.0176 51.7588 16.7129 51.2607 16.4199 50.7861C16.4082 50.7744 16.3994 50.7627 16.3936 50.751C14.9111 48.3779 13.3789 46.1982 11.7969 44.2119C10.2148 42.2256 8.76758 40.6465 7.45508 39.4746C5.49219 37.752 3.84863 37.0576 2.52441 37.3916C2.04395 37.5088 1.69531 37.8105 1.47852 38.2969C1.26172 38.7832 1.21484 39.3809 1.33789 40.0898C1.45508 40.7871 1.80957 41.6543 2.40137 42.6914C2.99316 43.7227 3.89551 44.8271 5.1084 46.0049C6.31543 47.1826 7.90625 48.3311 9.88086 49.4502C11.8496 50.5693 14.2695 51.5654 17.1406 52.4385ZM21.3418 70.0781C21.4004 70.1543 21.4209 70.2158 21.4033 70.2627C21.3916 70.3096 21.3564 70.3301 21.2979 70.3242C21.2393 70.3184 21.1719 70.2715 21.0957 70.1836C19.6777 68.4551 18.5674 66.8994 17.7646 65.5166C16.9678 64.1396 16.5693 62.9824 16.5693 62.0449C16.5693 61.582 16.6543 61.1689 16.8242 60.8057C17.0762 60.2842 17.4512 59.8945 17.9492 59.6367C18.0488 59.5723 18.0986 59.5137 18.0986 59.4609C18.1045 59.4141 18.0781 59.3555 18.0195 59.2852C16.918 57.9727 15.9336 56.7539 15.0664 55.6289C15.0137 55.5586 14.9697 55.4854 14.9346 55.4092C14.8936 55.333 14.8906 55.2686 14.9258 55.2158C15.002 55.1162 15.0664 55.0898 15.1191 55.1367C15.1719 55.1836 15.2275 55.2598 15.2861 55.3652C15.3271 55.4473 15.374 55.5264 15.4268 55.6025C16.3467 56.7803 17.2344 57.876 18.0898 58.8896C18.2656 59.1006 18.4033 59.2295 18.5029 59.2764C18.6025 59.3291 18.6875 59.3379 18.7578 59.3027C18.7578 59.3027 18.7607 59.3027 18.7666 59.3027C19.3818 59.1387 20.0176 59.0596 20.6738 59.0654C21.3359 59.0654 21.9365 59.1094 22.4756 59.1973C23.0205 59.2852 23.4219 59.3701 23.6797 59.4521C23.8145 59.4932 23.9258 59.5723 24.0137 59.6895C24.1016 59.8125 24.1484 59.9443 24.1543 60.085C24.1543 60.3486 24.1338 60.5303 24.0928 60.6299C24.0518 60.7295 23.9961 60.7764 23.9258 60.7705C23.8613 60.7705 23.791 60.75 23.7148 60.709C23.6738 60.6914 23.6328 60.6768 23.5918 60.665C22.6484 60.3838 21.8252 60.2051 21.1221 60.1289C20.4248 60.0586 19.833 60.0645 19.3467 60.1465C19.2822 60.1523 19.2529 60.1758 19.2588 60.2168C19.2705 60.2637 19.2998 60.3164 19.3467 60.375C19.7568 60.8555 20.1523 61.3154 20.5332 61.7549C21.9512 63.3604 23.0732 64.7227 23.8994 65.8418C24.5557 66.7559 25.0156 67.4795 25.2793 68.0127C25.2852 68.0186 25.291 68.0273 25.2969 68.0391C25.3145 68.0742 25.335 68.1123 25.3584 68.1533C25.4287 68.2764 25.5049 68.4258 25.5869 68.6016C25.6748 68.7773 25.7187 68.9355 25.7187 69.0762C25.7187 69.2109 25.6514 69.3047 25.5166 69.3574C25.5166 69.3574 25.5137 69.3574 25.5078 69.3574C25.5078 69.3574 25.5049 69.3574 25.499 69.3574C25.2998 69.4043 25.1533 69.3838 25.0596 69.2959C24.9717 69.208 24.9189 69.0762 24.9014 68.9004C24.8838 68.7773 24.8779 68.6426 24.8838 68.4961C24.8545 68.3789 24.8105 68.2471 24.752 68.1006C24.3828 67.292 23.6738 66.2197 22.625 64.8838C21.5762 63.5537 20.4102 62.127 19.127 60.6035C18.9805 60.4395 18.8633 60.3457 18.7754 60.3223C18.6875 60.3047 18.6113 60.3105 18.5469 60.3398C18.166 60.4863 17.8643 60.665 17.6416 60.876C17.4248 61.0869 17.2695 61.3037 17.1758 61.5264C17.0879 61.749 17.0439 61.9453 17.0439 62.1152C17.0439 63.0059 17.4307 64.1484 18.2041 65.543C18.9834 66.9434 20.0293 68.4521 21.3418 70.0693C21.3418 70.0693 21.3418 70.0723 21.3418 70.0781ZM21.3418 83.6836C21.3652 83.7305 21.3682 83.7686 21.3506 83.7979C21.3389 83.8271 21.3125 83.8359 21.2715 83.8242C21.2363 83.8125 21.1982 83.7715 21.1572 83.7012C20.2549 82.2129 19.4229 80.7861 18.6611 79.4209C17.9053 78.0615 17.3516 76.8926 17 75.9141C16.6426 74.9355 16.6221 74.2764 16.9385 73.9365C17.1904 73.708 17.5039 73.6348 17.8789 73.7168C18.2539 73.7988 18.6934 73.9512 19.1973 74.1738C19.3965 74.2559 19.6104 74.3408 19.8389 74.4287C19.9561 74.4697 20.0352 74.4902 20.0762 74.4902C20.1172 74.4902 20.1318 74.4727 20.1201 74.4375C20.1143 74.4082 20.0908 74.3701 20.0498 74.3232C20.0146 74.2822 19.9766 74.2383 19.9355 74.1914C19.9297 74.1914 19.9268 74.1914 19.9268 74.1914C18.6084 72.873 17.6562 71.8066 17.0703 70.9922C16.4902 70.1777 16.2383 69.4688 16.3145 68.8652C16.332 68.7129 16.3848 68.5635 16.4727 68.417C16.5547 68.2646 16.707 68.165 16.9297 68.1182C17.1465 68.0713 17.4658 68.1299 17.8877 68.2939C18.7314 68.6279 19.4902 68.9912 20.1641 69.3838C20.8379 69.7764 21.4414 70.1484 21.9746 70.5C22.0273 70.5352 22.0801 70.5703 22.1328 70.6055C22.625 70.916 22.959 71.1182 23.1348 71.2119C23.1406 71.2119 23.1494 71.2119 23.1611 71.2119C23.2373 71.2119 23.3135 71.2207 23.3896 71.2383C23.4717 71.2617 23.5449 71.3086 23.6094 71.3789C23.7031 71.5137 23.75 71.6719 23.75 71.8535C23.75 72.0352 23.6914 72.1641 23.5742 72.2402C23.4102 72.3281 23.1992 72.3076 22.9414 72.1787C22.6895 72.0557 22.291 71.7949 21.7461 71.3965C21.377 71.1328 20.876 70.7988 20.2432 70.3945C19.6104 69.9902 18.9951 69.6328 18.3975 69.3223C17.8057 69.0117 17.3838 68.8682 17.1318 68.8916C16.9619 68.9092 16.8506 69.0117 16.7979 69.1992C16.7451 69.3809 16.833 69.6943 17.0615 70.1396C17.29 70.5908 17.7383 71.2236 18.4062 72.0381C19.0742 72.8525 20.041 73.8984 21.3066 75.1758C21.3711 75.2461 21.4297 75.3369 21.4824 75.4482C21.5352 75.5654 21.5439 75.6592 21.5088 75.7295C21.4736 75.7998 21.3564 75.8057 21.1572 75.7471C20.6592 75.583 20.1729 75.4072 19.6982 75.2197C19.124 74.9854 18.6201 74.8096 18.1865 74.6924C17.7588 74.5752 17.4629 74.6045 17.2988 74.7803C17.1816 74.8975 17.2109 75.2637 17.3867 75.8789C17.5684 76.4941 17.9697 77.4316 18.5908 78.6914C19.2178 79.9512 20.1348 81.6152 21.3418 83.6836ZM21.3418 92.2354C21.3594 92.2588 21.3682 92.2852 21.3682 92.3145C21.3682 92.3438 21.3623 92.3643 21.3506 92.376C21.3389 92.3936 21.3154 92.3906 21.2803 92.3672C21.2451 92.3496 21.1982 92.3027 21.1396 92.2266C20.1436 90.8438 19.3174 89.6221 18.6611 88.5615C18.0107 87.501 17.6738 86.7012 17.6504 86.1621C17.6504 85.8809 17.7119 85.6494 17.835 85.4678C18.1982 84.9756 18.8809 84.8965 19.8828 85.2305C19.9766 85.2598 20.041 85.2744 20.0762 85.2744C20.1172 85.2744 20.1377 85.2627 20.1377 85.2393C20.1377 85.2217 20.126 85.1982 20.1025 85.1689C20.085 85.1396 20.0645 85.1133 20.041 85.0898C19.7891 84.8145 19.5781 84.5713 19.4082 84.3604C19.2383 84.1553 19.083 83.9443 18.9424 83.7275C18.7139 83.376 18.5439 83.042 18.4326 82.7256C18.3271 82.4033 18.3184 82.1455 18.4062 81.9521C18.4883 81.7998 18.6143 81.7441 18.7842 81.7852C18.96 81.8203 19.1387 81.8965 19.3203 82.0137C19.5078 82.1309 19.6602 82.2334 19.7773 82.3213C19.7832 82.333 19.7891 82.3418 19.7949 82.3477C20.2812 82.7051 20.8701 83.2236 21.5615 83.9033C22.0713 84.3896 22.4814 84.8525 22.792 85.292C23.1084 85.7373 23.1934 86.1123 23.0469 86.417C22.959 86.5635 22.8301 86.6484 22.6602 86.6719C22.4902 86.7012 22.3027 86.6924 22.0977 86.6455C22.0684 86.6396 22.0391 86.6396 22.0098 86.6455C21.9863 86.6514 21.9658 86.6719 21.9482 86.707C21.8955 86.7832 21.8223 86.8096 21.7285 86.7861C21.6348 86.7627 21.5352 86.7217 21.4297 86.6631C21.4238 86.6572 21.4209 86.6543 21.4209 86.6543C20.4072 86.1445 19.6543 85.834 19.1621 85.7227C18.6758 85.6172 18.377 85.6172 18.2656 85.7227C18.0488 85.8574 17.9932 86.1621 18.0986 86.6367C18.2041 87.1172 18.5176 87.8115 19.0391 88.7197C19.5605 89.6279 20.3281 90.7998 21.3418 92.2354ZM21.0869 85.3711C21.2334 85.4648 21.3828 85.5439 21.5352 85.6084C21.6934 85.6787 21.7988 85.6934 21.8516 85.6523C21.8516 85.6523 21.8516 85.6494 21.8516 85.6436C21.8574 85.6377 21.8604 85.6318 21.8604 85.626C21.8604 85.626 21.8633 85.626 21.8691 85.626C21.8809 85.4736 21.7373 85.2012 21.4385 84.8086C21.1455 84.416 20.7939 84.0059 20.3838 83.5781C19.9736 83.1504 19.6074 82.8135 19.2852 82.5674C19.2793 82.5615 19.2705 82.5557 19.2588 82.5498C19.2061 82.5088 19.1357 82.459 19.0479 82.4004C18.96 82.3418 18.8838 82.3154 18.8193 82.3213C18.7549 82.3213 18.7314 82.3887 18.749 82.5234C18.8018 82.8516 18.9775 83.25 19.2764 83.7188C19.5811 84.1875 19.9443 84.6357 20.3662 85.0635C20.501 85.1807 20.6006 85.2363 20.665 85.2305C20.665 85.2363 20.665 85.2393 20.665 85.2393C20.8232 85.2627 20.9639 85.3066 21.0869 85.3711ZM21.3418 102.896C21.3652 102.92 21.374 102.94 21.3682 102.958C21.3682 102.981 21.3564 102.993 21.333 102.993C21.3154 102.993 21.292 102.979 21.2627 102.949C19.8154 101.203 18.7637 99.7178 18.1074 98.4932C17.4512 97.2744 17.2754 96.3545 17.5801 95.7334C17.7969 95.3291 18.1748 95.0918 18.7139 95.0215C19.2529 94.957 19.9062 95.0684 20.6738 95.3555C20.8086 95.4082 20.9434 95.4668 21.0781 95.5312C21.3066 95.6426 21.5176 95.7217 21.7109 95.7686C21.7812 95.7803 21.8193 95.7656 21.8252 95.7246C21.8369 95.6895 21.8281 95.6426 21.7988 95.584C21.7754 95.5254 21.749 95.4697 21.7197 95.417C21.415 94.9775 20.9492 94.415 20.3223 93.7295C19.6953 93.0439 19.0947 92.4023 18.5205 91.8047C17.9521 91.2129 17.5947 90.8262 17.4482 90.6445C17.3193 90.4922 17.2227 90.3369 17.1582 90.1787C17.0996 90.0205 17.0967 89.9092 17.1494 89.8447C17.208 89.7744 17.3516 89.7949 17.5801 89.9062C17.6035 89.918 17.8145 90.041 18.2129 90.2754C18.6172 90.5039 19.1035 90.7939 19.6719 91.1455C20.2461 91.4971 20.8027 91.8574 21.3418 92.2266C21.4648 92.3145 21.5381 92.417 21.5615 92.5342C21.5908 92.6572 21.5791 92.7773 21.5264 92.8945C21.4795 93.0117 21.4092 93.082 21.3154 93.1055C21.2275 93.1348 21.0986 93.0996 20.9287 93C20.7646 92.8887 20.457 92.6396 20.0059 92.2529C19.4551 91.7842 18.8691 91.3125 18.248 90.8379C18.1777 90.791 18.1104 90.75 18.0459 90.7148C17.9873 90.6738 17.9404 90.6504 17.9053 90.6445C17.8701 90.6328 17.8613 90.6504 17.8789 90.6973C17.9023 90.7441 17.9668 90.8291 18.0723 90.9521C18.4004 91.3154 18.8193 91.7607 19.3291 92.2881C19.8564 92.8389 20.3838 93.4014 20.9111 93.9756C21.4443 94.5557 21.8809 95.0713 22.2207 95.5225C22.5664 95.9736 22.7187 96.29 22.6777 96.4717C22.5957 96.7588 22.4082 96.8789 22.1152 96.832C21.8223 96.7852 21.3184 96.5801 20.6035 96.2168C20.1992 96.0234 19.7861 95.8799 19.3643 95.7861C18.9482 95.6982 18.5879 95.6807 18.2832 95.7334C17.9844 95.792 17.8086 95.9443 17.7559 96.1904C17.6797 96.7646 17.8057 97.4092 18.1338 98.124C18.4619 98.8447 18.8955 99.583 19.4346 100.339C19.9736 101.101 20.5215 101.836 21.0781 102.545C21.166 102.662 21.2539 102.779 21.3418 102.896ZM21.2012 114.252C20.9082 113.062 20.5479 111.87 20.1201 110.675C19.9678 110.294 19.8008 110.004 19.6191 109.805C19.4434 109.611 19.291 109.471 19.1621 109.383C19.1562 109.377 19.1504 109.371 19.1445 109.365C19.1445 109.365 19.1416 109.365 19.1357 109.365C19.1357 109.359 19.1357 109.356 19.1357 109.356C17.9697 108.39 17.0381 107.329 16.3408 106.175C15.6377 105.021 15.2275 104.057 15.1104 103.283C15.0635 102.891 15.0928 102.627 15.1982 102.492C15.2979 102.352 15.4209 102.305 15.5674 102.352C15.7666 102.422 16.0215 102.645 16.332 103.02C16.6367 103.395 16.9502 103.837 17.2725 104.347C17.7178 105.067 18.0928 105.715 18.3975 106.289C18.7021 106.863 18.8926 107.238 18.9687 107.414C19.0742 107.66 19.1768 107.9 19.2764 108.135C19.4053 108.398 19.5635 108.621 19.751 108.803C19.9385 108.99 20.0967 109.125 20.2256 109.207C20.835 109.594 21.3828 109.854 21.8691 109.989C22.0273 110.036 22.2148 110.077 22.4316 110.112C22.6543 110.147 22.8564 110.15 23.0381 110.121C23.2197 110.092 23.3281 109.995 23.3633 109.831C23.4336 109.438 23.0703 108.618 22.2734 107.37C21.4824 106.122 20.2373 104.646 18.5381 102.94C16.54 101.001 14.6475 99.4014 12.8604 98.1416C11.0674 96.876 9.12207 95.6104 7.02441 94.3447C6.30371 93.9053 5.54785 93.4365 4.75684 92.9385C4.65137 92.8682 4.56934 92.792 4.51074 92.71C4.45215 92.6279 4.42578 92.5752 4.43164 92.5518C4.47266 92.4346 4.54004 92.3818 4.63379 92.3936C4.72168 92.3994 4.83008 92.4404 4.95898 92.5166C6.72266 93.542 9.37988 95.1768 12.9307 97.4209C16.4756 99.665 19.8447 101.854 23.0381 103.986C26.2373 106.125 28.1943 107.543 28.9092 108.24C29.0146 108.357 29.0732 108.483 29.085 108.618C29.1025 108.753 29.0674 108.864 28.9795 108.952C28.8975 109.034 28.7949 109.075 28.6719 109.075C28.5547 109.081 28.4316 109.017 28.3027 108.882C27.5176 108.085 25.918 106.843 23.5039 105.155C21.0957 103.468 18.5029 101.713 15.7256 99.8906C15.6143 99.8203 15.5117 99.7588 15.418 99.7061C15.3242 99.6475 15.2598 99.6123 15.2246 99.6006C15.1836 99.5889 15.1953 99.6152 15.2598 99.6797C15.3184 99.7441 15.4473 99.8613 15.6465 100.031C16.7187 100.898 17.8437 101.889 19.0215 103.002C20.6973 104.648 21.957 106.099 22.8008 107.353C23.6445 108.612 24.0195 109.573 23.9258 110.235C23.9141 110.382 23.8613 110.534 23.7676 110.692C23.6738 110.851 23.5039 110.962 23.2578 111.026C23.0176 111.097 22.6631 111.073 22.1943 110.956C21.5322 110.774 20.9082 110.514 20.3223 110.174C20.2402 110.127 20.1846 110.106 20.1553 110.112C20.1318 110.124 20.123 110.15 20.1289 110.191C20.1348 110.232 20.1465 110.276 20.1641 110.323C20.1641 110.329 20.167 110.332 20.1729 110.332C20.1729 110.332 20.1729 110.335 20.1729 110.341C20.6885 111.712 21.084 113.039 21.3594 114.322C21.3652 114.357 21.3594 114.384 21.3418 114.401C21.3242 114.419 21.3008 114.416 21.2715 114.393C21.248 114.375 21.2246 114.328 21.2012 114.252ZM18.9248 108.258C19.042 108.352 19.1035 108.375 19.1094 108.328C19.1211 108.281 19.0977 108.193 19.0391 108.064C19.0098 108.012 18.9746 107.941 18.9336 107.854C18.8984 107.777 18.8633 107.701 18.8281 107.625C18.7988 107.566 18.7666 107.508 18.7314 107.449C18.7256 107.438 18.7227 107.426 18.7227 107.414C18.7109 107.402 18.7021 107.388 18.6963 107.37C18.4795 106.937 18.1953 106.412 17.8437 105.797C17.498 105.188 17.0967 104.555 16.6396 103.898C16.54 103.752 16.4434 103.617 16.3496 103.494C16.2793 103.395 16.2236 103.324 16.1826 103.283C15.9717 103.014 15.7988 102.841 15.6641 102.765C15.5234 102.688 15.4443 102.75 15.4268 102.949C15.4385 103.787 15.7812 104.681 16.4551 105.63C17.1289 106.579 17.9346 107.443 18.8721 108.223C18.8779 108.223 18.8838 108.226 18.8896 108.231C18.9014 108.243 18.9102 108.252 18.916 108.258C18.9219 108.258 18.9248 108.258 18.9248 108.258ZM21.3418 123.146C21.377 123.182 21.3945 123.217 21.3945 123.252C21.3945 123.287 21.377 123.305 21.3418 123.305C21.3066 123.311 21.2539 123.281 21.1836 123.217C19.8594 121.916 18.8604 120.771 18.1865 119.78C17.5186 118.796 17.252 117.984 17.3867 117.346C17.457 117.082 17.6094 116.883 17.8437 116.748C18.0781 116.613 18.3418 116.52 18.6348 116.467C18.9336 116.414 19.2061 116.376 19.4521 116.353C19.751 116.329 19.9297 116.294 19.9883 116.247C20.0937 116.03 19.9736 115.688 19.6279 115.219C19.2881 114.756 18.8457 114.252 18.3008 113.707C17.7559 113.156 17.2373 112.646 16.7451 112.178C16.4111 111.861 16.1387 111.598 15.9277 111.387C15.7168 111.176 15.6055 111.041 15.5937 110.982C15.5937 110.977 15.5937 110.971 15.5937 110.965C15.5879 110.936 15.5879 110.903 15.5937 110.868C15.5937 110.827 15.6055 110.795 15.6289 110.771C15.6523 110.742 15.6934 110.73 15.752 110.736C15.8047 110.736 15.8838 110.763 15.9893 110.815C16.0244 110.839 16.2676 111 16.7187 111.299C17.5273 111.826 18.6201 112.538 19.9971 113.435C21.3799 114.331 22.6631 115.151 23.8467 115.896C28.0889 118.538 31.4521 120.861 33.9365 122.865C36.4268 124.869 37.7393 126.352 37.874 127.312C37.9033 127.717 37.7451 127.975 37.3994 128.086C36.6729 128.279 35.3105 127.72 33.3125 126.407C31.3203 125.095 28.9824 123.135 26.2988 120.527C26.2988 120.521 26.2959 120.519 26.29 120.519C24.8369 119.054 23.4307 117.475 22.0713 115.781C22.0654 115.775 22.0625 115.772 22.0625 115.772C22.0625 115.772 22.0625 115.77 22.0625 115.764C21.9512 115.623 21.7021 115.377 21.3154 115.025C20.9346 114.674 20.4277 114.275 19.7949 113.83C19.5957 113.689 19.3965 113.552 19.1973 113.417C18.4355 112.884 17.7822 112.433 17.2373 112.063C17.1729 112.017 17.1084 111.976 17.0439 111.94C16.9795 111.899 16.9297 111.873 16.8945 111.861C16.8535 111.85 16.8418 111.861 16.8594 111.896C16.8711 111.926 16.9268 111.99 17.0264 112.09C17.1846 112.248 17.3574 112.418 17.5449 112.6C18.002 113.033 18.4736 113.505 18.96 114.015C19.4463 114.524 19.8594 115.025 20.1992 115.518C20.5449 116.016 20.7236 116.458 20.7354 116.845C20.7354 116.968 20.6973 117.062 20.6211 117.126C20.5508 117.196 20.457 117.229 20.3398 117.223C20.1582 117.205 19.8682 117.205 19.4697 117.223C19.0771 117.24 18.7051 117.296 18.3535 117.39C18.0078 117.483 17.8115 117.636 17.7646 117.847C17.7002 118.187 17.9199 118.79 18.4238 119.657C18.9277 120.53 19.9004 121.693 21.3418 123.146ZM22.2734 115.526C22.2676 115.521 22.2646 115.518 22.2646 115.518C22.2236 115.488 22.1826 115.462 22.1416 115.438C22.1064 115.415 22.0771 115.4 22.0537 115.395C22.0361 115.389 22.0332 115.397 22.0449 115.421C22.0566 115.45 22.0947 115.503 22.1592 115.579C23.6123 117.349 25.042 118.948 26.4482 120.378C26.4541 120.384 26.457 120.387 26.457 120.387C27.6992 121.594 28.9736 122.701 30.2803 123.709C31.5869 124.717 32.7793 125.558 33.8574 126.231C34.8887 126.853 35.6943 127.222 36.2744 127.339C36.8545 127.456 37.1357 127.438 37.1182 127.286C37.1123 127.099 36.7139 126.565 35.9229 125.687C35.1377 124.808 33.7637 123.589 31.8008 122.03C29.8437 120.478 27.1104 118.597 23.6006 116.388C23.2197 116.147 22.7773 115.86 22.2734 115.526ZM22.7041 124.526C22.7158 124.433 22.7539 124.392 22.8184 124.403C22.8828 124.415 22.959 124.441 23.0469 124.482C23.1172 124.523 23.1846 124.553 23.249 124.57C23.3955 124.611 23.5127 124.679 23.6006 124.772C23.6943 124.872 23.7412 124.992 23.7412 125.133C23.7412 125.232 23.7324 125.32 23.7148 125.396C23.6973 125.473 23.6504 125.522 23.5742 125.546C23.498 125.575 23.3809 125.563 23.2227 125.511C22.9941 125.417 22.8447 125.268 22.7744 125.062C22.7041 124.857 22.6807 124.679 22.7041 124.526ZM21.3418 128.657C21.3887 128.722 21.4033 128.766 21.3857 128.789C21.3682 128.818 21.3359 128.824 21.2891 128.807C21.248 128.789 21.207 128.754 21.166 128.701C20.7207 128.051 20.2373 127.33 19.7158 126.539C19.1943 125.748 18.7051 124.972 18.248 124.21C17.7969 123.454 17.4541 122.801 17.2197 122.25C16.9854 121.693 16.9385 121.33 17.0791 121.16C17.2842 120.967 17.5713 120.929 17.9404 121.046C18.3096 121.157 18.7314 121.368 19.2061 121.679C19.6865 121.983 20.1904 122.326 20.7178 122.707C20.7998 122.766 20.873 122.818 20.9375 122.865C21.0137 122.918 21.084 122.968 21.1484 123.015C21.2129 123.062 21.2861 123.111 21.3682 123.164C21.4502 123.229 21.5146 123.343 21.5615 123.507C21.6084 123.671 21.6289 123.832 21.623 123.99C21.623 124.148 21.5879 124.251 21.5176 124.298C21.4414 124.339 21.3711 124.342 21.3066 124.307C21.248 124.271 21.1865 124.216 21.1221 124.14C21.0752 124.093 21.0225 124.043 20.9639 123.99C20.9404 123.967 20.8906 123.917 20.8145 123.841C20.5977 123.63 20.2754 123.337 19.8477 122.962C19.4258 122.581 18.9951 122.247 18.5557 121.96C18.1162 121.673 17.7734 121.567 17.5273 121.644C17.334 121.772 17.5186 122.376 18.0811 123.454C18.6436 124.532 19.7305 126.267 21.3418 128.657Z" fill="black"/>
</svg>
