<svg width="293" height="115" viewBox="0 0 293 115" fill="none" xmlns="http://www.w3.org/2000/svg">
<path d="M238.678 19.7633C239.861 21.4749 241.287 22.3888 242.957 22.5051C244.626 22.6107 246.153 21.6281 247.537 19.5572C248.351 19.5995 248.134 20.3021 246.887 21.6651C245.64 23.0175 244.399 23.7201 243.163 23.773C241.937 23.8258 240.833 23.6409 239.85 23.2183C238.878 22.7851 237.964 22.0296 237.109 20.9519C234.858 23.0017 233.051 23.8839 231.688 23.5986C230.315 23.3134 230.003 22.2409 230.753 20.3814C231.493 18.5218 232.481 16.9369 233.717 15.6268C234.964 14.306 235.83 14.0208 236.316 14.7709C236.802 15.5211 237.357 16.6464 237.98 18.1467C239.776 16.1815 241.361 14.0472 242.735 11.7438C244.108 9.42994 244.822 7.4383 244.874 5.76891C244.938 4.08895 244.367 3.0535 243.163 2.66257C241.958 2.27164 240.822 2.60446 239.755 3.66104C238.688 4.71761 238.165 5.68966 238.186 6.57719C238.102 7.43301 237.822 7.80281 237.346 7.68659C236.881 7.5598 236.866 6.83605 237.299 5.51533C237.732 4.18404 238.62 3.03766 239.961 2.07617C241.314 1.11469 242.767 0.824129 244.32 1.2045C245.883 1.58486 246.723 2.72068 246.84 4.61195C246.966 6.49266 246.338 8.63223 244.954 11.0307C243.57 13.4185 241.478 16.3294 238.678 19.7633ZM236.284 19.3829C236.147 19.0448 235.841 18.4214 235.365 17.5127C234.89 16.5935 234.293 16.6728 233.574 17.7505C232.866 18.8282 232.417 20.0538 232.227 21.4274C232.037 22.8009 232.697 22.8907 234.208 21.6968C235.73 20.4923 236.422 19.721 236.284 19.3829Z" fill="black"/>
<path d="M259.756 0C261.236 0.0739603 262.081 0.707906 262.292 1.90184C262.641 4.21574 262.451 7.33792 261.722 11.2684C260.728 15.389 259.524 18.4056 258.108 20.318C257.559 21.6175 256.655 22.579 255.398 23.2024C254.141 23.8258 252.941 23.662 251.8 22.7111C250.649 21.7602 250.3 19.404 250.754 15.6426C252.698 6.8202 255.699 1.606 259.756 0ZM253.084 19.7791C253.496 21.5225 254.093 22.2092 254.875 21.8394C255.657 21.4591 256.502 20.5134 257.411 19.0025C258.605 17.2697 259.492 14.9453 260.073 12.0291C260.602 9.95823 260.908 8.16205 260.992 6.64058C261.088 5.11911 261.082 4.02555 260.977 3.35991C260.871 2.6837 260.67 2.17126 260.374 1.82259C260.079 1.47392 259.571 1.33657 258.853 1.41053C257.131 2.17126 255.62 4.9078 254.32 9.62012C253.19 13.297 252.778 16.6833 253.084 19.7791Z" fill="black"/>
<path d="M276.746 0.554702C275.52 3.46029 274.696 5.68966 274.274 7.24283C273.851 8.796 273.476 10.2012 273.148 11.4586C272.831 12.7053 272.525 14.3008 272.229 16.2449C271.944 18.189 271.706 19.9904 271.516 21.6492C271.326 23.2975 271.067 24.1058 270.739 24.0741C270.412 24.0424 270.164 23.8892 269.995 23.6145C269.825 23.3398 269.762 22.69 269.804 21.6651C269.847 20.6402 269.921 19.7633 270.026 19.0342C270.132 18.2946 270.338 17.2592 270.644 15.9279C270.961 14.586 271.31 13.0804 271.69 11.411L272.245 9.42994L271.167 10.5235C269.604 12.4887 268.51 13.7725 267.887 14.3747C267.274 14.9664 266.719 15.3996 266.223 15.6743C265.715 15.9384 265.53 15.8539 265.668 15.4207C265.805 14.9875 266.09 14.5543 266.524 14.1211C266.946 13.6879 267.527 13.0487 268.267 12.2035C270.084 10.122 271.965 6.81492 273.909 2.2822C274.279 1.41581 274.717 0.882241 275.225 0.681492C275.732 0.470176 276.239 0.427913 276.746 0.554702Z" fill="black"/>
<path d="M290.043 0.649794C291.565 0.977333 292.008 2.34032 291.374 4.73874C290.106 5.85871 289.784 5.28816 290.408 3.02709L289.869 2.40899L289.029 2.26636C286.789 2.60446 284.533 6.00663 282.261 12.4729C281.691 13.8781 281.215 15.9701 280.835 18.7489C282.272 16.0018 283.815 13.8887 285.463 12.4095C287.122 10.9303 288.49 10.0956 289.568 9.9054C290.18 10.1484 290.497 10.8035 290.519 11.8706C289.789 14.8185 288.701 17.2592 287.254 19.1927C286.725 20.2915 285.817 21.3851 284.528 22.4734C283.323 23.2869 282.172 23.5881 281.073 23.3767C279.963 23.1549 279.329 22.1934 279.171 20.4923C278.928 16.3611 280.397 11.4744 283.577 5.8323C285.574 2.33503 287.729 0.607531 290.043 0.649794ZM281.643 19.9851C281.675 20.9044 282.219 21.3957 283.276 21.4591C284.681 20.8462 285.933 19.6576 287.032 17.8931C288.12 15.7166 288.706 14.0683 288.791 12.9483L288.839 12.1718C288.849 11.971 288.754 11.8653 288.553 11.8548L288.236 11.8389C287.676 11.8072 286.646 12.6314 285.146 14.3113C282.874 16.8788 281.707 18.7701 281.643 19.9851Z" fill="black"/>
<path d="M11.7885 45.4947L11.7726 45.8116C11.7304 46.4244 11.9681 46.7467 12.4858 46.7784C13.553 46.5988 14.451 45.9912 15.1801 44.9558C15.9091 43.9098 16.3423 42.6683 16.4797 41.2314C16.5114 39.5409 16.0359 38.7696 15.0533 38.9175C13.9016 39.3718 12.8134 41.5642 11.7885 45.4947ZM14.5937 60.0913C15.8933 59.5947 16.8812 59.1034 17.5574 58.6173C18.2442 58.1313 19.1581 57.2491 20.2992 55.9706L20.5369 56.4936C18.4766 59.8747 15.4971 61.5282 11.5983 61.4542C10.4678 61.3803 9.63834 61.1161 9.11005 60.6618C8.58177 60.2075 8.39687 59.8007 8.55535 59.4415C8.7244 59.0717 8.92515 58.892 9.1576 58.9026C9.40061 58.9132 9.60665 59.0135 9.7757 59.2037C9.94475 59.3833 10.098 59.5735 10.2353 59.7743C10.3727 59.975 10.8111 60.0596 11.5507 60.0279C12.3009 59.9962 13.1092 59.6264 13.9756 58.9185C14.8525 58.2105 15.5023 57.0219 15.925 55.3525C16.3476 53.6831 16.2102 52.1669 15.5129 50.804C14.8156 49.441 14.0231 48.7436 13.1356 48.7119C11.8149 48.2365 11.0383 48.7912 10.8059 50.376C9.87607 54.9827 8.84063 57.9253 7.69953 59.2037C6.56899 60.4716 5.32223 61.1584 3.95925 61.2641C2.60683 61.3803 1.67176 61.2271 1.15404 60.8044C0.62575 60.3818 0.446132 59.8641 0.615184 59.2513C0.784237 58.6385 1.20158 58.3426 1.86723 58.3638C2.53287 58.3849 2.84984 58.7177 2.81815 59.3622C2.78645 60.0067 3.1404 60.2656 3.88 60.1388C4.61961 60.0014 5.31166 59.6369 5.95618 59.0452C6.60069 58.443 7.15011 57.6083 7.60443 56.5412C8.06933 55.474 8.42328 53.868 8.66629 51.7232C8.90931 49.5783 9.49571 46.9897 10.4255 43.9573C11.2813 41.9921 12.2005 40.2593 13.1832 38.759C13.6375 38.0828 13.4209 37.8081 12.5334 37.9349C11.6458 38.0511 10.5893 38.5424 9.36363 39.4088C8.13801 40.2646 7.28746 41.5483 6.812 43.26C6.7803 44.3483 6.30485 44.8607 5.38562 44.7973C5.06865 44.66 4.9313 44.3377 4.97356 43.8305C5.01582 42.9536 5.55468 41.934 6.59012 40.7718C8.02706 39.0601 9.46929 37.9666 10.9168 37.4911C12.3643 37.0051 13.4103 36.7726 14.0548 36.7938C14.7099 36.8043 15.3703 36.9311 16.0359 37.1741C16.7016 37.4171 17.2563 37.919 17.7 38.6797C18.1438 39.4405 18.3287 40.4706 18.2547 41.7702C18.0751 43.1649 17.5046 44.3747 16.5431 45.3996C15.7929 46.1497 15.1325 46.7097 14.562 47.0795C16.1574 47.872 17.2193 49.1663 17.7476 50.9624C18.2759 52.7481 18.1966 54.5284 17.5098 56.3034C16.8231 58.0679 15.851 59.3305 14.5937 60.0913Z" fill="black"/>
<path d="M30.9019 44.6388L31.7895 43.8622L31.9638 44.4011C31.0129 45.6267 29.9299 46.5248 28.7148 47.0954C27.5103 47.6554 26.5277 47.7769 25.767 47.4599C25.0062 47.1323 24.5942 46.6727 24.5308 46.0811C24.4674 45.4788 24.6047 45.0509 24.9428 44.7973C25.2915 44.5437 25.6243 44.4381 25.9413 44.4803C26.2688 44.5226 26.4432 44.7128 26.4643 45.0509C26.496 45.389 26.6809 45.6584 27.019 45.8592C27.3571 46.0494 27.9594 46.0229 28.8258 45.7799C29.6922 45.5369 30.3842 45.1566 30.9019 44.6388ZM28.0175 49.5361L29.1586 49.4727L29.5073 50.1859C29.5495 50.693 29.2484 51.6756 28.6039 53.1337C28.1496 54.5812 27.8431 55.5427 27.6847 56.0182L27.4628 57.4921C27.2726 58.5803 27.4258 59.0769 27.9224 58.9818L28.5246 58.649C28.9473 58.3109 29.8771 57.36 31.314 55.7963C31.5464 55.8068 31.6944 55.9812 31.7578 56.3193C29.9721 59.0981 28.5563 60.4663 27.5103 60.4241C26.2319 60.6988 25.6296 60.0067 25.7036 58.3479L26.2424 55.5902C24.6047 57.6611 23.1414 59.1034 21.8524 59.9169C21.2924 60.329 20.5475 60.4928 19.6177 60.4082L19.1739 59.9486L19.0313 59.3939C18.9679 58.5803 19.0524 57.7668 19.2849 56.9532C19.5385 56.2453 19.9188 55.437 20.426 54.5284C21.4403 52.9013 22.761 51.5858 24.3881 50.5821C26.0258 49.5678 27.2356 49.2191 28.0175 49.5361ZM22.0584 58.0151C23.1678 57.2226 24.0289 56.4408 24.6417 55.6695C25.3708 54.9404 26.047 53.7782 26.6703 52.1828C26.1632 51.3904 25.4236 51.3005 24.4515 51.9134C23.8916 52.2198 23.247 52.8854 22.518 53.9103C21.7044 55.0091 21.1656 56.0076 20.9014 56.9057C20.6373 58.3004 21.0229 58.6702 22.0584 58.0151ZM32.6453 38.2043C32.7404 39.0601 32.1593 40.1484 30.9019 41.4691C30.5004 42.0714 30.0778 42.5468 29.634 42.8955L29.7133 42.9272C29.3857 43.1596 29.0529 43.4238 28.7148 43.7196C28.3873 44.0154 28.1126 44.2109 27.8907 44.306C27.6688 44.3905 27.5315 44.3113 27.4786 44.0683L29.6023 41.1997C30.3314 40.0797 30.8385 39.1077 31.1238 38.2835C31.4091 37.4594 31.8476 37.2005 32.4393 37.5069L32.6453 38.2043Z" fill="black"/>
<path d="M33.3743 51.5647L33.0098 51.2636H32.1223L31.2665 51.1526C30.474 50.9307 30.4212 50.5874 31.108 50.1225C32.2385 50.1225 33.0204 50.0591 33.4536 49.9323C33.8973 49.7949 34.3147 48.9655 34.7056 47.444C35.2867 45.0879 35.7622 43.4079 36.132 42.4042L36.6867 41.4533C37.1516 41.1574 37.458 41.2261 37.6059 41.6593C37.7538 42.0925 37.6112 42.811 37.178 43.8147L36.2588 46.7309C35.9629 47.6923 35.8573 48.4584 35.9418 49.0289C36.2482 49.293 36.5863 49.5149 36.9561 49.6945C39.3228 49.8319 40.5009 49.8213 40.4904 49.6628L40.9183 49.7738L40.9341 49.9164C40.9024 50.2017 40.1523 50.45 38.6836 50.6613L37.5108 50.9783L36.4965 51.1209C35.7569 51.2371 35.1863 52.1088 34.7849 53.736C34.2143 55.7646 33.9607 57.2226 34.0241 58.1102C34.0875 58.9977 34.5999 59.1139 35.5614 58.4588C36.2376 58.1102 37.4104 56.8951 39.0798 54.8137H39.2225L39.3017 55.4159C37.7169 57.7404 36.5388 59.2037 35.7675 59.806C35.1969 60.3977 34.526 60.7094 33.7547 60.741C32.4868 60.6882 31.9849 59.732 32.2491 57.8724C32.3547 56.9427 32.6242 55.6378 33.0574 53.9578C32.2438 55.437 31.4566 56.6098 30.6959 57.4762C29.9352 58.3321 29.4808 58.7019 29.3329 58.5856C29.1744 58.4694 29.1427 58.3426 29.2378 58.2053C29.3329 58.0573 29.5125 57.8091 29.7767 57.4604C30.0408 57.1117 30.4687 56.5042 31.0604 55.6378C31.6415 54.7714 32.4128 53.4137 33.3743 51.5647Z" fill="black"/>
<path d="M54.3738 47.4599C53.6764 47.5867 52.9844 47.6606 52.2976 47.6818C51.6214 47.6923 50.9082 47.687 50.158 47.6659C49.4079 47.6342 48.9377 47.5127 48.7475 47.3014C48.5573 47.0901 48.832 46.7044 49.5716 46.1445L55.2137 46.1761C56.8726 45.9965 58.0507 45.9384 58.748 46.0018C59.4559 46.0546 59.3397 46.2448 58.3993 46.5724C57.4695 46.8893 56.1277 47.1852 54.3738 47.4599ZM56.7194 36.9998C57.142 35.9115 57.6016 35.4149 58.0982 35.51C58.5948 35.6051 58.5103 36.5349 57.8446 38.2994C56.8409 41.7015 56.0749 44.6758 55.5466 47.2222C55.0288 49.7685 54.6168 51.7707 54.3104 53.2288C54.0145 54.6869 53.724 56.5042 53.4387 58.6807C53.4915 59.4098 53.9036 59.3992 54.6749 58.649L55.7684 57.6347C56.3601 56.8845 57.0416 56.0023 57.8129 54.988L58.0665 55.4793C56.8197 58.0257 55.3775 59.8482 53.7398 60.9471L52.9791 61.1056C52.0282 60.8203 51.5791 60.0807 51.632 58.8868C52.1708 55.4423 52.2078 53.9525 51.7429 54.4174C52.0599 53.4348 52.0863 52.7375 51.8221 52.3254C51.5686 51.9134 51.1354 51.7337 50.5225 51.7866C49.9097 51.8394 49.1913 52.225 48.3671 52.9435C47.543 53.6514 46.8668 54.5284 46.3385 55.5744C45.8102 56.6204 45.62 57.4604 45.768 58.0943C45.9053 58.7283 46.2593 59.0083 46.8298 58.9343C47.4109 58.8498 48.0766 58.4905 48.8267 57.8566C49.5875 57.2121 50.5701 56.0287 51.7746 54.3065C52.5036 53.0069 52.7889 52.9858 52.6304 54.2431C51.5844 56.1555 50.4327 57.7087 49.1754 58.9026C47.9287 60.086 46.9883 60.7622 46.3544 60.9312C45.7204 61.1003 45.208 61.1109 44.817 60.9629C44.4155 60.815 44.1091 60.4769 43.8978 59.9486C43.6865 59.4203 43.7024 58.612 43.9454 57.5238C44.1884 56.4249 44.6955 55.3419 45.4668 54.2748C46.2381 53.1971 47.0306 52.3254 47.8441 51.6598C48.6683 50.9941 49.4554 50.5662 50.2056 50.376C50.9557 50.1753 51.5474 50.1594 51.9806 50.3285C52.4138 50.4975 52.7414 50.7617 52.9632 51.1209L53.2168 50.3443C53.5444 49.161 54.0674 47.0478 54.7858 44.0049C55.5149 40.9619 56.1594 38.6269 56.7194 36.9998Z" fill="black"/>
<path d="M65.0082 49.5361L66.1493 49.4727L66.498 50.1859C66.5402 50.693 66.2391 51.6756 65.5946 53.1337C65.1403 54.5812 64.8339 55.5427 64.6754 56.0182L64.4535 57.4921C64.2633 58.5803 64.4165 59.0769 64.9131 58.9818L65.5154 58.649C65.938 58.3109 66.8678 57.36 68.3047 55.7963C68.5372 55.8068 68.6851 55.9812 68.7485 56.3193C66.9629 59.0981 65.5471 60.4663 64.501 60.4241C63.2226 60.6988 62.6203 60.0067 62.6943 58.3479L63.2332 55.5902C61.5955 57.6611 60.1321 59.1034 58.8431 59.9169C58.2831 60.329 57.5382 60.4928 56.6084 60.4082L56.1647 59.9486L56.022 59.3939C55.9586 58.5803 56.0432 57.7668 56.2756 56.9532C56.5292 56.2453 56.9096 55.437 57.4167 54.5284C58.431 52.9013 59.7517 51.5858 61.3789 50.5821C63.0166 49.5678 64.2263 49.2191 65.0082 49.5361ZM59.0491 58.0151C60.1585 57.2226 61.0196 56.4408 61.6324 55.6695C62.3615 54.9404 63.0377 53.7782 63.6611 52.1828C63.1539 51.3904 62.4143 51.3005 61.4423 51.9134C60.8823 52.2198 60.2378 52.8854 59.5087 53.9103C58.6952 55.0091 58.1563 56.0076 57.8922 56.9057C57.628 58.3004 58.0137 58.6702 59.0491 58.0151ZM68.0987 48.0146L67.3538 47.7927L65.9433 46.6675C65.4361 45.6003 64.1629 46.0071 62.1238 47.8878L61.1887 48.3474L60.4438 48.3633L59.8257 47.8878L60 47.0478L60.8242 46.7625C61.997 46.5512 63.2807 45.6637 64.6754 44.1L65.3093 43.6562L65.7214 43.7355L67.5757 46.6833L68.7326 47.6501L68.5583 47.872L68.0987 48.0146ZM64.2158 40.2963C64.501 39.6941 65.0029 39.6359 65.7214 40.122C66.4399 40.5974 67.4331 41.057 68.7009 41.5008L72.1242 42.4993C72.2299 42.7211 72.1665 42.8638 71.9341 42.9272C71.7016 42.9906 71.3635 43.0064 70.9197 42.9747C70.476 42.943 70.0586 42.9377 69.6677 42.9589L69.6994 42.8638C69.1394 42.8638 68.516 42.7476 67.8293 42.5151C66.0331 42.2193 64.9078 41.7015 64.4535 40.9619L64.2158 40.2963Z" fill="black"/>
<path d="M78.8599 49.0923C79.4622 48.881 79.7474 49.0817 79.7157 49.6945C78.3422 53.6144 77.5815 56.0023 77.4335 56.8581L77.2751 57.8249C77.2539 58.5539 77.4652 58.9554 77.909 59.0294C79.1558 58.4483 80.3021 57.3389 81.3482 55.7012C81.5172 55.7012 81.7285 55.5955 81.9821 55.3842H82.2832C81.4063 57.3811 80.1384 58.9924 78.4796 60.218C76.6411 61.1267 75.6374 60.5667 75.4683 58.5381L75.7853 56.6996C75.0457 58.0415 74.0895 59.1456 72.9167 60.012C72.0186 60.6354 71.3054 60.8995 70.7771 60.8044C70.2488 60.7199 69.9002 60.3712 69.7311 59.7584C69.562 59.1351 69.8156 57.7774 70.4918 55.6853L70.793 54.2273C71.0043 53.3714 70.5552 53.7043 69.4458 55.2257L67.2904 57.9517C66.6776 58.0045 66.5878 57.7509 67.021 57.191C67.4542 56.631 67.8293 56.1132 68.1462 55.6378C68.4632 55.1623 69.6836 53.3239 71.8073 50.1225C72.9061 49.5413 73.5242 49.5202 73.6616 50.0591C72.9854 52.4364 72.5152 54.0688 72.251 54.9563C71.9869 55.8333 71.7544 56.8845 71.5537 58.1102L71.6488 58.7124L71.9182 58.8234C72.6789 58.7283 73.9204 57.5502 75.6426 55.2891L77.7505 50.376L78.8599 49.0923Z" fill="black"/>
<path d="M85.3896 59.7901C84.5549 60.498 84.3911 60.5086 84.8982 59.8218C86.5359 58.0151 88.0152 56.2189 89.3359 54.4333C90.6566 52.6371 91.8505 51.2583 92.9177 50.2968C93.9848 49.3247 94.7878 48.7014 95.3267 48.4267C95.8761 48.1414 96.2512 48.0463 96.4519 48.1414C96.6527 48.2365 96.51 48.4636 96.024 48.8229C95.538 49.1715 94.6769 49.9693 93.4407 51.216C92.2045 52.4628 89.5208 55.3208 85.3896 59.7901ZM90.4928 47.1905C90.5562 48.7436 90.7358 50.6138 91.0317 52.8009C91.3381 54.9774 91.7449 56.5359 92.252 57.4762C92.7697 58.4166 93.3773 58.7705 94.0746 58.5381C94.7825 58.3056 95.6859 57.5079 96.7847 56.1449C97.4609 55.3102 97.8624 54.9721 97.9892 55.1306C98.1266 55.2785 97.7832 55.9495 96.9591 57.1434C96.1349 58.3373 95.3425 59.1773 94.5818 59.6633C93.8316 60.1494 93.0814 60.255 92.3313 59.9803C91.5811 59.7056 90.9736 59.0717 90.5087 58.0785C90.0438 57.0747 89.711 55.754 89.5102 54.1163C89.3095 52.4786 89.2355 50.9519 89.2883 49.5361C89.3517 48.1202 89.7532 47.3384 90.4928 47.1905ZM89.2566 54.671H89.3993L90.3026 54.7027C88.3268 57.0166 86.7684 58.6913 85.6273 59.7267C84.4862 60.7516 83.6145 61.3116 83.0123 61.4067C83.7413 60.8044 84.5496 60.0543 85.4371 59.1562C86.3141 58.2475 87.5872 56.7525 89.2566 54.671Z" fill="black"/>
<path d="M104.915 49.5361L106.056 49.4727L106.405 50.1859C106.447 50.693 106.146 51.6756 105.501 53.1337C105.047 54.5812 104.741 55.5427 104.582 56.0182L104.36 57.4921C104.17 58.5803 104.323 59.0769 104.82 58.9818L105.422 58.649C105.845 58.3109 106.775 57.36 108.212 55.7963C108.444 55.8068 108.592 55.9812 108.655 56.3193C106.87 59.0981 105.454 60.4663 104.408 60.4241C103.129 60.6988 102.527 60.0067 102.601 58.3479L103.14 55.5902C101.502 57.6611 100.039 59.1034 98.75 59.9169C98.19 60.329 97.4451 60.4928 96.5153 60.4082L96.0715 59.9486L95.9289 59.3939C95.8655 58.5803 95.95 57.7668 96.1825 56.9532C96.4361 56.2453 96.8164 55.437 97.3236 54.5284C98.3379 52.9013 99.6586 51.5858 101.286 50.5821C102.923 49.5678 104.133 49.2191 104.915 49.5361ZM98.956 58.0151C100.065 57.2226 100.927 56.4408 101.539 55.6695C102.268 54.9404 102.945 53.7782 103.568 52.1828C103.061 51.3904 102.321 51.3005 101.349 51.9134C100.789 52.2198 100.145 52.8854 99.4156 53.9103C98.602 55.0091 98.0632 56.0076 97.799 56.9057C97.5349 58.3004 97.9205 58.6702 98.956 58.0151ZM108.006 48.0146L107.261 47.7927L105.85 46.6675C105.343 45.6003 104.07 46.0071 102.031 47.8878L101.096 48.3474L100.351 48.3633L99.7326 47.8878L99.9069 47.0478L100.731 46.7625C101.904 46.5512 103.188 45.6637 104.582 44.1L105.216 43.6562L105.628 43.7355L107.483 46.6833L108.64 47.6501L108.465 47.872L108.006 48.0146Z" fill="black"/>
<path d="M115.93 60.8837C114.06 62.6376 112.221 64.6504 110.415 66.922C108.618 69.1937 107.583 71.217 107.308 72.9921C107.034 74.7671 107.345 75.7867 108.243 76.0508C109.131 76.3255 110.172 75.6969 111.365 74.1648C112.57 72.6328 113.563 70.4932 114.345 67.7461C115.127 64.9991 115.655 62.7116 115.93 60.8837ZM118.149 57.6981C118.878 56.8845 119.771 55.8755 120.827 54.671C120.996 54.6499 121.197 54.5231 121.429 54.2907L121.572 54.259C120.769 55.8755 119.512 57.6189 117.8 59.489L117.705 59.9962C117.462 60.609 117.261 61.3856 117.103 62.3259C116.627 65.6224 115.882 68.5122 114.868 70.9951C113.864 73.4886 112.713 75.2795 111.413 76.3678C110.124 77.4666 108.898 77.921 107.736 77.7308C106.563 77.5512 105.94 76.6637 105.866 75.0682C105.792 73.4834 106.331 71.6555 107.483 69.5846C108.624 67.5243 110.848 64.6504 114.155 60.9629C115.528 59.3675 116.3 57.8777 116.469 56.4936L116.421 56.0974C116.389 55.8227 116.22 55.7857 115.914 55.9865L115.391 56.5887C115.042 57.1276 114.604 57.7192 114.076 58.3638C112.681 60.4241 111.45 61.3433 110.383 61.1214C109.738 60.9841 109.432 60.366 109.464 59.2671C110.119 56.6257 110.61 54.8084 110.938 53.8152C110.906 53.551 110.536 53.9367 109.828 54.9721C109.12 55.997 108.011 57.2068 106.5 58.6015L106.009 58.2528L107.308 56.6046C108.344 55.3578 110.082 52.9646 112.522 49.4251C113.294 49.3617 113.568 49.9534 113.347 51.2002C112.649 53.4401 112.058 55.5797 111.572 57.6189C111.265 58.929 111.36 59.4996 111.857 59.3305C112.364 59.1615 112.993 58.6173 113.743 57.6981H113.774C114.028 57.4023 114.313 57.0536 114.63 56.6521V56.6046C116.353 53.8786 117.821 51.422 119.036 49.2349C119.533 48.8017 119.977 48.8757 120.368 49.4568C119.755 51.4115 119.211 53.176 118.735 54.7503L118.149 57.6981Z" fill="black"/>
<path d="M138.562 36.9998C138.984 35.9115 139.444 35.4149 139.941 35.51C140.437 35.6051 140.353 36.5349 139.687 38.2994C138.683 41.7015 137.917 44.6758 137.389 47.2222C136.871 49.7685 136.459 51.7707 136.153 53.2288C135.857 54.6869 135.566 56.5042 135.281 58.6807C135.334 59.4098 135.746 59.3992 136.517 58.649L137.611 57.6347C138.203 56.8845 138.884 56.0023 139.655 54.988L139.909 55.4793C138.662 58.0257 137.22 59.8482 135.582 60.9471L134.821 61.1056C133.871 60.8203 133.422 60.0807 133.474 58.8868C134.013 55.4423 134.05 53.9525 133.585 54.4174C133.902 53.4348 133.929 52.7375 133.665 52.3254C133.411 51.9134 132.978 51.7337 132.365 51.7866C131.752 51.8394 131.034 52.225 130.21 52.9435C129.385 53.6514 128.709 54.5284 128.181 55.5744C127.653 56.6204 127.462 57.4604 127.61 58.0943C127.748 58.7283 128.102 59.0083 128.672 58.9343C129.253 58.8498 129.919 58.4905 130.669 57.8566C131.43 57.2121 132.412 56.0287 133.617 54.3065C134.346 53.0069 134.631 52.9858 134.473 54.2431C133.427 56.1555 132.275 57.7087 131.018 58.9026C129.771 60.086 128.831 60.7622 128.197 60.9312C127.563 61.1003 127.05 61.1109 126.659 60.9629C126.258 60.815 125.952 60.4769 125.74 59.9486C125.529 59.4203 125.545 58.612 125.788 57.5238C126.031 56.4249 126.538 55.3419 127.309 54.2748C128.081 53.1971 128.873 52.3254 129.687 51.6598C130.511 50.9941 131.298 50.5662 132.048 50.376C132.798 50.1753 133.39 50.1594 133.823 50.3285C134.256 50.4975 134.584 50.7617 134.806 51.1209L135.059 50.3443C135.387 49.161 135.91 47.0478 136.628 44.0049C137.357 40.9619 138.002 38.6269 138.562 36.9998Z" fill="black"/>
<path d="M149.735 49.0923C150.337 48.881 150.623 49.0817 150.591 49.6945C149.217 53.6144 148.457 56.0023 148.309 56.8581L148.15 57.8249C148.129 58.5539 148.34 58.9554 148.784 59.0294C150.031 58.4483 151.177 57.3389 152.223 55.7012C152.392 55.7012 152.604 55.5955 152.857 55.3842H153.158C152.281 57.3811 151.013 58.9924 149.355 60.218C147.516 61.1267 146.512 60.5667 146.343 58.5381L146.66 56.6996C145.921 58.0415 144.965 59.1456 143.792 60.012C142.894 60.6354 142.181 60.8995 141.652 60.8044C141.124 60.7199 140.775 60.3712 140.606 59.7584C140.437 59.1351 140.691 57.7774 141.367 55.6853L141.668 54.2273C141.879 53.3714 141.43 53.7043 140.321 55.2257L138.166 57.9517C137.553 58.0045 137.463 57.7509 137.896 57.191C138.329 56.631 138.704 56.1132 139.021 55.6378C139.338 55.1623 140.559 53.3239 142.682 50.1225C143.781 49.5413 144.399 49.5202 144.537 50.0591C143.86 52.4364 143.39 54.0688 143.126 54.9563C142.862 55.8333 142.63 56.8845 142.429 58.1102L142.524 58.7124L142.793 58.8234C143.554 58.7283 144.796 57.5502 146.518 55.2891L148.626 50.376L149.735 49.0923ZM149.291 52.0243C149.323 52.7111 149.429 52.4205 149.608 51.1526L150.718 50.899C151.5 50.4658 151.938 50.133 152.033 49.9006C152.139 49.6576 152.038 49.4304 151.732 49.2191C151.436 48.9972 151.278 48.7331 151.257 48.4267C151.235 48.1097 151.33 47.8086 151.542 47.5233C151.764 47.2274 152.044 47.0373 152.382 46.9527C152.73 46.8576 153.032 46.8576 153.285 46.9527C153.539 47.0478 153.761 47.2222 153.951 47.4757C154.152 47.7293 154.236 48.0357 154.204 48.395C154.183 48.7542 154.083 49.1504 153.903 49.5836C153.724 50.0062 153.232 50.4764 152.429 50.9941C151.637 51.5119 150.591 51.8552 149.291 52.0243ZM143.681 62.6746H144.045C144.214 62.6746 144.389 62.8542 144.568 63.2134V63.5621C144.484 64.7455 144.13 65.3372 143.507 65.3372C143.19 65.3372 142.894 65.0413 142.619 64.4496C143.042 63.2663 143.396 62.6746 143.681 62.6746Z" fill="black"/>
<path d="M154.632 60.7569L154.458 60.0279L155.504 55.511L155.868 54.1956C156.228 52.9171 156.001 52.4945 155.187 52.9277C153.116 56.1291 151.7 57.6928 150.94 57.6189C151.795 56.277 153.412 53.9631 155.789 50.6772C156.561 50.2123 157.099 49.9798 157.406 49.9798C157.839 50.2757 158.071 50.7881 158.103 51.5171L158.04 52.8167L157.913 53.8152L157.628 55.0514L155.932 60.3765C155.678 60.8943 155.245 61.021 154.632 60.7569ZM161.336 60.646C160.565 60.6037 160.153 60.1811 160.1 59.3781L160.195 58.1894C160.649 56.5834 161.003 55.2627 161.257 54.2273C161.965 52.2515 161.923 51.4379 161.13 51.7866L160.306 52.373C159.271 53.2816 157.976 55.1518 156.423 57.9834L155.742 57.4287L158.024 54.0688C160.179 50.9519 161.78 49.4515 162.826 49.5678C163.65 49.7474 163.994 50.3866 163.856 51.4854L163.571 52.4522C163.275 53.5827 162.852 55.1676 162.303 57.2068C161.933 58.443 161.981 58.9977 162.446 58.8709L162.287 60.3448L161.336 60.646ZM165.409 55.7012C165.578 55.7012 165.79 55.5955 166.043 55.3842H166.344C165.467 57.3811 164.2 58.9924 162.541 60.218C162.298 60.3343 162.071 60.4294 161.859 60.5033L162.366 58.8551C163.434 58.2634 164.448 57.2121 165.409 55.7012Z" fill="black"/>
<path d="M171.242 61.3116C170.65 61.935 169.947 62.7221 169.134 63.673C168.331 64.624 167.406 65.8866 166.36 67.4609C165.325 69.0457 164.596 70.5302 164.173 71.9143C163.74 73.2985 163.666 74.3709 163.951 75.1316C164.226 75.8923 164.786 76.072 165.631 75.6705C166.466 75.269 167.258 74.2916 168.009 72.7385C168.759 71.1853 169.398 69.3838 169.926 67.3341C170.465 65.2843 170.904 63.2768 171.242 61.3116ZM166.994 58.4588C167.501 58.9977 168.167 59.1403 168.991 58.8868C169.815 58.6332 170.518 58.0573 171.099 57.1593C171.68 56.2506 172.076 55.157 172.288 53.8786C172.499 52.6001 172.214 51.6386 171.432 50.9941C170.65 50.3391 169.715 50.5662 168.627 51.6756C167.538 52.7745 166.867 54.0424 166.614 55.4793C166.371 56.9162 166.498 57.9094 166.994 58.4588ZM174.443 57.3336C175.162 57.0378 176.419 55.7963 178.215 53.6092L178.152 54.5284L177.502 55.7329C177.037 56.5464 175.753 57.9675 173.651 59.9962L172.953 60.8203C172.161 65.0043 171.31 68.2427 170.402 70.5355C169.493 72.8283 168.399 74.6614 167.121 76.035C165.853 77.4085 164.717 77.9791 163.714 77.7466C162.71 77.5248 162.118 76.7535 161.938 75.4327C161.748 74.1226 162.086 72.5483 162.953 70.7098C163.819 68.882 164.738 67.3869 165.71 66.2247C166.672 65.0624 167.565 64.0428 168.389 63.1659C169.16 62.3312 170.201 61.2271 171.511 59.8535C171.617 59.2301 171.749 58.5064 171.907 57.6823C170.238 59.9962 168.648 61.0897 167.137 60.9629C165.626 60.8361 164.818 59.8588 164.712 58.0309C164.606 56.2031 165.166 54.3699 166.392 52.5315C167.618 50.693 168.843 49.647 170.069 49.3934C171.305 49.1293 172.198 49.198 172.747 49.5995C173.307 49.9904 173.651 50.3919 173.777 50.804C173.904 51.2054 174.047 51.0047 174.205 50.2017C174.374 49.3881 174.734 48.9655 175.283 48.9338C175.843 48.9021 175.906 49.5942 175.473 51.01C175.04 52.4258 174.565 54.222 174.047 56.3985L174.11 57.0008C174.121 57.117 174.232 57.2279 174.443 57.3336Z" fill="black"/>
<path d="M184.713 57.0008H184.697C184.708 57.0113 184.713 57.0113 184.713 57.0008ZM188.564 53.7835C188.564 53.9314 188.76 54.1269 189.151 54.3699H189.309L191.401 52.1352V51.8341C191.401 51.6334 191.301 51.533 191.1 51.533H190.799C190.471 51.533 189.726 52.2832 188.564 53.7835ZM186.425 52.8643L186.266 53.4982C187.428 53.382 189.04 52.1828 191.1 49.9006C191.766 49.5942 192.215 49.441 192.447 49.441C193.06 49.6417 193.409 49.89 193.493 50.1859V50.487C192.775 51.9662 191.412 53.6514 189.404 55.5427C189.996 56.4725 190.418 57.2808 190.672 57.9675C190.936 58.6543 191.237 59.04 191.575 59.1245C191.914 59.1984 192.4 58.9713 193.034 58.443C193.667 57.9041 194.381 57.2121 195.173 56.3668C195.754 55.5744 195.971 55.6325 195.823 56.5412C193.773 59.6792 192.141 61.095 190.926 60.7886C190.228 60.7252 189.658 60.0173 189.214 58.6649C188.77 57.3125 188.406 56.557 188.12 56.3985C187.846 56.24 187.529 56.1925 187.17 56.2559C186.81 56.3087 186.33 56.52 185.727 56.8898C185.136 57.2596 184.65 58.5803 184.269 60.852C183.361 61.6233 182.943 61.2112 183.017 59.6158L183.651 56.3034L183.683 55.9706C183.788 55.548 184.074 54.1691 184.539 51.8341L186.599 52.2145L186.425 52.8643ZM185.41 53.8786C184.311 55.3367 183.751 56.1608 183.73 56.351C182.23 58.2739 181.131 59.3675 180.434 59.6316C180.106 59.4732 180.281 59.0769 180.957 58.443L182.605 56.1925C183.218 55.062 183.952 53.8416 184.808 52.5315L185.41 53.8786ZM192.685 37.5703C192.209 37.042 191.496 37.47 190.545 38.8541C189.605 40.2382 188.728 42.3302 187.914 45.1301C187.111 47.9301 186.662 49.6681 186.567 50.3443C186.483 51.0205 186.71 51.0417 187.249 50.4077C187.798 49.7632 188.606 48.6433 189.674 47.0478C190.741 45.4418 191.628 43.5928 192.336 41.5008C193.055 39.4088 193.171 38.0986 192.685 37.5703ZM184.206 53.4665C184.333 52.8537 184.496 52.093 184.697 51.1843C185.215 49.05 185.711 47.1165 186.187 45.3837C186.662 43.6509 187.339 41.8442 188.216 39.9635C189.092 38.0828 190.017 36.8307 190.989 36.2074C191.961 35.5734 192.748 35.4572 193.35 35.8587C193.953 36.2496 194.238 36.8783 194.206 37.7447C194.175 38.6111 194.037 39.5197 193.794 40.4706C193.562 41.411 193.24 42.3196 192.827 43.1966C192.415 44.0736 191.945 44.9981 191.417 45.9701C190.899 46.9422 190.445 47.7346 190.054 48.3474C189.695 48.9074 188.48 50.5504 186.409 53.2763C186.303 53.4243 186.192 53.5775 186.076 53.736C185.981 54.0635 185.891 54.3752 185.807 54.671L183.968 53.9103C184.042 53.7624 184.121 53.6144 184.206 53.4665Z" fill="black"/>
<path d="M204.413 41.5008C205.131 39.4088 205.248 38.0986 204.762 37.5703C204.286 37.042 203.573 37.47 202.622 38.8541C201.682 40.2382 200.805 42.3302 199.991 45.1301C199.188 47.9301 198.739 49.6681 198.644 50.3443C198.559 51.0205 198.787 51.0417 199.325 50.4077C199.875 49.7632 200.683 48.6433 201.75 47.0478C202.817 45.4418 203.705 43.5928 204.413 41.5008ZM202.051 54.5601C202.802 52.3624 202.78 51.4379 201.988 51.7866C201.47 51.9767 200.736 52.7481 199.785 54.1005C198.845 55.4423 198.01 57.0219 197.281 58.8392L196.679 60.1705C195.538 61.2376 194.978 61.0527 194.999 59.6158L195.3 58.1102L195.633 56.5729C194.217 58.3585 193.176 59.3781 192.511 59.6316C192.183 59.4732 192.357 59.0769 193.034 58.443L194.682 56.1925C195.147 55.4846 195.68 54.5759 196.282 53.4665C196.409 52.8537 196.573 52.093 196.774 51.1843C197.292 49.05 197.788 47.1165 198.264 45.3837C198.739 43.6509 199.415 41.8442 200.292 39.9635C201.169 38.0828 202.094 36.8307 203.066 36.2074C204.038 35.5734 204.825 35.4572 205.427 35.8587C206.029 36.2496 206.315 36.8783 206.283 37.7447C206.251 38.6111 206.114 39.5197 205.871 40.4706C205.638 41.411 205.316 42.3196 204.904 43.1966C204.492 44.0736 204.022 44.9981 203.494 45.9701C202.976 46.9422 202.522 47.7346 202.131 48.3474C201.771 48.9074 200.556 50.5504 198.485 53.2763C198.38 53.4243 198.269 53.5775 198.153 53.736C197.888 54.634 197.682 55.4053 197.535 56.0499L198.882 54.0688C201.037 50.9519 202.638 49.4515 203.684 49.5678C204.402 49.7474 204.693 50.3866 204.555 51.4854L204.27 52.4522C203.974 53.5827 203.552 55.1676 203.002 57.2068C202.738 58.0943 202.733 58.612 202.986 58.76C203.251 58.9079 203.515 58.892 203.779 58.7124C204.043 58.5328 204.423 58.1736 204.92 57.6347C205.427 57.0959 205.966 56.388 206.537 55.511C206.938 54.9616 207.229 54.8559 207.408 55.194C206.383 57.1381 205.454 58.5434 204.619 59.4098C203.784 60.2656 203.06 60.6988 202.448 60.7094C201.845 60.7199 201.439 60.5561 201.227 60.218C201.027 59.8799 200.942 59.4784 200.974 59.0135C201.016 58.5381 201.153 57.883 201.386 57.0483C201.618 56.2031 201.84 55.3736 202.051 54.5601Z" fill="black"/>
<path d="M217.155 49.0923C217.757 48.881 218.043 49.0817 218.011 49.6945C216.637 53.6144 215.877 56.0023 215.729 56.8581L215.57 57.8249C215.549 58.5539 215.76 58.9554 216.204 59.0294C217.451 58.4483 218.597 57.3389 219.643 55.7012C219.812 55.7012 220.024 55.5955 220.277 55.3842H220.578C219.702 57.3811 218.434 58.9924 216.775 60.218C214.936 61.1267 213.933 60.5667 213.764 58.5381L214.081 56.6996C213.341 58.0415 212.385 59.1456 211.212 60.012C210.314 60.6354 209.601 60.8995 209.072 60.8044C208.544 60.7199 208.195 60.3712 208.026 59.7584C207.857 59.1351 208.111 57.7774 208.787 55.6853L209.088 54.2273C209.3 53.3714 208.85 53.7043 207.741 55.2257L205.586 57.9517C204.973 58.0045 204.883 57.7509 205.316 57.191C205.749 56.631 206.125 56.1132 206.441 55.6378C206.758 55.1623 207.979 53.3239 210.103 50.1225C211.201 49.5413 211.819 49.5202 211.957 50.0591C211.281 52.4364 210.81 54.0688 210.546 54.9563C210.282 55.8333 210.05 56.8845 209.849 58.1102L209.944 58.7124L210.213 58.8234C210.974 58.7283 212.216 57.5502 213.938 55.2891L216.046 50.376L217.155 49.0923Z" fill="black"/>
<path d="M238.186 36.9998C238.609 35.9115 239.069 35.4149 239.565 35.51C240.062 35.6051 239.977 36.5349 239.312 38.2994C238.308 41.7015 237.542 44.6758 237.014 47.2222C236.496 49.7685 236.084 51.7707 235.777 53.2288C235.481 54.6869 235.191 56.5042 234.906 58.6807C234.958 59.4098 235.371 59.3992 236.142 58.649L237.235 57.6347C237.827 56.8845 238.509 56.0023 239.28 54.988L239.533 55.4793C238.287 58.0257 236.844 59.8482 235.207 60.9471L234.446 61.1056C233.495 60.8203 233.046 60.0807 233.099 58.8868C233.638 55.4423 233.675 53.9525 233.21 54.4174C233.527 53.4348 233.553 52.7375 233.289 52.3254C233.035 51.9134 232.602 51.7337 231.989 51.7866C231.377 51.8394 230.658 52.225 229.834 52.9435C229.01 53.6514 228.334 54.5284 227.805 55.5744C227.277 56.6204 227.087 57.4604 227.235 58.0943C227.372 58.7283 227.726 59.0083 228.297 58.9343C228.878 58.8498 229.544 58.4905 230.294 57.8566C231.054 57.2121 232.037 56.0287 233.242 54.3065C233.971 53.0069 234.256 52.9858 234.097 54.2431C233.051 56.1555 231.9 57.7087 230.642 58.9026C229.396 60.086 228.455 60.7622 227.821 60.9312C227.187 61.1003 226.675 61.1109 226.284 60.9629C225.882 60.815 225.576 60.4769 225.365 59.9486C225.153 59.4203 225.169 58.612 225.412 57.5238C225.655 56.4249 226.162 55.3419 226.934 54.2748C227.705 53.1971 228.497 52.3254 229.311 51.6598C230.135 50.9941 230.922 50.5662 231.673 50.376C232.423 50.1753 233.014 50.1594 233.448 50.3285C233.881 50.4975 234.208 50.7617 234.43 51.1209L234.684 50.3443C235.011 49.161 235.534 47.0478 236.253 44.0049C236.982 40.9619 237.626 38.6269 238.186 36.9998Z" fill="black"/>
<path d="M249.36 49.0923C249.962 48.881 250.247 49.0817 250.215 49.6945C248.842 53.6144 248.081 56.0023 247.933 56.8581L247.775 57.8249C247.754 58.5539 247.965 58.9554 248.409 59.0294C249.655 58.4483 250.802 57.3389 251.848 55.7012C252.017 55.7012 252.228 55.5955 252.482 55.3842H252.783C251.906 57.3811 250.638 58.9924 248.979 60.218C247.141 61.1267 246.137 60.5667 245.968 58.5381L246.285 56.6996C245.545 58.0415 244.589 59.1456 243.416 60.012C242.518 60.6354 241.805 60.8995 241.277 60.8044C240.749 60.7199 240.4 60.3712 240.231 59.7584C240.062 59.1351 240.315 57.7774 240.992 55.6853L241.293 54.2273C241.504 53.3714 241.055 53.7043 239.946 55.2257L237.79 57.9517C237.177 58.0045 237.087 57.7509 237.521 57.191C237.954 56.631 238.329 56.1132 238.646 55.6378C238.963 55.1623 240.183 53.3239 242.307 50.1225C243.406 49.5413 244.024 49.5202 244.161 50.0591C243.485 52.4364 243.015 54.0688 242.751 54.9563C242.487 55.8333 242.254 56.8845 242.053 58.1102L242.148 58.7124L242.418 58.8234C243.179 58.7283 244.42 57.5502 246.142 55.2891L248.25 50.376L249.36 49.0923Z" fill="black"/>
<path d="M260.897 57.4921L261.04 58.6807C261.505 59.5154 262.324 59.5471 263.497 58.7758C264.31 58.1524 265.361 56.9162 266.65 55.0672L266.809 55.0514C266.936 55.062 266.989 55.1676 266.967 55.3684C266.122 57.5343 264.743 59.2301 262.831 60.4558L261.547 60.8837C260.195 60.9471 259.397 60.0331 259.154 58.1419L259.107 58.1102L259.233 55.511C259.381 54.8242 259.656 53.6039 260.057 51.85L261.325 54.2273C260.998 55.474 260.855 56.5623 260.897 57.4921ZM260.85 53.8786C259.751 55.3367 259.191 56.1608 259.17 56.351C257.67 58.2739 256.571 59.3675 255.873 59.6316C255.546 59.4732 255.72 59.0769 256.396 58.443L258.045 56.1925C258.657 55.062 259.392 53.8416 260.248 52.5315L260.85 53.8786ZM268.124 37.5703C267.649 37.042 266.936 37.47 265.985 38.8541C265.044 40.2382 264.168 42.3302 263.354 45.1301C262.551 47.9301 262.102 49.6681 262.007 50.3443C261.922 51.0205 262.149 51.0417 262.688 50.4077C263.238 49.7632 264.046 48.6433 265.113 47.0478C266.18 45.4418 267.068 43.5928 267.776 41.5008C268.494 39.4088 268.61 38.0986 268.124 37.5703ZM259.645 53.4665C259.772 52.8537 259.936 52.093 260.137 51.1843C260.654 49.05 261.151 47.1165 261.626 45.3837C262.102 43.6509 262.778 41.8442 263.655 39.9635C264.532 38.0828 265.457 36.8307 266.429 36.2074C267.401 35.5734 268.188 35.4572 268.79 35.8587C269.392 36.2496 269.678 36.8783 269.646 37.7447C269.614 38.6111 269.477 39.5197 269.234 40.4706C269.001 41.411 268.679 42.3196 268.267 43.1966C267.855 44.0736 267.385 44.9981 266.857 45.9701C266.339 46.9422 265.884 47.7346 265.493 48.3474C265.134 48.9074 263.919 50.5504 261.848 53.2763C261.743 53.4243 261.632 53.5775 261.516 53.736C261.42 54.0635 261.331 54.3752 261.246 54.671L259.408 53.9103C259.482 53.7624 259.561 53.6144 259.645 53.4665Z" fill="black"/>
<path d="M267.712 55.0672L266.508 56.5729C265.493 57.7668 264.918 58.1313 264.78 57.6664C265.721 56.4725 266.518 55.3525 267.173 54.3065L267.855 53.6726C268.447 53.5035 268.399 53.9684 267.712 55.0672ZM266.872 54.8137C267.855 53.3133 268.954 51.6598 270.169 49.853L270.549 49.647C270.961 49.6576 271.151 49.9798 271.12 50.6138C270.264 52.2303 269.63 54.3118 269.218 56.8581L268.98 58.2053L268.949 58.8709C268.97 59.1139 269.133 59.2566 269.44 59.2988C269.905 59.2566 270.739 58.5909 271.944 57.3019L273.212 55.7963L273.323 56.24C272.33 58.2687 271.13 59.732 269.725 60.6301C269.155 60.8731 268.61 60.9207 268.093 60.7727C267.29 60.4875 266.999 59.7532 267.221 58.5698C267.263 57.9358 267.554 56.5464 268.093 54.4016L266.777 54.8137H266.872ZM272.514 44.94L273.275 45.4154C273.328 46.0282 272.551 46.6833 270.945 47.3806C270.713 47.2856 270.528 47.2433 270.391 47.2539L270.359 46.715C270.433 46.398 271.151 45.8063 272.514 44.94ZM267.601 63.3244H267.966C268.135 63.3244 268.309 63.504 268.489 63.8632V64.2119C268.404 65.3953 268.05 65.9869 267.427 65.9869C267.11 65.9869 266.814 65.6911 266.54 65.0994C266.962 63.9161 267.316 63.3244 267.601 63.3244Z" fill="black"/>
<path d="M277.966 50.7881C275.991 52.1617 274.902 54.3276 274.702 57.286C274.702 58.6702 275.246 59.2618 276.334 59.0611C277.602 58.7547 279.314 57.2491 281.469 54.5442L281.802 54.8295C279.773 58.0838 278.03 60.0014 276.572 60.5826C275.948 60.8995 275.225 60.9576 274.4 60.7569C273.671 60.5139 273.191 60.0279 272.958 59.2988C272.726 58.5698 272.668 57.8619 272.784 57.1751C272.974 55.8121 273.487 54.4333 274.321 53.0386C275.156 51.6334 276.043 50.6402 276.984 50.0591C277.924 49.4674 278.743 49.2825 279.44 49.5044C280.138 49.7157 280.507 50.1964 280.55 50.9466C280.592 51.6862 280.344 52.13 279.805 52.2779C279.277 52.4258 278.986 52.13 278.933 51.3904C278.88 50.6402 278.558 50.4394 277.966 50.7881Z" fill="black"/>
<path d="M289.552 41.5008C290.27 39.4088 290.386 38.0986 289.9 37.5703C289.425 37.042 288.712 37.47 287.761 38.8541C286.82 40.2382 285.944 42.3302 285.13 45.1301C284.327 47.9301 283.878 49.6681 283.783 50.3443C283.698 51.0205 283.925 51.0417 284.464 50.4077C285.014 49.7632 285.822 48.6433 286.889 47.0478C287.956 45.4418 288.844 43.5928 289.552 41.5008ZM287.19 54.5601C287.94 52.3624 287.919 51.4379 287.127 51.7866C286.609 51.9767 285.875 52.7481 284.924 54.1005C283.984 55.4423 283.149 57.0219 282.42 58.8392L281.818 60.1705C280.677 61.2376 280.117 61.0527 280.138 59.6158L280.439 58.1102L280.772 56.5729C279.356 58.3585 278.315 59.3781 277.649 59.6316C277.322 59.4732 277.496 59.0769 278.172 58.443L279.821 56.1925C280.286 55.4846 280.819 54.5759 281.421 53.4665C281.548 52.8537 281.712 52.093 281.913 51.1843C282.43 49.05 282.927 47.1165 283.402 45.3837C283.878 43.6509 284.554 41.8442 285.431 39.9635C286.308 38.0828 287.233 36.8307 288.205 36.2074C289.177 35.5734 289.964 35.4572 290.566 35.8587C291.168 36.2496 291.454 36.8783 291.422 37.7447C291.39 38.6111 291.253 39.5197 291.01 40.4706C290.777 41.411 290.455 42.3196 290.043 43.1966C289.631 44.0736 289.161 44.9981 288.633 45.9701C288.115 46.9422 287.66 47.7346 287.27 48.3474C286.91 48.9074 285.695 50.5504 283.624 53.2763C283.519 53.4243 283.408 53.5775 283.292 53.736C283.027 54.634 282.821 55.4053 282.673 56.0499L284.021 54.0688C286.176 50.9519 287.777 49.4515 288.823 49.5678C289.541 49.7474 289.832 50.3866 289.694 51.4854L289.409 52.4522C289.113 53.5827 288.691 55.1676 288.141 57.2068C287.877 58.0943 287.872 58.612 288.125 58.76C288.39 58.9079 288.654 58.892 288.918 58.7124C289.182 58.5328 289.562 58.1736 290.059 57.6347C290.566 57.0959 291.105 56.388 291.675 55.511C292.077 54.9616 292.368 54.8559 292.547 55.194C291.522 57.1381 290.592 58.5434 289.758 59.4098C288.923 60.2656 288.199 60.6988 287.587 60.7094C286.984 60.7199 286.577 60.5561 286.366 60.218C286.165 59.8799 286.081 59.4784 286.113 59.0135C286.155 58.5381 286.292 57.883 286.525 57.0483C286.757 56.2031 286.979 55.3736 287.19 54.5601Z" fill="black"/>
<path d="M46.7664 84.6023C47.4215 84.4227 47.7332 84.5495 47.7015 84.9827C46.814 86.1872 46.3544 87.1751 46.3227 87.9464C46.2381 88.4747 46.4019 89.2407 46.814 90.2444C47.6275 91.6285 47.8494 93.0391 47.4796 94.476C47.1204 95.913 46.1483 96.9378 44.5635 97.5507C43.2956 97.7725 42.3499 97.6933 41.7266 97.3129C41.1032 96.922 40.7968 96.4624 40.8073 95.9341C40.8073 95.3952 40.9605 94.9937 41.2669 94.7296C41.5734 94.4549 41.9432 94.4073 42.3764 94.587C42.8095 94.756 42.9099 95.2949 42.6775 96.2035C42.8043 96.6367 43.1212 96.8058 43.6284 96.7107C44.1355 96.6156 44.5952 96.2986 45.0072 95.7598C45.4193 95.2209 45.6782 94.4707 45.7838 93.5092C45.9 92.5478 45.7574 91.7025 45.3559 90.9735C44.9544 90.2339 44.5423 89.9539 44.1197 90.1335C43.7076 90.3131 42.556 91.4701 40.6647 93.6043C38.7629 95.7386 37.5425 96.848 37.0037 96.9326C36.5916 97.1016 36.449 96.922 36.5757 96.3937C38.1817 95.2737 39.9304 93.4247 41.8216 90.8467C42.3288 90.2444 43.1318 89.098 44.2306 87.4075C44.9174 86.0762 45.7627 85.1412 46.7664 84.6023ZM44.1197 97.5031C44.7008 96.8797 45.4246 96.3567 46.291 95.9341C47.1574 95.5115 48.309 94.4549 49.746 92.7644L49.9678 93.1923C48.5098 95.9394 46.5604 97.3763 44.1197 97.5031Z" fill="black"/>
<path d="M50.8712 92.1621L49.6667 93.6677C48.6524 94.8617 48.0766 95.2262 47.9392 94.7613C48.8796 93.5674 49.6773 92.4474 50.3324 91.4014L51.0139 90.7674C51.6055 90.5984 51.558 91.0633 50.8712 92.1621ZM50.0312 91.9085C51.0139 90.4082 52.1127 88.7547 53.3278 86.9479L53.7081 86.7419C54.1202 86.7524 54.3104 87.0747 54.2787 87.7086C53.4229 89.3252 52.7889 91.4067 52.3768 93.953L52.1391 95.3001L52.1074 95.9658C52.1285 96.2088 52.2923 96.3514 52.5987 96.3937C53.0636 96.3514 53.8983 95.6858 55.1028 94.3968L56.3707 92.8912L56.4816 93.3349C55.4885 95.3635 54.2892 96.8269 52.884 97.725C52.3134 97.968 51.7693 98.0155 51.2516 97.8676C50.4486 97.5823 50.158 96.848 50.3799 95.6647C50.4222 95.0307 50.7127 93.6413 51.2516 91.4965L49.9361 91.9085H50.0312ZM55.6734 82.0348L56.4341 82.5103C56.4869 83.1231 55.7103 83.7782 54.1043 84.4755C53.8719 84.3804 53.687 84.3382 53.5496 84.3487L53.5179 83.8099C53.5919 83.4929 54.3104 82.9012 55.6734 82.0348Z" fill="black"/>
<path d="M58.7163 97.8518L58.542 97.1227L59.588 92.6059L59.9525 91.2904C60.3117 90.012 60.0846 89.5893 59.271 90.0225C57.2001 93.224 55.7843 94.7877 55.0236 94.7137C55.8794 93.3719 57.496 91.058 59.8732 87.772C60.6445 87.3071 61.1834 87.0747 61.4898 87.0747C61.923 87.3705 62.1555 87.883 62.1871 88.612L62.1238 89.9116L61.997 90.9101L61.7117 92.1463L60.0159 97.4714C59.7623 97.9891 59.3291 98.1159 58.7163 97.8518ZM65.4203 97.7408C64.649 97.6986 64.2369 97.2759 64.1841 96.4729L64.2792 95.2843C64.7335 93.6783 65.0874 92.3576 65.341 91.3221C66.0489 89.3463 66.0067 88.5328 65.2142 88.8814L64.3901 89.4678C63.3547 90.3765 62.0604 92.2466 60.5072 95.0783L59.8257 94.5236L62.1079 91.1637C64.2633 88.0467 65.864 86.5464 66.91 86.6626C67.7342 86.8423 68.0776 87.4815 67.9402 88.5803L67.6549 89.5471C67.3591 90.6776 66.9365 92.2625 66.387 94.3017C66.0172 95.5379 66.0648 96.0926 66.5297 95.9658L66.3712 97.4397L65.4203 97.7408ZM69.4934 92.7961C69.6624 92.7961 69.8737 92.6904 70.1273 92.4791H70.4284C69.5515 94.476 68.2836 96.0873 66.6248 97.3129C66.3818 97.4291 66.1546 97.5242 65.9433 97.5982L66.4504 95.9499C67.5176 95.3583 68.5319 94.307 69.4934 92.7961Z" fill="black"/>
<path d="M78.4479 78.5957C79.1663 76.5037 79.2825 75.1935 78.7965 74.6652C78.3211 74.1369 77.6079 74.5648 76.657 75.949C75.7166 77.3331 74.8396 79.4251 74.0261 82.225C73.2231 85.0249 72.774 86.763 72.6789 87.4392C72.5944 88.1154 72.8216 88.1366 73.3604 87.5026C73.9099 86.8581 74.7181 85.7381 75.7853 84.1427C76.8524 82.5367 77.7399 80.6877 78.4479 78.5957ZM76.0864 91.655C76.8366 89.4573 76.8154 88.5328 76.023 88.8814C75.5053 89.0716 74.771 89.8429 73.8201 91.1953C72.8797 92.5372 72.045 94.1168 71.316 95.9341L70.7137 97.2654C69.5726 98.3325 69.0126 98.1476 69.0338 96.7107L69.3349 95.205L69.6677 93.6677C68.2519 95.4533 67.2112 96.4729 66.5455 96.7265C66.218 96.568 66.3923 96.1718 67.0685 95.5379L68.7168 93.2874C69.1817 92.5795 69.7153 91.6708 70.3175 90.5614C70.4443 89.9486 70.6081 89.1879 70.8088 88.2792C71.3265 86.1449 71.8231 84.2114 72.2986 82.4786C72.774 80.7458 73.4502 78.9391 74.3272 77.0584C75.2042 75.1777 76.1287 73.9256 77.1007 73.3022C78.0728 72.6683 78.8599 72.5521 79.4622 72.9536C80.0644 73.3445 80.3497 73.9732 80.318 74.8395C80.2863 75.7059 80.1489 76.6146 79.9059 77.5655C79.6735 78.5059 79.3512 79.4145 78.9392 80.2915C78.5271 81.1684 78.0569 82.0929 77.5286 83.065C77.0109 84.037 76.5566 84.8295 76.1656 85.4423C75.8064 86.0023 74.5914 87.6452 72.5205 90.3712C72.4148 90.5191 72.3039 90.6723 72.1876 90.8308C71.9235 91.7289 71.7175 92.5002 71.5695 93.1447L72.9167 91.1637C75.0721 88.0467 76.6728 86.5464 77.7188 86.6626C78.4373 86.8423 78.7278 87.4815 78.5905 88.5803L78.3052 89.5471C78.0094 90.6776 77.5867 92.2625 77.0373 94.3017C76.7732 95.1892 76.7679 95.7069 77.0215 95.8548C77.2856 96.0028 77.5498 95.9869 77.8139 95.8073C78.078 95.6277 78.4584 95.2684 78.955 94.7296C79.4622 94.1907 80.001 93.4828 80.5716 92.6059C80.9731 92.0565 81.2636 91.9508 81.4432 92.2889C80.4184 94.233 79.4886 95.6382 78.6539 96.5046C77.8192 97.3605 77.0954 97.7937 76.4826 97.8042C75.8804 97.8148 75.4736 97.651 75.2623 97.3129C75.0615 96.9748 74.977 96.5733 75.0087 96.1084C75.051 95.633 75.1883 94.9779 75.4208 94.1432C75.6532 93.2979 75.8751 92.4685 76.0864 91.655Z" fill="black"/>
<path d="M89.637 88.6596L89.2725 88.3584H88.3849L87.5291 88.2475C86.7367 88.0256 86.6839 87.6822 87.3706 87.2173C88.5012 87.2173 89.283 87.1539 89.7162 87.0272C90.16 86.8898 90.5773 86.0604 90.9683 84.5389C91.5494 82.1827 92.0249 80.5028 92.3947 79.499L92.9494 78.5481C93.4143 78.2523 93.7207 78.321 93.8686 78.7542C94.0165 79.1874 93.8739 79.9058 93.4407 80.9096L92.5214 83.8257C92.2256 84.7872 92.1199 85.5532 92.2045 86.1238C92.5109 86.3879 92.849 86.6098 93.2188 86.7894C95.5855 86.9268 96.7636 86.9162 96.753 86.7577L97.1809 86.8687L97.1968 87.0113C97.1651 87.2966 96.4149 87.5449 94.9463 87.7562L93.7735 88.0732L92.7592 88.2158C92.0196 88.332 91.449 89.2037 91.0475 90.8308C90.477 92.8595 90.2234 94.3175 90.2868 95.205C90.3502 96.0926 90.8626 96.2088 91.8241 95.5537C92.5003 95.205 93.6731 93.99 95.3425 91.9085H95.4851L95.5644 92.5108C93.9795 94.8353 92.8014 96.2986 92.0301 96.9009C91.4596 97.4925 90.7887 97.8042 90.0174 97.8359C88.7495 97.7831 88.2476 96.8269 88.5117 94.9673C88.6174 94.0375 88.8868 92.7327 89.32 91.0527C88.5065 92.5319 87.7193 93.7047 86.9586 94.5711C86.1978 95.4269 85.7435 95.7967 85.5956 95.6805C85.4371 95.5643 85.4054 95.4375 85.5005 95.3001C85.5956 95.1522 85.7752 94.9039 86.0394 94.5553C86.3035 94.2066 86.7314 93.5991 87.3231 92.7327C87.9042 91.8663 88.6755 90.5086 89.637 88.6596Z" fill="black"/>
<path d="M103.425 78.5957C104.144 76.5037 104.26 75.1935 103.774 74.6652C103.299 74.1369 102.585 74.5648 101.634 75.949C100.694 77.3331 99.8171 79.4251 99.0035 82.225C98.2005 85.0249 97.7515 86.763 97.6564 87.4392C97.5719 88.1154 97.799 88.1366 98.3379 87.5026C98.8873 86.8581 99.6956 85.7381 100.763 84.1427C101.83 82.5367 102.717 80.6877 103.425 78.5957ZM101.064 91.655C101.814 89.4573 101.793 88.5328 101 88.8814C100.483 89.0716 99.7484 89.8429 98.7975 91.1953C97.8572 92.5372 97.0225 94.1168 96.2934 95.9341L95.6912 97.2654C94.5501 98.3325 93.9901 98.1476 94.0112 96.7107L94.3123 95.205L94.6452 93.6677C93.2294 95.4533 92.1886 96.4729 91.523 96.7265C91.1954 96.568 91.3698 96.1718 92.046 95.5379L93.6942 93.2874C94.1591 92.5795 94.6927 91.6708 95.295 90.5614C95.4217 89.9486 95.5855 89.1879 95.7863 88.2792C96.304 86.1449 96.8006 84.2114 97.276 82.4786C97.7515 80.7458 98.4277 78.9391 99.3047 77.0584C100.182 75.1777 101.106 73.9256 102.078 73.3022C103.05 72.6683 103.837 72.5521 104.44 72.9536C105.042 73.3445 105.327 73.9732 105.295 74.8395C105.264 75.7059 105.126 76.6146 104.883 77.5655C104.651 78.5059 104.329 79.4145 103.917 80.2915C103.505 81.1684 103.034 82.0929 102.506 83.065C101.988 84.037 101.534 84.8295 101.143 85.4423C100.784 86.0023 99.5688 87.6452 97.4979 90.3712C97.3923 90.5191 97.2813 90.6723 97.1651 90.8308C96.901 91.7289 96.6949 92.5002 96.547 93.1447L97.8941 91.1637C100.05 88.0467 101.65 86.5464 102.696 86.6626C103.415 86.8423 103.705 87.4815 103.568 88.5803L103.283 89.5471C102.987 90.6776 102.564 92.2625 102.015 94.3017C101.751 95.1892 101.745 95.7069 101.999 95.8548C102.263 96.0028 102.527 95.9869 102.791 95.8073C103.056 95.6277 103.436 95.2684 103.932 94.7296C104.44 94.1907 104.978 93.4828 105.549 92.6059C105.951 92.0565 106.241 91.9508 106.421 92.2889C105.396 94.233 104.466 95.6382 103.631 96.5046C102.797 97.3605 102.073 97.7937 101.46 97.8042C100.858 97.8148 100.451 97.651 100.24 97.3129C100.039 96.9748 99.9545 96.5733 99.9862 96.1084C100.028 95.633 100.166 94.9779 100.398 94.1432C100.631 93.2979 100.853 92.4685 101.064 91.655Z" fill="black"/>
<path d="M116.532 77.9776C116.638 78.8334 116.073 79.927 114.836 81.2582C114.435 81.8711 114.017 82.3518 113.584 82.7005L113.664 82.748C113.336 82.9805 113.008 83.2446 112.681 83.5405C112.353 83.8363 112.079 84.0318 111.857 84.1269C111.635 84.2219 111.492 84.148 111.429 83.905L113.521 81.0047C114.239 79.8741 114.736 78.8968 115.011 78.0727C115.285 77.2485 115.719 76.9897 116.31 77.2961L116.532 77.9776ZM113.283 86.6309L114.424 86.5675L114.773 87.2807C114.815 87.7879 114.514 88.7705 113.87 90.2286C113.415 91.6761 113.109 92.6376 112.95 93.113L112.728 94.587C112.538 95.6752 112.691 96.1718 113.188 96.0767L113.79 95.7439C114.213 95.4058 115.143 94.4549 116.58 92.8912C116.812 92.9017 116.96 93.076 117.023 93.4142C115.238 96.1929 113.822 97.5612 112.776 97.519C111.498 97.7937 110.895 97.1016 110.969 95.4428L111.508 92.6851C109.87 94.756 108.407 96.1982 107.118 97.0118C106.558 97.4239 105.813 97.5876 104.883 97.5031L104.44 97.0435L104.297 96.4888C104.234 95.6752 104.318 94.8617 104.551 94.0481C104.804 93.3402 105.185 92.5319 105.692 91.6233C106.706 89.9961 108.027 88.6807 109.654 87.6769C111.292 86.6626 112.501 86.314 113.283 86.6309ZM107.324 95.11C108.433 94.3175 109.295 93.5357 109.907 92.7644C110.636 92.0353 111.313 90.8731 111.936 89.2777C111.429 88.4852 110.689 88.3954 109.717 89.0082C109.157 89.3146 108.513 89.9803 107.784 91.0052C106.97 92.104 106.431 93.1025 106.167 94.0006C105.903 95.3952 106.289 95.765 107.324 95.11Z" fill="black"/>
<path d="M117.974 92.1621L116.77 93.6677C115.756 94.8617 115.18 95.2262 115.042 94.7613C115.983 93.5674 116.78 92.4474 117.436 91.4014L118.117 90.7674C118.709 90.5984 118.661 91.0633 117.974 92.1621ZM117.134 91.9085C118.117 90.4082 119.216 88.7547 120.431 86.9479L120.811 86.7419C121.223 86.7524 121.414 87.0747 121.382 87.7086C120.526 89.3252 119.892 91.4067 119.48 93.953L119.242 95.3001L119.211 95.9658C119.232 96.2088 119.395 96.3514 119.702 96.3937C120.167 96.3514 121.001 95.6858 122.206 94.3968L123.474 92.8912L123.585 93.3349C122.592 95.3635 121.392 96.8269 119.987 97.725C119.417 97.968 118.872 98.0155 118.355 97.8676C117.552 97.5823 117.261 96.848 117.483 95.6647C117.525 95.0307 117.816 93.6413 118.355 91.4965L117.039 91.9085H117.134ZM122.776 82.0348L123.537 82.5103C123.59 83.1231 122.813 83.7782 121.207 84.4755C120.975 84.3804 120.79 84.3382 120.653 84.3487L120.621 83.8099C120.695 83.4929 121.414 82.9012 122.776 82.0348Z" fill="black"/>
<path d="M148.198 74.4592H148.356C148.589 75.0614 148.494 75.7852 148.071 76.6304C147.648 77.4757 147.088 79.3828 146.391 82.3518C145.704 85.3102 145.123 87.8301 144.648 89.9116C144.183 91.9931 143.908 93.3825 143.823 94.0798C143.739 94.7771 143.813 95.2579 144.045 95.522C144.288 95.7756 144.901 95.6171 145.884 95.0466C146.729 94.2753 147.569 93.3825 148.404 92.3681H148.737V92.8278L146.993 95.3001C145.863 96.7688 144.88 97.5348 144.045 97.5982C143.126 97.8306 142.402 97.3393 141.874 96.1243L142.413 92.3998C141.335 93.8579 140.353 95.0571 139.465 95.9975C138.578 96.9273 137.51 97.6352 136.264 98.1212C135.598 98.3536 134.98 98.3325 134.409 98.0578C133.458 97.6669 133.073 96.4518 133.252 94.4126C134.003 90.1652 134.684 86.8581 135.297 84.4914C135.91 82.1141 136.311 80.1594 136.501 78.6274C136.702 77.0848 136.332 76.4403 135.392 76.6938C134.378 76.9263 132.994 78.2998 131.24 80.8145C130.806 80.9413 130.6 80.7828 130.622 80.339C132.492 77.4863 134.103 75.7957 135.455 75.2675C136.818 74.7392 137.701 74.8712 138.102 75.6637C138.514 76.4561 138.34 78.5693 137.579 82.0031C136.829 85.4264 136.174 88.5592 135.614 91.4014C134.906 94.6028 135.017 96.2563 135.947 96.362C136.887 96.4571 137.944 95.9763 139.116 94.9198C140.289 93.8632 141.504 92.2361 142.762 90.0384C143.248 88.4535 144.162 85.0408 145.503 79.8002C146.19 76.6199 147.088 74.8395 148.198 74.4592Z" fill="black"/>
<path d="M150.147 88.6596L149.783 88.3584H148.895L148.039 88.2475C147.247 88.0256 147.194 87.6822 147.881 87.2173C149.011 87.2173 149.793 87.1539 150.226 87.0272C150.67 86.8898 151.087 86.0604 151.478 84.5389C152.06 82.1827 152.535 80.5028 152.905 79.499L153.459 78.5481C153.924 78.2523 154.231 78.321 154.379 78.7542C154.527 79.1874 154.384 79.9058 153.951 80.9096L153.032 83.8257C152.736 84.7872 152.63 85.5532 152.715 86.1238C153.021 86.3879 153.359 86.6098 153.729 86.7894C156.096 86.9268 157.274 86.9162 157.263 86.7577L157.691 86.8687L157.707 87.0113C157.675 87.2966 156.925 87.5449 155.456 87.7562L154.284 88.0732L153.269 88.2158C152.53 88.332 151.959 89.2037 151.558 90.8308C150.987 92.8595 150.734 94.3175 150.797 95.205C150.86 96.0926 151.373 96.2088 152.334 95.5537C153.01 95.205 154.183 93.99 155.853 91.9085H155.995L156.074 92.5108C154.49 94.8353 153.312 96.2986 152.54 96.9009C151.97 97.4925 151.299 97.8042 150.527 97.8359C149.26 97.7831 148.758 96.8269 149.022 94.9673C149.128 94.0375 149.397 92.7327 149.83 91.0527C149.017 92.5319 148.229 93.7047 147.469 94.5711C146.708 95.4269 146.254 95.7967 146.106 95.6805C145.947 95.5643 145.916 95.4375 146.011 95.3001C146.106 95.1522 146.285 94.9039 146.549 94.5553C146.814 94.2066 147.242 93.5991 147.833 92.7327C148.414 91.8663 149.186 90.5086 150.147 88.6596Z" fill="black"/>
<path d="M159.72 96.0133C158.779 97.0699 157.865 97.6352 156.978 97.7091C155.784 97.6352 155.018 97.0012 154.68 95.8073C154.342 94.6028 154.505 93.0813 155.171 91.2429C155.837 89.4044 156.936 88.0256 158.468 87.1064C158.732 86.6838 159.128 86.3562 159.656 86.1238C160.195 85.8913 160.755 85.8438 161.336 85.9811C161.928 86.1185 162.356 86.5992 162.62 87.4234C162.895 88.2475 162.805 89.5312 162.351 91.2746C161.907 93.0074 161.03 94.587 159.72 96.0133ZM156.296 93.2557C156.022 95.0201 156.265 96.0028 157.025 96.2035C157.797 96.4043 158.573 95.9552 159.355 94.8564C160.137 93.7575 160.618 92.5689 160.797 91.2904C160.988 90.0014 160.977 89.0611 160.766 88.4694C160.565 87.8777 160.185 87.5713 159.625 87.5502C159.075 87.5185 158.452 88.0203 157.754 89.0558C157.057 90.0912 156.571 91.4912 156.296 93.2557ZM157.358 97.6774C156.925 97.7091 156.508 97.6457 156.106 97.4873C157.68 96.8639 158.97 96.2722 159.973 95.7122C160.988 95.1417 162.213 94.0111 163.65 92.3206L163.872 92.7485C161.886 95.8548 159.714 97.4978 157.358 97.6774Z" fill="black"/>
<path d="M168.325 85.9494C169.752 85.886 170.687 86.4619 171.131 87.6769C171.532 88.649 171.574 89.6422 171.257 90.6565C170.698 92.6957 169.255 94.5077 166.931 96.0926C166.677 96.3462 165.647 96.9959 163.84 98.042C163.027 101.666 162.525 104.577 162.335 106.775C162.145 108.983 162.06 110.584 162.081 111.577C162.102 112.58 162.187 113.616 162.335 114.683L162.113 115C161.278 114.958 160.766 114.456 160.576 113.494C160.375 112.543 160.311 111.577 160.385 110.594C160.459 109.611 160.618 108.101 160.861 106.061C161.347 102.733 161.658 100.662 161.796 99.8487C161.933 99.0457 162.139 97.8888 162.414 96.3779C163.323 92.141 163.967 89.3305 164.347 87.9464C165.795 86.6573 167.121 85.9917 168.325 85.9494ZM164.237 96.0926L165.235 95.839C166.704 95.5009 168.067 93.8949 169.324 91.021L169.403 89.6897C169.372 88.4324 168.97 87.7456 168.199 87.6294L167.533 87.6452C166.086 87.8143 164.987 90.6301 164.237 96.0926ZM164.443 97.3288C165.372 96.7688 166.228 96.4043 167.01 96.2352C167.802 96.0662 168.6 95.7386 169.403 95.2526C170.217 94.756 171.073 94.0904 171.971 93.2557L172.193 93.6836C170.153 96.4835 167.57 97.6986 164.443 97.3288Z" fill="black"/>
<path d="M173.445 92.1621L172.24 93.6677C171.226 94.8617 170.65 95.2262 170.513 94.7613C171.453 93.5674 172.251 92.4474 172.906 91.4014L173.587 90.7674C174.179 90.5984 174.131 91.0633 173.445 92.1621ZM172.605 91.9085C173.587 90.4082 174.686 88.7547 175.901 86.9479L176.282 86.7419C176.694 86.7524 176.884 87.0747 176.852 87.7086C175.996 89.3252 175.362 91.4067 174.95 93.953L174.712 95.3001L174.681 95.9658C174.702 96.2088 174.866 96.3514 175.172 96.3937C175.637 96.3514 176.472 95.6858 177.676 94.3968L178.944 92.8912L179.055 93.3349C178.062 95.3635 176.863 96.8269 175.457 97.725C174.887 97.968 174.343 98.0155 173.825 97.8676C173.022 97.5823 172.731 96.848 172.953 95.6647C172.996 95.0307 173.286 93.6413 173.825 91.4965L172.51 91.9085H172.605ZM178.247 82.0348L179.007 82.5103C179.06 83.1231 178.284 83.7782 176.678 84.4755C176.445 84.3804 176.26 84.3382 176.123 84.3487L176.091 83.8099C176.165 83.4929 176.884 82.9012 178.247 82.0348Z" fill="black"/>
<path d="M186.757 86.6309L187.899 86.5675L188.247 87.2807C188.289 87.7879 187.988 88.7705 187.344 90.2286C186.89 91.6761 186.583 92.6376 186.425 93.113L186.203 94.587C186.013 95.6752 186.166 96.1718 186.662 96.0767L187.265 95.7439C187.687 95.4058 188.617 94.4549 190.054 92.8912C190.286 92.9017 190.434 93.076 190.498 93.4142C188.712 96.1929 187.296 97.5612 186.25 97.519C184.972 97.7937 184.37 97.1016 184.444 95.4428L184.982 92.6851C183.345 94.756 181.881 96.1982 180.592 97.0118C180.032 97.4239 179.287 97.5876 178.358 97.5031L177.914 97.0435L177.771 96.4888C177.708 95.6752 177.792 94.8617 178.025 94.0481C178.278 93.3402 178.659 92.5319 179.166 91.6233C180.18 89.9961 181.501 88.6807 183.128 87.6769C184.766 86.6626 185.976 86.314 186.757 86.6309ZM180.798 95.11C181.908 94.3175 182.769 93.5357 183.382 92.7644C184.111 92.0353 184.787 90.8731 185.41 89.2777C184.903 88.4852 184.164 88.3954 183.192 89.0082C182.632 89.3146 181.987 89.9803 181.258 91.0052C180.444 92.104 179.906 93.1025 179.641 94.0006C179.377 95.3952 179.763 95.765 180.798 95.11Z" fill="black"/>
<path d="M210.958 75.0614C211.296 74.829 212.062 74.7022 213.256 74.6811C214.461 74.6599 215.333 75.1988 215.871 76.2976L216.109 77.1059C216.352 78.976 214.651 80.9783 211.006 83.1125L208.296 84.2378C208.518 84.7344 208.893 85.0249 209.421 85.1095C209.96 85.1834 210.61 85.0091 211.37 84.5865C212.142 84.1638 212.469 84.0899 212.353 84.3646C212.247 84.6287 212.062 84.8823 211.798 85.1253C211.534 85.3578 211.011 85.6642 210.229 86.0445C209.447 86.4143 207.63 87.1434 204.777 88.2317C202.136 89.6158 200.546 90.9259 200.007 92.1621C199.468 93.3983 199.542 94.4602 200.229 95.3477C200.926 96.2246 201.983 96.7054 203.399 96.7899L205.142 96.6631C207.773 96.082 209.537 94.8353 210.435 92.9228C210.953 91.2112 210.525 90.3818 209.152 90.4346C207.577 91.0052 206.14 91.8399 204.841 92.9387C204.408 92.9281 204.186 92.8383 204.175 92.6693L204.159 92.3523C206.875 89.732 208.972 88.5169 210.451 88.7071L210.768 88.6913C211.74 88.6173 212.332 89.2195 212.543 90.498V90.6565C212.575 93.3402 210.832 95.5643 207.313 97.3288C207.778 97.6352 206.584 97.9469 203.731 98.2638C200.308 98.211 198.242 97.1069 197.535 94.9515C196.89 90.9999 200.324 88.0151 207.836 85.997C207.371 85.7857 206.975 85.3683 206.648 84.7449L205.142 85.0144C203.737 85.2468 202.495 85.2627 201.417 85.0619C199.917 84.7766 199.014 83.8891 198.707 82.3993C198.559 79.8636 200.139 77.6553 203.446 75.7746C204.894 75.0984 205.992 74.6969 206.743 74.5701C207.503 74.4328 208.264 74.3852 209.025 74.4275C209.786 74.4697 210.43 74.6811 210.958 75.0614ZM200.752 82.0665C201.312 83.1759 202.617 83.662 204.666 83.5246C205.903 83.102 206.515 82.3835 206.505 81.3692C206.896 79.6575 207.567 78.2047 208.518 77.0108L209.738 75.7588C208.481 75.4312 206.991 75.632 205.269 76.361C202.057 77.724 200.551 79.6258 200.752 82.0665ZM208.423 80.2122L207.963 81.6069C207.868 82.7163 208.528 82.9488 209.944 82.3043C211.275 81.776 212.337 81.1684 213.13 80.4817C213.933 79.7949 214.424 79.1715 214.604 78.6115C214.794 78.0515 214.762 77.5127 214.508 76.995C214.255 76.4772 213.721 76.2131 212.908 76.2025C210.942 76.435 209.447 77.7715 208.423 80.2122ZM205.728 97.1386C208.106 96.3884 209.743 95.8654 210.641 95.5696C211.55 95.2632 212.696 94.2436 214.081 92.5108L214.318 92.9387C212.596 96.8903 209.733 98.2903 205.728 97.1386Z" fill="black"/>
<path d="M218.566 87.883C216.59 89.2565 215.502 91.4225 215.301 94.3809C215.301 95.765 215.845 96.3567 216.933 96.156C218.201 95.8496 219.913 94.3439 222.068 91.6391L222.401 91.9244C220.372 95.1786 218.629 97.0963 217.171 97.6774C216.548 97.9944 215.824 98.0525 215 97.8518C214.271 97.6088 213.79 97.1227 213.558 96.3937C213.325 95.6647 213.267 94.9568 213.383 94.27C213.573 92.907 214.086 91.5282 214.921 90.1335C215.755 88.7282 216.643 87.7351 217.583 87.1539C218.523 86.5623 219.342 86.3774 220.04 86.5992C220.737 86.8106 221.107 87.2913 221.149 88.0415C221.191 88.7811 220.943 89.2248 220.404 89.3727C219.876 89.5207 219.585 89.2248 219.532 88.4852C219.48 87.7351 219.157 87.5343 218.566 87.883Z" fill="black"/>
<path d="M225.935 96.0133C224.995 97.0699 224.081 97.6352 223.193 97.7091C222 97.6352 221.234 97.0012 220.895 95.8073C220.557 94.6028 220.721 93.0813 221.387 91.2429C222.052 89.4044 223.151 88.0256 224.683 87.1064C224.947 86.6838 225.344 86.3562 225.872 86.1238C226.411 85.8913 226.971 85.8438 227.552 85.9811C228.144 86.1185 228.571 86.5992 228.836 87.4234C229.11 88.2475 229.021 89.5312 228.566 91.2746C228.122 93.0074 227.245 94.587 225.935 96.0133ZM222.512 93.2557C222.237 95.0201 222.48 96.0028 223.241 96.2035C224.012 96.4043 224.789 95.9552 225.571 94.8564C226.353 93.7575 226.833 92.5689 227.013 91.2904C227.203 90.0014 227.193 89.0611 226.981 88.4694C226.781 87.8777 226.4 87.5713 225.84 87.5502C225.291 87.5185 224.667 88.0203 223.97 89.0558C223.273 90.0912 222.787 91.4912 222.512 93.2557ZM223.574 97.6774C223.141 97.7091 222.723 97.6457 222.322 97.4873C223.896 96.8639 225.185 96.2722 226.189 95.7122C227.203 95.1417 228.429 94.0111 229.866 92.3206L230.088 92.7485C228.101 95.8548 225.93 97.4978 223.574 97.6774Z" fill="black"/>
<path d="M253.75 74.063C255.482 73.9784 256.344 74.829 256.333 76.6146C256.227 78.77 255.002 81.1737 252.656 83.8257C251.314 85.3789 250.184 86.3404 249.265 86.7102C248.757 87.2068 248.335 88.0098 247.997 89.1192C247.743 90.2603 247.542 91.0791 247.394 91.5757C247.257 92.0723 246.929 93.0021 246.412 94.3651C246.613 95.1047 246.951 95.6224 247.426 95.9182C247.902 96.2035 248.546 96.2246 249.36 95.9816C250.807 95.5484 252.202 94.4073 253.544 92.5583H253.702C253.702 92.7591 253.744 92.8595 253.829 92.8595C253.036 94.7613 251.753 96.2035 249.978 97.1861C248.815 97.6193 247.801 97.7091 246.935 97.4556C246.079 97.1914 245.218 96.9748 244.351 96.8058C243.485 96.6367 242.724 96.6103 242.069 96.7265C241.414 96.8322 240.479 97.1227 239.264 97.5982C238.588 98.3906 238.017 98.7551 237.552 98.6917C237.098 98.6284 236.881 98.2691 236.903 97.614C237.294 96.8744 237.906 96.325 238.741 95.9658C239.576 95.596 240.262 95.3424 240.801 95.205C241.351 95.0571 241.985 94.8986 242.703 94.7296C244.341 94.0534 245.286 93.2821 245.54 92.4157C245.92 91.2957 246.206 90.2339 246.396 89.2301C246.597 88.2264 246.296 87.9147 245.493 88.295C244.161 88.6331 242.545 88.6014 240.643 88.2C238.646 87.4815 237.531 86.2189 237.299 84.4121C237.278 80.8832 239.602 77.9512 244.272 75.6161C246.597 74.7075 247.875 74.6546 248.108 75.4576C248.351 76.2501 247.933 76.7414 246.856 76.9316C246.021 76.6463 244.616 76.9791 242.64 77.93C240.928 79.0711 239.798 80.2756 239.248 81.5435C238.709 82.8008 238.678 84.0635 239.153 85.3313C239.946 86.4936 241.139 87.1064 242.735 87.1698L244.526 87.0747C246.237 86.483 247.394 84.9087 247.997 82.3518C249.275 77.5866 251.193 74.8237 253.75 74.063ZM250.326 84.5706C251.499 83.7253 252.619 82.5526 253.686 81.0522C254.51 79.6153 254.896 78.3421 254.843 77.2327C254.79 76.1233 254.326 75.6901 253.449 75.9331C252.582 76.1656 251.848 76.847 251.246 77.9776C250.643 79.1081 250.141 80.4024 249.74 81.8605C249.338 83.308 249.117 84.2589 249.074 84.7132C249.043 85.1676 249.46 85.12 250.326 84.5706Z" fill="black"/>
<path d="M257.759 96.0133C256.819 97.0699 255.905 97.6352 255.018 97.7091C253.824 97.6352 253.058 97.0012 252.72 95.8073C252.381 94.6028 252.545 93.0813 253.211 91.2429C253.876 89.4044 254.975 88.0256 256.507 87.1064C256.771 86.6838 257.168 86.3562 257.696 86.1238C258.235 85.8913 258.795 85.8438 259.376 85.9811C259.968 86.1185 260.396 86.5992 260.66 87.4234C260.934 88.2475 260.845 89.5312 260.39 91.2746C259.947 93.0074 259.07 94.587 257.759 96.0133ZM254.336 93.2557C254.061 95.0201 254.304 96.0028 255.065 96.2035C255.836 96.4043 256.613 95.9552 257.395 94.8564C258.177 93.7575 258.657 92.5689 258.837 91.2904C259.027 90.0014 259.017 89.0611 258.805 88.4694C258.605 87.8777 258.224 87.5713 257.664 87.5502C257.115 87.5185 256.491 88.0203 255.794 89.0558C255.097 90.0912 254.611 91.4912 254.336 93.2557ZM255.398 97.6774C254.965 97.7091 254.547 97.6457 254.146 97.4873C255.72 96.8639 257.009 96.2722 258.013 95.7122C259.027 95.1417 260.253 94.0111 261.69 92.3206L261.912 92.7485C259.925 95.8548 257.754 97.4978 255.398 97.6774Z" fill="black"/>
<path d="M272.673 74.0947C273.096 73.0064 273.555 72.5098 274.052 72.6049C274.548 72.7 274.464 73.6298 273.798 75.3942C272.794 78.7964 272.028 81.7707 271.5 84.317C270.982 86.8634 270.57 88.8656 270.264 90.3237C269.968 91.7817 269.678 93.5991 269.392 95.7756C269.445 96.5046 269.857 96.4941 270.628 95.7439L271.722 94.7296C272.314 93.9794 272.995 93.0972 273.767 92.0829L274.02 92.5742C272.773 95.1205 271.331 96.9431 269.693 98.042L268.933 98.2004C267.982 97.9152 267.533 97.1756 267.586 95.9816C268.124 92.5372 268.161 91.0474 267.696 91.5123C268.013 90.5297 268.04 89.8324 267.776 89.4203C267.522 89.0082 267.089 88.8286 266.476 88.8814C265.863 88.9343 265.145 89.3199 264.321 90.0384C263.497 90.7463 262.82 91.6233 262.292 92.6693C261.764 93.7153 261.574 94.5553 261.722 95.1892C261.859 95.8232 262.213 96.1031 262.783 96.0292C263.365 95.9447 264.03 95.5854 264.78 94.9515C265.541 94.307 266.524 93.1236 267.728 91.4014C268.457 90.1018 268.742 90.0807 268.584 91.338C267.538 93.2504 266.386 94.8036 265.129 95.9975C263.882 97.1808 262.942 97.8571 262.308 98.0261C261.674 98.1952 261.162 98.2057 260.771 98.0578C260.369 97.9099 260.063 97.5718 259.851 97.0435C259.64 96.5152 259.656 95.7069 259.899 94.6187C260.142 93.5198 260.649 92.4368 261.42 91.3697C262.192 90.292 262.984 89.4203 263.798 88.7547C264.622 88.089 265.409 87.6611 266.159 87.4709C266.909 87.2702 267.501 87.2543 267.934 87.4234C268.367 87.5924 268.695 87.8566 268.917 88.2158L269.17 87.4392C269.498 86.2559 270.021 84.1427 270.739 81.0998C271.468 78.0568 272.113 75.7218 272.673 74.0947Z" fill="black"/>
<path d="M278.949 98.4065C278.357 99.0299 277.655 99.817 276.841 100.768C276.038 101.719 275.114 102.981 274.068 104.556C273.032 106.141 272.303 107.625 271.881 109.009C271.447 110.393 271.373 111.466 271.659 112.226C271.933 112.987 272.493 113.167 273.339 112.765C274.173 112.364 274.966 111.387 275.716 109.833C276.466 108.28 277.105 106.479 277.634 104.429C278.172 102.379 278.611 100.372 278.949 98.4065ZM274.702 95.5537C275.209 96.0926 275.874 96.2352 276.698 95.9816C277.523 95.7281 278.225 95.1522 278.806 94.2541C279.387 93.3455 279.784 92.2519 279.995 90.9735C280.206 89.695 279.921 88.7335 279.139 88.089C278.357 87.4339 277.422 87.6611 276.334 88.7705C275.246 89.8693 274.575 91.1372 274.321 92.5742C274.078 94.0111 274.205 95.0043 274.702 95.5537ZM282.15 94.4285C282.869 94.1326 284.126 92.8912 285.922 90.704L285.859 91.6233L285.209 92.8278C284.744 93.6413 283.461 95.0624 281.358 97.091L280.661 97.9152C279.868 102.099 279.018 105.338 278.109 107.63C277.2 109.923 276.107 111.756 274.828 113.13C273.56 114.503 272.425 115.074 271.421 114.842C270.417 114.62 269.825 113.848 269.646 112.528C269.456 111.217 269.794 109.643 270.66 107.805C271.527 105.977 272.446 104.482 273.418 103.32C274.379 102.157 275.272 101.138 276.096 100.261C276.868 99.4261 277.908 98.322 279.218 96.9484C279.324 96.325 279.456 95.6013 279.615 94.7771C277.945 97.091 276.355 98.1846 274.844 98.0578C273.333 97.931 272.525 96.9537 272.419 95.1258C272.314 93.2979 272.874 91.4648 274.099 89.6263C275.325 87.7879 276.551 86.7419 277.776 86.4883C279.012 86.2242 279.905 86.2928 280.455 86.6943C281.015 87.0853 281.358 87.4868 281.485 87.8988C281.612 88.3003 281.754 88.0996 281.913 87.2966C282.082 86.483 282.441 86.0604 282.99 86.0287C283.55 85.997 283.614 86.689 283.181 88.1049C282.747 89.5207 282.272 91.3168 281.754 93.4934L281.818 94.0956C281.828 94.2119 281.939 94.3228 282.15 94.4285Z" fill="black"/>
<path d="M290.091 94.6028L291.327 93.2081C291.675 92.9862 291.908 92.981 292.024 93.1923C290.133 95.9077 288.548 97.4556 287.27 97.8359C286.213 98.1212 285.405 98.042 284.845 97.5982C284.285 97.165 283.941 96.4888 283.815 95.5696C283.677 94.6398 283.793 93.6677 284.163 92.6534C284.522 91.6285 285.098 90.5614 285.891 89.452C286.694 88.332 287.624 87.5026 288.68 86.9638C289.737 86.4143 290.545 86.2981 291.105 86.6151C291.675 86.9321 291.934 87.4551 291.882 88.1841C291.829 88.9026 291.506 89.5841 290.915 90.2286C290.323 90.8625 289.446 91.4648 288.284 92.0353C287.122 92.5953 286.377 93.0443 286.049 93.3825C285.732 93.71 285.563 94.0639 285.542 94.4443C285.531 94.8247 285.574 95.1892 285.669 95.5379C285.774 95.8865 286.012 96.1613 286.382 96.362C286.752 96.5628 287.28 96.5363 287.967 96.2828C288.654 96.0186 289.362 95.4586 290.091 94.6028ZM285.764 92.3998C287.761 91.375 289.06 90.5033 289.663 89.7848C290.276 89.0663 290.519 88.5011 290.392 88.089C290.276 87.6664 289.863 87.5977 289.156 87.883C288.448 88.1683 287.777 88.7494 287.143 89.6263C286.519 90.4927 286.06 91.4172 285.764 92.3998Z" fill="black"/>
</svg>
