<svg width="344" height="78" viewBox="0 0 344 78" fill="none" xmlns="http://www.w3.org/2000/svg">
<path d="M10.6085 47.6829L10.5935 47.9794C10.5536 48.5526 10.7781 48.854 11.2669 48.8837C12.2746 48.7157 13.1226 48.1474 13.811 47.1788C14.4994 46.2004 14.9085 45.0391 15.0382 43.695C15.0681 42.1136 14.6191 41.3921 13.6913 41.5305C12.6038 41.9555 11.5762 44.0063 10.6085 47.6829ZM13.2573 61.3367C14.4845 60.8722 15.4173 60.4126 16.0558 59.958C16.7043 59.5033 17.5673 58.6781 18.6448 57.4822L18.8692 57.9714C16.9238 61.1341 14.1103 62.6808 10.4289 62.6116C9.36138 62.5425 8.57821 62.2954 8.07937 61.8704C7.58053 61.4454 7.40594 61.0649 7.55559 60.7289C7.71522 60.383 7.90477 60.2149 8.12426 60.2248C8.35373 60.2347 8.54828 60.3286 8.7079 60.5065C8.86753 60.6745 9.0122 60.8524 9.14189 61.0402C9.27159 61.228 9.68563 61.307 10.384 61.2774C11.0924 61.2477 11.8556 60.9018 12.6737 60.2396C13.5017 59.5775 14.1153 58.4656 14.5144 56.904C14.9135 55.3425 14.7838 53.9242 14.1253 52.6492C13.4668 51.3743 12.7186 50.722 11.8805 50.6923C10.6334 50.2476 9.90013 50.7665 9.68064 52.249C8.80268 56.5581 7.82496 59.3106 6.74747 60.5065C5.67996 61.6925 4.5027 62.3349 3.21569 62.4337C1.93867 62.5425 1.05572 62.3992 0.566862 62.0038C0.0680234 61.6085 -0.101582 61.1242 0.0580466 60.551C0.217675 59.9777 0.611757 59.701 1.24029 59.7208C1.86883 59.7405 2.16813 60.0519 2.1382 60.6547C2.10827 61.2576 2.44249 61.4998 3.14087 61.3812C3.83924 61.2527 4.49272 60.9117 5.1013 60.3582C5.70989 59.7949 6.22868 59.0141 6.65768 58.0159C7.09666 57.0177 7.43088 55.5154 7.66034 53.5091C7.88981 51.5028 8.44352 49.0814 9.32148 46.2449C10.1296 44.4065 10.9976 42.7857 11.9254 41.3822C12.3544 40.7497 12.1499 40.4927 11.3118 40.6113C10.4738 40.7201 9.47612 41.1796 8.31881 41.9901C7.1615 42.7906 6.35838 43.9914 5.90942 45.5925C5.87949 46.6105 5.43054 47.0899 4.56256 47.0306C4.26325 46.9021 4.13356 46.6007 4.17346 46.1262C4.21337 45.3059 4.72219 44.3522 5.69991 43.265C7.05675 41.6639 8.41858 40.641 9.78539 40.1962C11.1522 39.7416 12.1399 39.5242 12.7485 39.5439C13.3671 39.5538 13.9906 39.6724 14.6191 39.8997C15.2477 40.1271 15.7715 40.5965 16.1905 41.3081C16.6095 42.0197 16.7841 42.9833 16.7143 44.199C16.5447 45.5036 16.0059 46.6352 15.098 47.5939C14.3897 48.2956 13.7661 48.8195 13.2274 49.1654C14.7339 49.9066 15.7365 51.1173 16.2354 52.7975C16.7342 54.4678 16.6594 56.1331 16.0109 57.7935C15.3624 59.444 14.4445 60.6251 13.2573 61.3367Z" fill="black"/>
<path d="M28.6565 46.8823L29.4945 46.1559L29.6591 46.6599C28.7612 47.8064 27.7386 48.6465 26.5913 49.1802C25.4539 49.704 24.5261 49.8177 23.8077 49.5212C23.0894 49.2148 22.7003 48.7849 22.6405 48.2314C22.5806 47.668 22.7103 47.2678 23.0296 47.0306C23.3588 46.7934 23.6731 46.6945 23.9724 46.7341C24.2816 46.7736 24.4463 46.9515 24.4662 47.2678C24.4961 47.584 24.6707 47.8361 24.99 48.0238C25.3092 48.2017 25.8779 48.177 26.696 47.9497C27.5141 47.7224 28.1676 47.3666 28.6565 46.8823ZM25.9328 51.4632L27.0103 51.4039L27.3395 52.0711C27.3794 52.5455 27.0951 53.4646 26.4865 54.8285C26.0575 56.1825 25.7682 57.0819 25.6185 57.5267L25.409 58.9054C25.2294 59.9234 25.3741 60.3879 25.843 60.2989L26.4117 59.9876C26.8107 59.6714 27.6887 58.7819 29.0455 57.3191C29.265 57.329 29.4047 57.4921 29.4646 57.8083C27.7785 60.4077 26.4416 61.6876 25.4539 61.648C24.2467 61.905 23.678 61.2576 23.7479 59.7059L24.2567 57.1264C22.7103 59.0635 21.3285 60.4126 20.1114 61.1736C19.5826 61.5591 18.8792 61.7123 18.0013 61.6332L17.5822 61.2033L17.4476 60.6844C17.3877 59.9234 17.4675 59.1624 17.687 58.4013C17.9264 57.7392 18.2856 56.9831 18.7645 56.1331C19.7223 54.6111 20.9694 53.3806 22.5058 52.4417C24.0522 51.4929 25.1945 51.1667 25.9328 51.4632ZM20.3059 59.3946C21.3535 58.6534 22.1666 57.922 22.7452 57.2005C23.4336 56.5186 24.0721 55.4314 24.6608 53.939C24.1819 53.1978 23.4835 53.1138 22.5656 53.687C22.0369 53.9736 21.4283 54.5963 20.7399 55.5549C19.9717 56.5828 19.4629 57.5168 19.2134 58.3569C18.964 59.6615 19.3282 60.0074 20.3059 59.3946ZM30.3026 40.8634C30.3924 41.6639 29.8437 42.6819 28.6565 43.9173C28.2773 44.4807 27.8783 44.9254 27.4592 45.2516L27.5341 45.2812C27.2248 45.4987 26.9105 45.7457 26.5913 46.0225C26.282 46.2992 26.0226 46.482 25.8131 46.571C25.6036 46.6501 25.4739 46.5759 25.424 46.3486L27.4293 43.6653C28.1177 42.6177 28.5966 41.7084 28.866 40.9375C29.1353 40.1666 29.5494 39.9245 30.1081 40.2111L30.3026 40.8634Z" fill="black"/>
<path d="M30.991 53.3608L30.6468 53.0792H29.8088L29.0006 52.9754C28.2524 52.7678 28.2025 52.4466 28.851 52.0118C29.9185 52.0118 30.6568 51.9525 31.0658 51.8339C31.4849 51.7054 31.8789 50.9295 32.2481 49.5063C32.7968 47.3024 33.2458 45.7309 33.595 44.792L34.1187 43.9025C34.5577 43.6258 34.847 43.69 34.9867 44.0952C35.1264 44.5004 34.9917 45.1725 34.5826 46.1114L33.7147 48.8392C33.4353 49.7386 33.3356 50.4551 33.4154 50.9888C33.7047 51.2359 34.024 51.4435 34.3731 51.6115C36.6079 51.74 37.7203 51.7301 37.7104 51.5818L38.1144 51.6856L38.1294 51.819C38.0995 52.0859 37.3911 52.3182 36.0043 52.5158L34.8969 52.8123L33.9391 52.9457C33.2408 53.0545 32.702 53.8698 32.3229 55.3919C31.7842 57.2895 31.5447 58.6534 31.6046 59.4836C31.6644 60.3138 32.1483 60.4225 33.0562 59.8097C33.6947 59.4836 34.8021 58.347 36.3785 56.4H36.5132L36.588 56.9633C35.0915 59.1377 33.9791 60.5065 33.2508 61.0698C32.712 61.6233 32.0785 61.9149 31.3502 61.9445C30.153 61.8951 29.6791 61.0007 29.9285 59.2612C30.0283 58.3915 30.2827 57.1709 30.6917 55.5994C29.9235 56.9831 29.1802 58.0801 28.4619 58.8906C27.7436 59.6911 27.3146 60.037 27.1749 59.9283C27.0252 59.8196 26.9953 59.701 27.0851 59.5725C27.1749 59.4342 27.3445 59.2019 27.5939 58.8757C27.8433 58.5496 28.2474 57.9813 28.8061 57.1709C29.3548 56.3604 30.0831 55.0904 30.991 53.3608Z" fill="black"/>
<path d="M50.8198 49.5212C50.1614 49.6398 49.5079 49.709 48.8594 49.7287C48.2209 49.7386 47.5475 49.7337 46.8391 49.7139C46.1308 49.6842 45.6868 49.5706 45.5072 49.3729C45.3276 49.1753 45.587 48.8145 46.2854 48.2907L51.613 48.3203C53.1793 48.1523 54.2918 48.098 54.9502 48.1573C55.6187 48.2067 55.5089 48.3846 54.621 48.691C53.743 48.9875 52.476 49.2642 50.8198 49.5212ZM53.0347 39.7367C53.4338 38.7187 53.8677 38.2542 54.3367 38.3431C54.8056 38.4321 54.7257 39.3018 54.0972 40.9523C53.1494 44.1348 52.4261 46.9169 51.9273 49.2988C51.4384 51.6807 51.0493 53.5536 50.76 54.9175C50.4806 56.2814 50.2063 57.9813 49.9369 60.0173C49.9868 60.6992 50.3759 60.6893 51.1042 59.9876L52.1368 59.0388C52.6955 58.3371 53.339 57.5118 54.0673 56.563L54.3067 57.0226C53.1295 59.4045 51.7676 61.1094 50.2212 62.1372L49.5029 62.2855C48.605 62.0186 48.181 61.3268 48.2309 60.21C48.7397 56.988 48.7746 55.5945 48.3356 56.0293C48.6349 55.1102 48.6599 54.4579 48.4104 54.0724C48.171 53.687 47.762 53.519 47.1833 53.5684C46.6047 53.6178 45.9262 53.9786 45.148 54.6506C44.3699 55.3128 43.7313 56.1331 43.2325 57.1116C42.7337 58.09 42.5541 58.8757 42.6938 59.4687C42.8235 60.0617 43.1577 60.3237 43.6964 60.2545C44.2452 60.1754 44.8737 59.8394 45.582 59.2464C46.3004 58.6435 47.2282 57.5366 48.3656 55.9256C49.054 54.7099 49.3233 54.6902 49.1737 55.8663C48.186 57.6552 47.0985 59.108 45.9113 60.2248C44.734 61.3318 43.8461 61.9643 43.2475 62.1224C42.6489 62.2806 42.165 62.2904 41.7959 62.1521C41.4167 62.0137 41.1274 61.6974 40.9279 61.2033C40.7283 60.7091 40.7433 59.953 40.9728 58.935C41.2022 57.9072 41.6811 56.8941 42.4094 55.8959C43.1377 54.8878 43.886 54.0724 44.6542 53.4498C45.4324 52.8271 46.1757 52.4269 46.884 52.249C47.5924 52.0612 48.1511 52.0464 48.5601 52.2045C48.9692 52.3626 49.2784 52.6097 49.4879 52.9457L49.7274 52.2193C50.0367 51.1124 50.5305 49.1357 51.2089 46.2893C51.8973 43.4429 52.5059 41.2587 53.0347 39.7367Z" fill="black"/>
<path d="M60.8615 51.4632L61.9389 51.4039L62.2682 52.0711C62.3081 52.5455 62.0238 53.4646 61.4152 54.8285C60.9862 56.1825 60.6968 57.0819 60.5472 57.5267L60.3377 58.9054C60.1581 59.9234 60.3028 60.3879 60.7717 60.2989L61.3403 59.9876C61.7394 59.6714 62.6174 58.7819 63.9742 57.3191C64.1937 57.329 64.3334 57.4921 64.3932 57.8083C62.7072 60.4077 61.3703 61.6876 60.3826 61.648C59.1754 61.905 58.6067 61.2576 58.6765 59.7059L59.1854 57.1264C57.639 59.0635 56.2572 60.4126 55.04 61.1736C54.5112 61.5591 53.8079 61.7123 52.9299 61.6332L52.5109 61.2033L52.3762 60.6844C52.3164 59.9234 52.3962 59.1624 52.6157 58.4013C52.8551 57.7392 53.2143 56.9831 53.6931 56.1331C54.6509 54.6111 55.898 53.3806 57.4344 52.4417C58.9808 51.4929 60.1232 51.1667 60.8615 51.4632ZM55.2346 59.3946C56.2821 58.6534 57.0952 57.922 57.6739 57.2005C58.3623 56.5186 59.0008 55.4314 59.5894 53.939C59.1105 53.1978 58.4122 53.1138 57.4943 53.687C56.9655 53.9736 56.3569 54.5963 55.6685 55.5549C54.9003 56.5828 54.3915 57.5168 54.1421 58.3569C53.8927 59.6615 54.2568 60.0074 55.2346 59.3946ZM63.7797 50.04L63.0763 49.8325L61.7444 48.7799C61.2655 47.7817 60.0633 48.1622 58.1378 49.9214L57.2549 50.3514L56.5515 50.3662L55.9679 49.9214L56.1325 49.1357L56.9107 48.8689C58.0181 48.6712 59.2303 47.841 60.5472 46.3783L61.1458 45.9632L61.5349 46.0373L63.2858 48.7947L64.3783 49.6991L64.2137 49.9066L63.7797 50.04ZM60.1132 42.8203C60.3826 42.2569 60.8565 42.2026 61.5349 42.6572C62.2133 43.1019 63.1511 43.5319 64.3483 43.947L67.5808 44.881C67.6806 45.0885 67.6207 45.2219 67.4012 45.2812C67.1817 45.3405 66.8625 45.3554 66.4435 45.3257C66.0244 45.296 65.6303 45.2911 65.2612 45.3109L65.2911 45.2219C64.7624 45.2219 64.1737 45.1132 63.5253 44.8958C61.8292 44.619 60.7667 44.1348 60.3377 43.4429L60.1132 42.8203Z" fill="black"/>
<path d="M73.941 51.0481C74.5097 50.8505 74.779 51.0383 74.7491 51.6115C73.4521 55.2782 72.7338 57.5118 72.5941 58.3124L72.4445 59.2167C72.4245 59.8987 72.6241 60.2742 73.0431 60.3434C74.2203 59.7998 75.3028 58.7621 76.2905 57.2302C76.4502 57.2302 76.6497 57.1313 76.8891 56.9337H77.1735C76.3454 58.8016 75.1482 60.3088 73.5818 61.4553C71.8459 62.3053 70.8981 61.7814 70.7385 59.8838L71.0378 58.1641C70.3394 59.4193 69.4365 60.4521 68.3291 61.2626C67.481 61.8457 66.8076 62.0928 66.3088 62.0038C65.8099 61.9248 65.4807 61.5986 65.3211 61.0254C65.1614 60.4423 65.4009 59.1722 66.0394 57.2153L66.3237 55.8514C66.5233 55.0509 66.0993 55.3622 65.0517 56.7854L63.0164 59.3353C62.4378 59.3847 62.353 59.1475 62.762 58.6237C63.1711 58.0999 63.5253 57.6156 63.8246 57.1709C64.1239 56.7261 65.2762 55.0064 67.2815 52.0118C68.3191 51.4682 68.9027 51.4484 69.0324 51.9525C68.3939 54.1762 67.95 55.7032 67.7005 56.5334C67.4511 57.3537 67.2316 58.3371 67.0421 59.4836L67.1319 60.0469L67.3863 60.1507C68.1046 60.0617 69.2769 58.9598 70.9031 56.8447L72.8934 52.249L73.941 51.0481Z" fill="black"/>
<path d="M91.3305 43.947C92.0089 41.9901 92.1187 40.7645 91.6597 40.2704C91.2108 39.7762 90.5374 40.1765 89.6394 41.4712C88.7515 42.7659 87.9234 44.7228 87.1552 47.3419C86.397 49.961 85.973 51.5868 85.8832 52.2193C85.8034 52.8519 86.0179 52.8716 86.5267 52.2786C87.0455 51.6757 87.8087 50.6281 88.8164 49.1357C89.824 47.6335 90.6621 45.9039 91.3305 43.947ZM89.1007 56.1628C89.8091 54.107 89.7891 53.2422 89.0408 53.5684C88.552 53.7463 87.8586 54.4678 86.9607 55.7328C86.0727 56.988 85.2846 58.4656 84.5962 60.1655L84.0275 61.4108C82.95 62.409 82.4212 62.2361 82.4412 60.8919L82.7255 59.4836L83.0398 58.0455C81.7029 59.7158 80.7202 60.6696 80.0917 60.9068C79.7824 60.7585 79.947 60.3879 80.5855 59.7949L82.1419 57.6897C82.5809 57.0276 83.0847 56.1776 83.6534 55.1398C83.7731 54.5666 83.9277 53.855 84.1173 53.005C84.6062 51.0086 85.0751 49.2 85.524 47.5791C85.973 45.9582 86.6115 44.2682 87.4396 42.5089C88.2676 40.7497 89.1406 39.5785 90.0585 38.9954C90.9763 38.4024 91.7196 38.2937 92.2883 38.6693C92.8569 39.035 93.1263 39.623 93.0964 40.4334C93.0665 41.2439 92.9368 42.0938 92.7073 42.9833C92.4878 43.863 92.1835 44.7129 91.7944 45.5332C91.4053 46.3536 90.9614 47.2184 90.4625 48.1276C89.9737 49.0369 89.5447 49.7781 89.1755 50.3514C88.8363 50.8752 87.689 52.412 85.7335 54.9619C85.6338 55.1003 85.529 55.2436 85.4193 55.3919C85.1699 56.232 84.9753 56.9534 84.8356 57.5563L86.1077 55.7032C88.1429 52.7876 89.6544 51.3842 90.6421 51.4929C91.3205 51.6609 91.5949 52.2589 91.4652 53.2867L91.1958 54.191C90.9165 55.2486 90.5174 56.7311 89.9986 58.6385C89.7492 59.4687 89.7442 59.953 89.9836 60.0914C90.2331 60.2298 90.4825 60.2149 90.7319 60.0469C90.9813 59.8789 91.3405 59.5429 91.8094 59.0388C92.2883 58.5348 92.7971 57.8726 93.3358 57.0523C93.715 56.5383 93.9893 56.4395 94.1589 56.7558C93.1912 58.5743 92.3132 59.8888 91.5251 60.6992C90.7369 61.4998 90.0535 61.905 89.4748 61.9149C88.9062 61.9248 88.522 61.7716 88.3225 61.4553C88.1329 61.139 88.0531 60.7635 88.0831 60.3286C88.123 59.8838 88.2527 59.2711 88.4722 58.4903C88.6917 57.6996 88.9012 56.9238 89.1007 56.1628Z" fill="black"/>
<path d="M100.639 51.4632L101.716 51.4039L102.046 52.0711C102.085 52.5455 101.801 53.4646 101.193 54.8285C100.764 56.1825 100.474 57.0819 100.325 57.5267L100.115 58.9054C99.9355 59.9234 100.08 60.3879 100.549 60.2989L101.118 59.9876C101.517 59.6714 102.395 58.7819 103.752 57.3191C103.971 57.329 104.111 57.4921 104.171 57.8083C102.485 60.4077 101.148 61.6876 100.16 61.648C98.9528 61.905 98.3841 61.2576 98.4539 59.7059L98.9627 57.1264C97.4163 59.0635 96.0346 60.4126 94.8174 61.1736C94.2886 61.5591 93.5853 61.7123 92.7073 61.6332L92.2883 61.2033L92.1536 60.6844C92.0937 59.9234 92.1735 59.1624 92.393 58.4013C92.6325 57.7392 92.9916 56.9831 93.4705 56.1331C94.4283 54.6111 95.6754 53.3806 97.2118 52.4417C98.7582 51.4929 99.9006 51.1667 100.639 51.4632ZM95.0119 59.3946C96.0595 58.6534 96.8726 57.922 97.4512 57.2005C98.1396 56.5186 98.7782 55.4314 99.3668 53.939C98.8879 53.1978 98.1895 53.1138 97.2717 53.687C96.7429 53.9736 96.1343 54.5963 95.4459 55.5549C94.6777 56.5828 94.1689 57.5168 93.9195 58.3569C93.6701 59.6615 94.0342 60.0074 95.0119 59.3946ZM97.1669 45.978C97.4363 45.4146 97.9102 45.3603 98.5886 45.8149C99.267 46.2597 100.205 46.6896 101.402 47.1047L104.635 48.0387C104.734 48.2462 104.674 48.3796 104.455 48.4389C104.235 48.4982 103.916 48.5131 103.497 48.4834C103.078 48.4538 102.684 48.4488 102.315 48.4686L102.345 48.3796C101.816 48.3796 101.227 48.2709 100.579 48.0535C98.8829 47.7768 97.8204 47.2925 97.3914 46.6006L97.1669 45.978Z" fill="black"/>
<path d="M105.832 61.9593L105.667 61.2774L106.655 57.0523L106.999 55.8218C107.338 54.6259 107.124 54.2306 106.356 54.6358C104.4 57.6304 103.063 59.0932 102.345 59.024C103.153 57.7688 104.679 55.6044 106.924 52.5306C107.652 52.0958 108.161 51.8783 108.451 51.8783C108.86 52.1551 109.079 52.6344 109.109 53.3164L109.049 54.532L108.93 55.466L108.66 56.6223L107.059 61.6035C106.819 62.0878 106.41 62.2064 105.832 61.9593ZM112.162 61.8556C111.434 61.816 111.045 61.4207 110.995 60.6696L111.085 59.5577C111.514 58.0554 111.848 56.82 112.087 55.8514C112.756 54.0033 112.716 53.2422 111.967 53.5684L111.189 54.1169C110.212 54.9669 108.989 56.7162 107.523 59.365L106.879 58.8461L109.034 55.7032C111.07 52.7876 112.581 51.3842 113.569 51.4929C114.347 51.6609 114.671 52.2589 114.541 53.2867L114.272 54.191C113.993 55.2486 113.594 56.7311 113.075 58.6385C112.726 59.7949 112.771 60.3138 113.21 60.1952L113.06 61.5739L112.162 61.8556ZM116.008 57.2302C116.168 57.2302 116.367 57.1313 116.607 56.9337H116.891C116.063 58.8016 114.866 60.3088 113.299 61.4553C113.07 61.564 112.855 61.653 112.656 61.7221L113.135 60.1803C114.142 59.6269 115.1 58.6435 116.008 57.2302Z" fill="black"/>
<path d="M124.463 43.947C125.142 41.9901 125.252 40.7645 124.793 40.2704C124.344 39.7762 123.67 40.1765 122.772 41.4712C121.884 42.7659 121.056 44.7228 120.288 47.3419C119.53 49.961 119.106 51.5868 119.016 52.2193C118.936 52.8519 119.151 52.8716 119.66 52.2786C120.178 51.6757 120.942 50.6281 121.949 49.1357C122.957 47.6335 123.795 45.9039 124.463 43.947ZM122.234 56.1628C122.942 54.107 122.922 53.2422 122.174 53.5684C121.685 53.7463 120.991 54.4678 120.094 55.7328C119.206 56.988 118.417 58.4656 117.729 60.1655L117.16 61.4108C116.083 62.409 115.554 62.2361 115.574 60.8919L115.858 59.4836L116.173 58.0455C114.836 59.7158 113.853 60.6696 113.225 60.9068C112.915 60.7585 113.08 60.3879 113.718 59.7949L115.275 57.6897C115.714 57.0276 116.218 56.1776 116.786 55.1398C116.906 54.5666 117.061 53.855 117.25 53.005C117.739 51.0086 118.208 49.2 118.657 47.5791C119.106 45.9582 119.744 44.2682 120.572 42.5089C121.4 40.7497 122.273 39.5785 123.191 38.9954C124.109 38.4024 124.852 38.2937 125.421 38.6693C125.99 39.035 126.259 39.623 126.229 40.4334C126.199 41.2439 126.07 42.0938 125.84 42.9833C125.621 43.863 125.316 44.7129 124.927 45.5332C124.538 46.3536 124.094 47.2184 123.595 48.1276C123.107 49.0369 122.678 49.7781 122.308 50.3514C121.969 50.8752 120.822 52.412 118.866 54.9619C118.767 55.1003 118.662 55.2436 118.552 55.3919C118.303 56.232 118.108 56.9534 117.968 57.5563L119.241 55.7032C121.276 52.7876 122.787 51.3842 123.775 51.4929C124.453 51.6609 124.728 52.2589 124.598 53.2867L124.329 54.191C124.049 55.2486 123.65 56.7311 123.131 58.6385C122.882 59.4687 122.877 59.953 123.116 60.0914C123.366 60.2298 123.615 60.2149 123.865 60.0469C124.114 59.8789 124.473 59.5429 124.942 59.0388C125.421 58.5348 125.93 57.8726 126.469 57.0523C126.848 56.5383 127.122 56.4395 127.292 56.7558C126.324 58.5743 125.446 59.8888 124.658 60.6992C123.87 61.4998 123.186 61.905 122.608 61.9149C122.039 61.9248 121.655 61.7716 121.455 61.4553C121.266 61.139 121.186 60.7635 121.216 60.3286C121.256 59.8838 121.386 59.2711 121.605 58.4903C121.824 57.6996 122.034 56.9238 122.234 56.1628Z" fill="black"/>
<path d="M135.029 53.3608L134.685 53.0792H133.846L133.038 52.9754C132.29 52.7678 132.24 52.4466 132.889 52.0118C133.956 52.0118 134.695 51.9525 135.104 51.8339C135.523 51.7054 135.917 50.9295 136.286 49.5063C136.835 47.3024 137.283 45.7309 137.633 44.792L138.156 43.9025C138.595 43.6258 138.885 43.69 139.024 44.0952C139.164 44.5004 139.029 45.1725 138.62 46.1114L137.752 48.8392C137.473 49.7386 137.373 50.4551 137.453 50.9888C137.742 51.2359 138.062 51.4435 138.411 51.6115C140.646 51.74 141.758 51.7301 141.748 51.5818L142.152 51.6856L142.167 51.819C142.137 52.0859 141.429 52.3182 140.042 52.5158L138.935 52.8123L137.977 52.9457C137.279 53.0545 136.74 53.8698 136.361 55.3919C135.822 57.2895 135.582 58.6534 135.642 59.4836C135.702 60.3138 136.186 60.4225 137.094 59.8097C137.732 59.4836 138.84 58.347 140.416 56.4H140.551L140.626 56.9633C139.129 59.1377 138.017 60.5065 137.288 61.0698C136.75 61.6233 136.116 61.9149 135.388 61.9445C134.191 61.8951 133.717 61.0007 133.966 59.2612C134.066 58.3915 134.32 57.1709 134.729 55.5994C133.961 56.9831 133.218 58.0801 132.5 58.8906C131.781 59.6911 131.352 60.037 131.213 59.9283C131.063 59.8196 131.033 59.701 131.123 59.5725C131.213 59.4342 131.382 59.2019 131.632 58.8757C131.881 58.5496 132.285 57.9813 132.844 57.1709C133.393 56.3604 134.121 55.0904 135.029 53.3608Z" fill="black"/>
<path d="M145.04 49.1505L144.442 50.0104C144.033 50.5935 143.828 51.0976 143.828 51.5225C143.778 52.0958 144.217 52.4713 145.145 52.6492C146.073 52.8271 146.672 53.0891 146.941 53.435C147.22 53.7809 147.225 54.4628 146.956 55.4808C146.687 56.4889 146.427 57.67 146.178 59.024C146.158 59.8542 146.412 60.1853 146.941 60.0173C147.909 59.7307 149.206 58.7127 150.832 56.9633L151.012 57.1116L151.071 57.4674C149.834 59.2958 148.602 60.6251 147.375 61.4553C146.826 61.8407 146.253 61.9692 145.654 61.8407C145.045 61.6134 144.741 61.0501 144.741 60.1507C144.751 59.2513 144.916 58.2185 145.235 57.0523C145.564 55.886 145.619 55.1349 145.4 54.7989C145.18 54.4628 144.741 54.2158 144.083 54.0576C143.434 53.8896 142.925 54.0576 142.556 54.5617C141.459 56.1331 140.681 57.2104 140.222 57.7935C139.763 58.3668 139.369 58.7868 139.039 59.0536C138.7 59.3205 138.501 59.3106 138.441 59.024L139.384 57.4822C139.843 56.8101 140.476 55.7081 141.284 54.1762C141.913 50.6676 143.165 48.9924 145.04 49.1505Z" fill="black"/>
<path d="M151.969 56.6372L150.832 58.0455C149.874 59.1624 149.33 59.5033 149.201 59.0685C150.089 57.9517 150.842 56.904 151.46 55.9256L152.104 55.3326C152.663 55.1744 152.618 55.6093 151.969 56.6372ZM151.176 56.4C152.104 54.9965 153.142 53.4498 154.289 51.7597L154.648 51.567C155.037 51.5769 155.217 51.8783 155.187 52.4713C154.379 53.9835 153.78 55.9305 153.391 58.3124L153.167 59.5725L153.137 60.1952C153.157 60.4225 153.311 60.5559 153.6 60.5954C154.039 60.5559 154.828 59.9333 155.965 58.7275L157.162 57.3191L157.267 57.7342C156.329 59.6318 155.197 61.0007 153.87 61.8407C153.331 62.0681 152.817 62.1125 152.328 61.9742C151.57 61.7073 151.296 61.0204 151.505 59.9135C151.545 59.3205 151.82 58.0208 152.328 56.0145L151.086 56.4H151.176ZM156.354 47.6087L157.072 48.0535C157.122 48.6267 156.389 49.2395 154.873 49.8918C154.653 49.8028 154.478 49.7633 154.349 49.7732L154.319 49.2691C154.389 48.9726 155.067 48.4192 156.354 47.6087ZM156.174 43.3095C156.444 42.7461 156.918 42.6918 157.596 43.1464C158.275 43.5912 159.212 44.0211 160.41 44.4362L163.642 45.3702C163.742 45.5777 163.682 45.7111 163.463 45.7705C163.243 45.8298 162.924 45.8446 162.505 45.8149C162.086 45.7853 161.692 45.7803 161.323 45.8001L161.352 45.7111C160.824 45.7111 160.235 45.6024 159.587 45.385C157.891 45.1083 156.828 44.624 156.399 43.9321L156.174 43.3095Z" fill="black"/>
<path d="M159.377 61.9593L159.212 61.2774L160.2 57.0523L160.544 55.8218C160.884 54.6259 160.669 54.2306 159.901 54.6358C157.945 57.6304 156.608 59.0932 155.89 59.024C156.698 57.7688 158.225 55.6044 160.469 52.5306C161.198 52.0958 161.707 51.8783 161.996 51.8783C162.405 52.1551 162.624 52.6344 162.654 53.3164L162.595 54.532L162.475 55.466L162.205 56.6223L160.604 61.6035C160.365 62.0878 159.956 62.2064 159.377 61.9593ZM165.707 61.8556C164.979 61.816 164.59 61.4207 164.54 60.6696L164.63 59.5577C165.059 58.0554 165.393 56.82 165.632 55.8514C166.301 54.0033 166.261 53.2422 165.513 53.5684L164.735 54.1169C163.757 54.9669 162.535 56.7162 161.068 59.365L160.425 58.8461L162.58 55.7032C164.615 52.7876 166.126 51.3842 167.114 51.4929C167.892 51.6609 168.216 52.2589 168.087 53.2867L167.817 54.191C167.538 55.2486 167.139 56.7311 166.62 58.6385C166.271 59.7949 166.316 60.3138 166.755 60.1952L166.605 61.5739L165.707 61.8556ZM169.553 57.2302C169.713 57.2302 169.913 57.1313 170.152 56.9337H170.436C169.608 58.8016 168.411 60.3088 166.845 61.4553C166.615 61.564 166.401 61.653 166.201 61.7221L166.68 60.1803C167.688 59.6269 168.645 58.6435 169.553 57.2302Z" fill="black"/>
<path d="M178.009 43.947C178.687 41.9901 178.797 40.7645 178.338 40.2704C177.889 39.7762 177.216 40.1765 176.318 41.4712C175.43 42.7659 174.602 44.7228 173.833 47.3419C173.075 49.961 172.651 51.5868 172.561 52.2193C172.482 52.8519 172.696 52.8716 173.205 52.2786C173.724 51.6757 174.487 50.6281 175.495 49.1357C176.502 47.6335 177.34 45.9039 178.009 43.947ZM175.779 56.1628C176.487 54.107 176.467 53.2422 175.719 53.5684C175.23 53.7463 174.537 54.4678 173.639 55.7328C172.751 56.988 171.963 58.4656 171.274 60.1655L170.706 61.4108C169.628 62.409 169.099 62.2361 169.119 60.8919L169.404 59.4836L169.718 58.0455C168.381 59.7158 167.398 60.6696 166.77 60.9068C166.461 60.7585 166.625 60.3879 167.264 59.7949L168.82 57.6897C169.259 57.0276 169.763 56.1776 170.332 55.1398C170.451 54.5666 170.606 53.855 170.795 53.005C171.284 51.0086 171.753 49.2 172.202 47.5791C172.651 45.9582 173.29 44.2682 174.118 42.5089C174.946 40.7497 175.819 39.5785 176.737 38.9954C177.654 38.4024 178.398 38.2937 178.966 38.6693C179.535 39.035 179.804 39.623 179.775 40.4334C179.745 41.2439 179.615 42.0938 179.385 42.9833C179.166 43.863 178.862 44.7129 178.473 45.5332C178.083 46.3536 177.64 47.2184 177.141 48.1276C176.652 49.0369 176.223 49.7781 175.854 50.3514C175.514 50.8752 174.367 52.412 172.412 54.9619C172.312 55.1003 172.207 55.2436 172.097 55.3919C171.848 56.232 171.653 56.9534 171.514 57.5563L172.786 55.7032C174.821 52.7876 176.333 51.3842 177.32 51.4929C177.999 51.6609 178.273 52.2589 178.143 53.2867L177.874 54.191C177.595 55.2486 177.196 56.7311 176.677 58.6385C176.427 59.4687 176.422 59.953 176.662 60.0914C176.911 60.2298 177.161 60.2149 177.41 60.0469C177.659 59.8789 178.019 59.5429 178.488 59.0388C178.966 58.5348 179.475 57.8726 180.014 57.0523C180.393 56.5383 180.667 56.4395 180.837 56.7558C179.869 58.5743 178.991 59.8888 178.203 60.6992C177.415 61.4998 176.732 61.905 176.153 61.9149C175.584 61.9248 175.2 61.7716 175.001 61.4553C174.811 61.139 174.731 60.7635 174.761 60.3286C174.801 59.8838 174.931 59.2711 175.15 58.4903C175.37 57.6996 175.579 56.9238 175.779 56.1628Z" fill="black"/>
<path d="M195.174 49.5212C194.515 49.6398 193.862 49.709 193.213 49.7287C192.575 49.7386 191.901 49.7337 191.193 49.7139C190.485 49.6842 190.041 49.5706 189.861 49.3729C189.681 49.1753 189.941 48.8145 190.639 48.2907L195.967 48.3203C197.533 48.1523 198.646 48.098 199.304 48.1573C199.973 48.2067 199.863 48.3846 198.975 48.691C198.097 48.9875 196.83 49.2642 195.174 49.5212ZM197.389 39.7367C197.788 38.7187 198.222 38.2542 198.691 38.3431C199.159 38.4321 199.08 39.3018 198.451 40.9523C197.503 44.1348 196.78 46.9169 196.281 49.2988C195.792 51.6807 195.403 53.5536 195.114 54.9175C194.834 56.2814 194.56 57.9813 194.291 60.0173C194.341 60.6992 194.73 60.6893 195.458 59.9876L196.491 59.0388C197.049 58.3371 197.693 57.5118 198.421 56.563L198.661 57.0226C197.483 59.4045 196.121 61.1094 194.575 62.1372L193.857 62.2855C192.959 62.0186 192.535 61.3268 192.585 60.21C193.094 56.988 193.128 55.5945 192.689 56.0293C192.989 55.1102 193.014 54.4579 192.764 54.0724C192.525 53.687 192.116 53.519 191.537 53.5684C190.959 53.6178 190.28 53.9786 189.502 54.6506C188.724 55.3128 188.085 56.1331 187.586 57.1116C187.088 58.09 186.908 58.8757 187.048 59.4687C187.177 60.0617 187.512 60.3237 188.05 60.2545C188.599 60.1754 189.228 59.8394 189.936 59.2464C190.654 58.6435 191.582 57.5366 192.719 55.9256C193.408 54.7099 193.677 54.6902 193.528 55.8663C192.54 57.6552 191.452 59.108 190.265 60.2248C189.088 61.3318 188.2 61.9643 187.601 62.1224C187.003 62.2806 186.519 62.2904 186.15 62.1521C185.771 62.0137 185.481 61.6974 185.282 61.2033C185.082 60.7091 185.097 59.953 185.327 58.935C185.556 57.9072 186.035 56.8941 186.763 55.8959C187.492 54.8878 188.24 54.0724 189.008 53.4498C189.786 52.8271 190.53 52.4269 191.238 52.249C191.946 52.0612 192.505 52.0464 192.914 52.2045C193.323 52.3626 193.632 52.6097 193.842 52.9457L194.081 52.2193C194.391 51.1124 194.884 49.1357 195.563 46.2893C196.251 43.4429 196.86 41.2587 197.389 39.7367Z" fill="black"/>
<path d="M200.621 64.4944H200.965C201.125 64.4944 201.289 64.6624 201.459 64.9985V65.3246C201.379 66.4316 201.045 66.985 200.456 66.985C200.157 66.985 199.878 66.7083 199.618 66.1548C200.017 65.0479 200.352 64.4944 200.621 64.4944ZM205.215 51.4632L206.293 51.4039L206.622 52.0711C206.662 52.5455 206.378 53.4646 205.769 54.8285C205.34 56.1825 205.051 57.0819 204.901 57.5267L204.692 58.9054C204.512 59.9234 204.657 60.3879 205.126 60.2989L205.694 59.9876C206.093 59.6714 206.971 58.7819 208.328 57.3191C208.548 57.329 208.687 57.4921 208.747 57.8083C207.061 60.4077 205.724 61.6876 204.736 61.648C203.529 61.905 202.961 61.2576 203.03 59.7059L203.539 57.1264C201.993 59.0635 200.611 60.4126 199.394 61.1736C198.865 61.5591 198.162 61.7123 197.284 61.6332L196.865 61.2033L196.73 60.6844C196.67 59.9234 196.75 59.1624 196.97 58.4013C197.209 57.7392 197.568 56.9831 198.047 56.1331C199.005 54.6111 200.252 53.3806 201.788 52.4417C203.335 51.4929 204.477 51.1667 205.215 51.4632ZM199.588 59.3946C200.636 58.6534 201.449 57.922 202.028 57.2005C202.716 56.5186 203.355 55.4314 203.943 53.939C203.464 53.1978 202.766 53.1138 201.848 53.687C201.319 53.9736 200.711 54.5963 200.022 55.5549C199.254 56.5828 198.745 57.5168 198.496 58.3569C198.247 59.6615 198.611 60.0074 199.588 59.3946Z" fill="black"/>
<path d="M213.132 50.8258C214.479 50.7665 215.362 51.3051 215.781 52.4417C216.16 53.351 216.2 54.28 215.9 55.2288C215.372 57.1363 214.01 58.8313 211.815 60.3138C211.576 60.551 210.603 61.1588 208.897 62.1372C208.129 65.5272 207.655 68.2501 207.475 70.3058C207.295 72.3714 207.216 73.8688 207.236 74.7978C207.256 75.7367 207.335 76.7053 207.475 77.7035L207.266 78C206.477 77.9605 205.993 77.491 205.814 76.5916C205.624 75.7021 205.564 74.7978 205.634 73.8786C205.704 72.9595 205.854 71.5462 206.083 69.6387C206.542 66.5254 206.837 64.5883 206.966 63.8273C207.096 63.0762 207.29 61.9939 207.55 60.5806C208.408 56.6174 209.016 53.9884 209.376 52.6937C210.742 51.488 211.995 50.8653 213.132 50.8258ZM209.271 60.3138L210.214 60.0766C211.6 59.7603 212.887 58.258 214.075 55.5698L214.15 54.3245C214.12 53.1484 213.74 52.5059 213.012 52.3972L212.384 52.412C211.017 52.5702 209.979 55.2041 209.271 60.3138ZM209.465 61.4701C210.343 60.9463 211.151 60.6053 211.89 60.4472C212.638 60.2891 213.391 59.9827 214.15 59.528C214.918 59.0635 215.726 58.4409 216.574 57.6601L216.783 58.0604C214.858 60.6795 212.419 61.816 209.465 61.4701Z" fill="black"/>
<path d="M220.27 61.055C219.482 61.7172 219.327 61.7271 219.806 61.0847C221.353 59.3946 222.749 57.7145 223.997 56.0442C225.244 54.364 226.371 53.0742 227.379 52.1748C228.386 51.2656 229.145 50.6825 229.653 50.4255C230.172 50.1586 230.526 50.0697 230.716 50.1586C230.906 50.2476 230.771 50.4601 230.312 50.7961C229.853 51.1223 229.04 51.8685 227.873 53.0347C226.705 54.2009 224.171 56.8744 220.27 61.055ZM225.089 49.2691C225.149 50.722 225.319 52.4713 225.598 54.5172C225.887 56.5532 226.271 58.011 226.75 58.8906C227.239 59.7702 227.813 60.1013 228.471 59.8838C229.14 59.6664 229.993 58.9202 231.03 57.6453C231.669 56.8645 232.048 56.5482 232.168 56.6965C232.297 56.8348 231.973 57.4624 231.195 58.5792C230.417 59.6961 229.668 60.4818 228.95 60.9364C228.242 61.3911 227.533 61.4899 226.825 61.2329C226.117 60.976 225.543 60.383 225.104 59.4539C224.665 58.515 224.351 57.2796 224.161 55.7477C223.972 54.2158 223.902 52.7876 223.952 51.4632C224.012 50.1389 224.391 49.4075 225.089 49.2691ZM223.922 56.2665H224.056L224.909 56.2962C223.044 58.4606 221.572 60.0272 220.495 60.9957C219.417 61.9544 218.594 62.4782 218.025 62.5672C218.714 62.0038 219.477 61.3021 220.315 60.462C221.143 59.6121 222.345 58.2136 223.922 56.2665Z" fill="black"/>
<path d="M236.912 58.9202L238.079 57.6156C238.408 57.4081 238.628 57.4031 238.737 57.6008C236.951 60.1408 235.455 61.5887 234.248 61.9445C233.25 62.2114 232.487 62.1372 231.958 61.7221C231.429 61.3169 231.105 60.6844 230.985 59.8245C230.856 58.9548 230.965 58.0455 231.315 57.0967C231.654 56.1381 232.197 55.1398 232.946 54.1021C233.704 53.0545 234.582 52.2786 235.58 51.7746C236.577 51.2606 237.341 51.1519 237.869 51.4484C238.408 51.7449 238.652 52.2341 238.603 52.9161C238.553 53.5882 238.248 54.2256 237.69 54.8285C237.131 55.4215 236.303 55.9849 235.205 56.5186C234.108 57.0424 233.405 57.4624 233.095 57.7787C232.796 58.0851 232.636 58.4162 232.617 58.772C232.607 59.1278 232.646 59.4687 232.736 59.7949C232.836 60.121 233.06 60.378 233.41 60.5658C233.759 60.7536 234.258 60.7289 234.906 60.4917C235.555 60.2446 236.223 59.7208 236.912 58.9202ZM232.826 56.8595C234.712 55.9009 235.939 55.0855 236.507 54.4134C237.086 53.7414 237.316 53.2126 237.196 52.8271C237.086 52.4318 236.697 52.3676 236.029 52.6344C235.36 52.9013 234.727 53.4449 234.128 54.2652C233.539 55.0756 233.105 55.9404 232.826 56.8595Z" fill="black"/>
<path d="M242.089 61.055C241.301 61.7172 241.147 61.7271 241.626 61.0847C243.172 59.3946 244.569 57.7145 245.816 56.0442C247.063 54.364 248.19 53.0742 249.198 52.1748C250.206 51.2656 250.964 50.6825 251.473 50.4255C251.991 50.1586 252.346 50.0697 252.535 50.1586C252.725 50.2476 252.59 50.4601 252.131 50.7961C251.672 51.1223 250.859 51.8685 249.692 53.0347C248.524 54.2009 245.99 56.8744 242.089 61.055ZM246.908 49.2691C246.968 50.722 247.138 52.4713 247.417 54.5172C247.706 56.5532 248.09 58.011 248.569 58.8906C249.058 59.7702 249.632 60.1013 250.29 59.8838C250.959 59.6664 251.812 58.9202 252.849 57.6453C253.488 56.8645 253.867 56.5482 253.987 56.6965C254.116 56.8348 253.792 57.4624 253.014 58.5792C252.236 59.6961 251.488 60.4818 250.769 60.9364C250.061 61.3911 249.353 61.4899 248.644 61.2329C247.936 60.976 247.362 60.383 246.923 59.4539C246.484 58.515 246.17 57.2796 245.98 55.7477C245.791 54.2158 245.721 52.7876 245.771 51.4632C245.831 50.1389 246.21 49.4075 246.908 49.2691ZM245.741 56.2665H245.876L246.729 56.2962C244.863 58.4606 243.391 60.0272 242.314 60.9957C241.236 61.9544 240.413 62.4782 239.845 62.5672C240.533 62.0038 241.296 61.3021 242.134 60.462C242.962 59.6121 244.165 58.2136 245.741 56.2665Z" fill="black"/>
<path d="M263.13 51.0481C263.699 50.8505 263.969 51.0383 263.939 51.6115C262.642 55.2782 261.923 57.5118 261.784 58.3124L261.634 59.2167C261.614 59.8987 261.814 60.2742 262.233 60.3434C263.41 59.7998 264.492 58.7621 265.48 57.2302C265.64 57.2302 265.839 57.1313 266.079 56.9337H266.363C265.535 58.8016 264.338 60.3088 262.771 61.4553C261.035 62.3053 260.088 61.7814 259.928 59.8838L260.227 58.1641C259.529 59.4193 258.626 60.4521 257.519 61.2626C256.671 61.8457 255.997 62.0928 255.498 62.0038C254.999 61.9248 254.67 61.5986 254.511 61.0254C254.351 60.4423 254.59 59.1722 255.229 57.2153L255.513 55.8514C255.713 55.0509 255.289 55.3622 254.241 56.7854L252.206 59.3353C251.627 59.3847 251.542 59.1475 251.951 58.6237C252.361 58.0999 252.715 57.6156 253.014 57.1709C253.313 56.7261 254.466 55.0064 256.471 52.0118C257.509 51.4682 258.092 51.4484 258.222 51.9525C257.583 54.1762 257.139 55.7032 256.89 56.5334C256.641 57.3537 256.421 58.3371 256.232 59.4836L256.321 60.0469L256.576 60.1507C257.294 60.0617 258.466 58.9598 260.093 56.8447L262.083 52.249L263.13 51.0481Z" fill="black"/>
<path d="M272.963 62.0779C271.197 63.7186 269.461 65.6014 267.755 67.7263C266.059 69.8512 265.081 71.7439 264.822 73.4043C264.562 75.0646 264.856 76.0184 265.704 76.2655C266.543 76.5224 267.525 75.9344 268.653 74.5013C269.79 73.0682 270.728 71.0668 271.466 68.4972C272.204 65.9275 272.703 63.7878 272.963 62.0779ZM275.058 59.0981C275.746 58.3371 276.589 57.3932 277.587 56.2665C277.746 56.2468 277.936 56.1282 278.155 55.9107L278.29 55.8811C277.532 57.3932 276.345 59.024 274.728 60.7733L274.639 61.2477C274.409 61.821 274.22 62.5474 274.07 63.427C273.621 66.5106 272.918 69.2137 271.96 71.5363C271.012 73.8688 269.925 75.544 268.697 76.562C267.48 77.5898 266.323 78.0148 265.226 77.8369C264.118 77.6689 263.53 76.8387 263.46 75.3463C263.39 73.8638 263.899 72.154 264.986 70.2169C266.064 68.2896 268.164 65.6014 271.286 62.1521C272.583 60.6597 273.312 59.2661 273.471 57.9714L273.426 57.6008C273.397 57.3438 273.237 57.3092 272.948 57.497L272.454 58.0604C272.125 58.5644 271.71 59.1179 271.212 59.7208C269.895 61.648 268.732 62.5079 267.725 62.3003C267.116 62.1718 266.827 61.5937 266.857 60.5658C267.475 58.095 267.939 56.395 268.249 55.466C268.219 55.2189 267.869 55.5797 267.201 56.5482C266.533 57.5069 265.485 58.6385 264.058 59.9431L263.594 59.617L264.822 58.0752C265.799 56.909 267.44 54.6704 269.745 51.3595C270.473 51.3002 270.733 51.8536 270.523 53.0199C269.865 55.1151 269.306 57.1165 268.847 59.024C268.558 60.2495 268.648 60.7832 269.117 60.6251C269.595 60.467 270.189 59.958 270.897 59.0981H270.927C271.167 58.8214 271.436 58.4952 271.735 58.1197V58.0752C273.362 55.5253 274.748 53.2274 275.896 51.1816C276.365 50.7764 276.784 50.8455 277.153 51.3891C276.574 53.2175 276.06 54.8681 275.611 56.3407L275.058 59.0981Z" fill="black"/>
<path d="M282.465 58.9202L283.633 57.6156C283.962 57.4081 284.181 57.4031 284.291 57.6008C282.505 60.1408 281.009 61.5887 279.802 61.9445C278.804 62.2114 278.041 62.1372 277.512 61.7221C276.983 61.3169 276.659 60.6844 276.539 59.8245C276.41 58.9548 276.519 58.0455 276.868 57.0967C277.208 56.1381 277.751 55.1398 278.5 54.1021C279.258 53.0545 280.136 52.2786 281.134 51.7746C282.131 51.2606 282.894 51.1519 283.423 51.4484C283.962 51.7449 284.206 52.2341 284.156 52.9161C284.107 53.5882 283.802 54.2256 283.244 54.8285C282.685 55.4215 281.857 55.9849 280.759 56.5186C279.662 57.0424 278.959 57.4624 278.649 57.7787C278.35 58.0851 278.19 58.4162 278.17 58.772C278.16 59.1278 278.2 59.4687 278.29 59.7949C278.39 60.121 278.614 60.378 278.964 60.5658C279.313 60.7536 279.812 60.7289 280.46 60.4917C281.109 60.2446 281.777 59.7208 282.465 58.9202ZM278.38 56.8595C280.266 55.9009 281.493 55.0855 282.061 54.4134C282.64 53.7414 282.869 53.2126 282.75 52.8271C282.64 52.4318 282.251 52.3676 281.582 52.6344C280.914 52.9013 280.281 53.4449 279.682 54.2652C279.093 55.0756 278.659 55.9404 278.38 56.8595ZM278.934 48.9726C280.081 48.4982 280.939 47.9942 281.508 47.4605C282.086 46.9169 282.5 46.5315 282.75 46.3041C282.999 46.0768 283.219 46.1164 283.408 46.4227C283.608 46.7192 283.922 47.1986 284.351 47.8608C284.78 48.523 285.219 48.9974 285.668 49.284C286.127 49.5607 286.311 49.7781 286.222 49.9363C286.132 50.0944 285.912 50.1191 285.563 50.0104C285.224 49.8918 284.83 49.6595 284.381 49.3136C283.942 48.9578 283.573 48.6267 283.274 48.3203C282.984 48.014 282.386 48.2067 281.478 48.8985C280.57 49.5805 279.966 49.9956 279.667 50.1438C279.378 50.2822 279.113 50.3613 278.874 50.381C278.644 50.3909 278.43 50.3168 278.23 50.1586C278.041 50.0005 277.981 49.8078 278.051 49.5805C278.121 49.3532 278.415 49.1505 278.934 48.9726Z" fill="black"/>
<path d="M286.102 61.9593L285.937 61.2774L286.925 57.0523L287.269 55.8218C287.608 54.6259 287.394 54.2306 286.626 54.6358C284.67 57.6304 283.333 59.0932 282.615 59.024C283.423 57.7688 284.95 55.6044 287.194 52.5306C287.923 52.0958 288.432 51.8783 288.721 51.8783C289.13 52.1551 289.349 52.6344 289.379 53.3164L289.319 54.532L289.2 55.466L288.93 56.6223L287.329 61.6035C287.09 62.0878 286.681 62.2064 286.102 61.9593ZM292.432 61.8556C291.704 61.816 291.315 61.4207 291.265 60.6696L291.355 59.5577C291.784 58.0554 292.118 56.82 292.357 55.8514C293.026 54.0033 292.986 53.2422 292.238 53.5684L291.459 54.1169C290.482 54.9669 289.26 56.7162 287.793 59.365L287.15 58.8461L289.305 55.7032C291.34 52.7876 292.851 51.3842 293.839 51.4929C294.617 51.6609 294.941 52.2589 294.812 53.2867L294.542 54.191C294.263 55.2486 293.864 56.7311 293.345 58.6385C292.996 59.7949 293.041 60.3138 293.48 60.1952L293.33 61.5739L292.432 61.8556ZM296.278 57.2302C296.438 57.2302 296.637 57.1313 296.877 56.9337H297.161C296.333 58.8016 295.136 60.3088 293.57 61.4553C293.34 61.564 293.126 61.653 292.926 61.7221L293.405 60.1803C294.413 59.6269 295.37 58.6435 296.278 57.2302Z" fill="black"/>
<path d="M308.4 61.2922C308.59 61.3911 308.814 61.4899 309.073 61.5887C309.662 61.816 310.385 61.7913 311.243 61.5146C312.111 61.228 313.094 60.6202 314.192 59.6911L316.227 57.4822L316.466 57.9714C314.521 61.1341 312.141 62.666 309.328 62.5672C307.951 62.4189 307.213 62.2904 307.113 62.1817C307.013 62.073 306.869 62.0779 306.679 62.1965C306.499 62.325 306.245 62.4387 305.916 62.5375C305.587 62.6462 305.292 62.6462 305.033 62.5375C304.783 62.4288 304.798 62.0582 305.078 61.4256C305.826 60.8228 306.499 59.9777 307.098 58.8906C307.697 57.8034 308.136 56.2072 308.415 54.1021C308.704 51.9969 308.979 50.2624 309.238 48.8985C309.507 47.5346 309.837 45.978 310.226 44.2286L310.63 42.7017L310.016 42.5238C308.649 42.1087 307.417 41.9011 306.32 41.9011C305.232 42.0494 304.404 42.3805 303.836 42.8944L303.521 42.9092C303.312 42.9191 303.202 42.8203 303.192 42.6127C303.442 41.8616 304.394 41.2142 306.051 40.6707L308.131 40.4483L310.301 40.7744C311.428 40.7052 312.191 40.3247 312.59 39.6329L313.398 39.6922C312.5 41.5305 311.852 43.3095 311.453 45.0292C311.064 46.7489 310.755 48.5872 310.525 50.5441C310.306 52.4911 310.126 53.8847 309.986 54.7247C309.847 55.5549 309.707 56.2715 309.567 56.8744C309.438 57.4674 309.517 57.7293 309.807 57.6601L309.956 57.6453C311.144 57.0226 312.076 56.0392 312.755 54.6951C313.433 53.351 313.922 51.9969 314.221 50.633C314.531 49.2691 315.03 47.5099 315.718 45.3554C316.416 43.2008 317.299 41.4168 318.367 40.0035C320.382 37.1472 322.727 35.8772 325.4 36.1935C326.837 36.8063 327.406 37.3498 327.106 37.8242C326.817 38.2986 326.199 38.2196 325.251 37.587C324.303 37.3301 323.365 37.3696 322.437 37.7057C321.51 38.0318 320.592 38.8126 319.684 40.048C318.786 41.2834 318.097 42.4151 317.619 43.4429C317.14 44.4708 316.666 45.7507 316.197 47.2826C315.738 48.8046 315.309 50.3514 314.91 51.9228C314.511 53.4943 313.817 55.0657 312.83 56.6372C311.842 58.1987 310.365 59.7504 308.4 61.2922Z" fill="black"/>
<path d="M317.574 56.6372L316.436 58.0455C315.479 59.1624 314.935 59.5033 314.805 59.0685C315.693 57.9517 316.446 56.904 317.065 55.9256L317.708 55.3326C318.267 55.1744 318.222 55.6093 317.574 56.6372ZM316.781 56.4C317.708 54.9965 318.746 53.4498 319.893 51.7597L320.252 51.567C320.642 51.5769 320.821 51.8783 320.791 52.4713C319.983 53.9835 319.384 55.9305 318.995 58.3124L318.771 59.5725L318.741 60.1952C318.761 60.4225 318.916 60.5559 319.205 60.5954C319.644 60.5559 320.432 59.9333 321.569 58.7275L322.767 57.3191L322.871 57.7342C321.934 59.6318 320.801 61.0007 319.474 61.8407C318.936 62.0681 318.422 62.1125 317.933 61.9742C317.175 61.7073 316.9 61.0204 317.11 59.9135C317.15 59.3205 317.424 58.0208 317.933 56.0145L316.691 56.4H316.781ZM322.108 47.164L322.826 47.6087C322.876 48.182 322.143 48.7947 320.627 49.447C320.407 49.3581 320.232 49.3186 320.103 49.3284L320.073 48.8244C320.143 48.5279 320.821 47.9744 322.108 47.164Z" fill="black"/>
<path d="M328.349 58.9202L329.516 57.6156C329.845 57.4081 330.065 57.4031 330.174 57.6008C328.388 60.1408 326.892 61.5887 325.685 61.9445C324.687 62.2114 323.924 62.1372 323.395 61.7221C322.866 61.3169 322.542 60.6844 322.422 59.8245C322.293 58.9548 322.402 58.0455 322.752 57.0967C323.091 56.1381 323.635 55.1398 324.383 54.1021C325.141 53.0545 326.019 52.2786 327.017 51.7746C328.014 51.2606 328.778 51.1519 329.306 51.4484C329.845 51.7449 330.09 52.2341 330.04 52.9161C329.99 53.5882 329.685 54.2256 329.127 54.8285C328.568 55.4215 327.74 55.9849 326.643 56.5186C325.545 57.0424 324.842 57.4624 324.532 57.7787C324.233 58.0851 324.074 58.4162 324.054 58.772C324.044 59.1278 324.084 59.4687 324.173 59.7949C324.273 60.121 324.498 60.378 324.847 60.5658C325.196 60.7536 325.695 60.7289 326.343 60.4917C326.992 60.2446 327.66 59.7208 328.349 58.9202ZM324.263 56.8595C326.149 55.9009 327.376 55.0855 327.945 54.4134C328.523 53.7414 328.753 53.2126 328.633 52.8271C328.523 52.4318 328.134 52.3676 327.466 52.6344C326.797 52.9013 326.164 53.4449 325.565 54.2652C324.976 55.0756 324.542 55.9404 324.263 56.8595ZM324.817 48.9726C325.964 48.4982 326.822 47.9942 327.391 47.4605C327.969 46.9169 328.384 46.5315 328.633 46.3041C328.882 46.0768 329.102 46.1164 329.291 46.4227C329.491 46.7192 329.805 47.1986 330.234 47.8608C330.663 48.523 331.102 48.9974 331.551 49.284C332.01 49.5607 332.195 49.7781 332.105 49.9363C332.015 50.0944 331.796 50.1191 331.446 50.0104C331.107 49.8918 330.713 49.6595 330.264 49.3136C329.825 48.9578 329.456 48.6267 329.157 48.3203C328.867 48.014 328.269 48.2067 327.361 48.8985C326.453 49.5805 325.849 49.9956 325.55 50.1438C325.261 50.2822 324.996 50.3613 324.757 50.381C324.527 50.3909 324.313 50.3168 324.113 50.1586C323.924 50.0005 323.864 49.8078 323.934 49.5805C324.004 49.3532 324.298 49.1505 324.817 48.9726ZM324.996 64.0497C325.346 64.1584 325.51 64.4351 325.49 64.8799C325.41 65.9868 325.076 66.5403 324.488 66.5403C324.188 66.5403 323.909 66.2635 323.65 65.7101C324.049 64.6031 324.498 64.0497 324.996 64.0497Z" fill="black"/>
<path d="M331.85 53.3608L331.506 53.0792H330.668L329.86 52.9754C329.112 52.7678 329.062 52.4466 329.71 52.0118C330.778 52.0118 331.516 51.9525 331.925 51.8339C332.344 51.7054 332.738 50.9295 333.108 49.5063C333.656 47.3024 334.105 45.7309 334.454 44.792L334.978 43.9025C335.417 43.6258 335.706 43.69 335.846 44.0952C335.986 44.5004 335.851 45.1725 335.442 46.1114L334.574 48.8392C334.295 49.7386 334.195 50.4551 334.275 50.9888C334.564 51.2359 334.883 51.4435 335.233 51.6115C337.467 51.74 338.58 51.7301 338.57 51.5818L338.974 51.6856L338.989 51.819C338.959 52.0859 338.251 52.3182 336.864 52.5158L335.756 52.8123L334.799 52.9457C334.1 53.0545 333.561 53.8698 333.182 55.3919C332.644 57.2895 332.404 58.6534 332.464 59.4836C332.524 60.3138 333.008 60.4225 333.916 59.8097C334.554 59.4836 335.662 58.347 337.238 56.4H337.373L337.447 56.9633C335.951 59.1377 334.838 60.5065 334.11 61.0698C333.571 61.6233 332.938 61.9149 332.21 61.9445C331.012 61.8951 330.538 61.0007 330.788 59.2612C330.888 58.3915 331.142 57.1709 331.551 55.5994C330.783 56.9831 330.04 58.0801 329.321 58.8906C328.603 59.6911 328.174 60.037 328.034 59.9283C327.885 59.8196 327.855 59.701 327.945 59.5725C328.034 59.4342 328.204 59.2019 328.453 58.8757C328.703 58.5496 329.107 57.9813 329.666 57.1709C330.214 56.3604 330.943 55.0904 331.85 53.3608Z" fill="black"/>
<path d="M221.061 1.51217C222.458 1.58136 223.256 2.17436 223.456 3.29117C223.785 5.45562 223.605 8.37615 222.917 12.0528C221.979 15.9073 220.842 18.7289 219.505 20.5178C218.986 21.7335 218.133 22.6329 216.946 23.216C215.759 23.7991 214.626 23.6459 213.549 22.7564C212.461 21.8669 212.132 19.6629 212.561 16.1445C214.397 7.89187 217.23 3.01444 221.061 1.51217ZM214.761 20.0138C215.15 21.6445 215.714 22.2869 216.452 21.941C217.19 21.5852 217.988 20.7007 218.846 19.2873C219.974 17.6665 220.812 15.4922 221.361 12.7643C221.859 10.8272 222.149 9.14705 222.229 7.72385C222.318 6.30065 222.313 5.27772 222.214 4.65507C222.114 4.02254 221.924 3.5432 221.645 3.21705C221.366 2.8909 220.887 2.76242 220.208 2.8316C218.582 3.5432 217.155 6.10298 215.928 10.511C214.861 13.9504 214.472 17.118 214.761 20.0138Z" fill="black"/>
<path d="M236.416 1.42322L236.58 1.4084C237.538 1.36887 238.042 1.90751 238.092 3.02432C237.493 6.30559 235.942 9.19647 233.437 11.6969C233.537 12.3295 234.031 14.0245 234.919 16.7819C234.979 18.7092 234.595 20.2312 233.767 21.348C232.939 22.455 231.936 23.1814 230.759 23.5273C229.591 23.8732 228.439 23.7991 227.302 23.3049C226.154 22.8009 225.705 21.7681 225.955 20.2065C226.194 18.6449 227.501 16.7029 229.876 14.3803C230.754 13.5501 231.287 12.8681 231.477 12.3344C230.938 11.2374 230.499 9.76476 230.16 7.91657C230.16 4.79344 231.612 2.70312 234.515 1.6456L235.143 1.77902C235.533 1.56159 235.957 1.44299 236.416 1.42322ZM233.333 10.1996C235.548 7.71891 236.615 5.5594 236.535 3.7211C236.515 3.14787 236.286 2.84148 235.847 2.80195C234.949 2.84148 234.166 3.30106 233.497 4.18067C232.829 5.05041 232.465 5.91026 232.405 6.76023C232.345 7.60031 232.35 8.27732 232.42 8.79125C232.5 9.30518 232.569 9.72028 232.629 10.0366C232.689 10.3429 232.924 10.3973 233.333 10.1996ZM227.945 20.592C228.045 21.6692 228.469 22.2326 229.217 22.282C230.405 22.5686 231.472 21.9262 232.42 20.3547C232.909 19.2775 233.123 18.3237 233.063 17.4935C232.634 14.7756 232.021 13.7972 231.223 14.5582C229.177 16.6534 228.085 18.6647 227.945 20.592Z" fill="black"/>
<path d="M249.959 3.52837C249.879 4.36846 249.256 6.45878 248.088 9.79935L244.482 18.724C243.175 22.964 242.232 25.1482 241.653 25.2767C241.075 25.4051 241.269 24.0412 242.237 21.1849C243.215 18.3287 244.093 16.016 244.871 14.2469C248.492 3.6025 250.458 -1.07726 250.767 0.207575C250.817 1.60112 250.548 2.70806 249.959 3.52837Z" fill="black"/>
<path d="M257.397 1.51217C258.793 1.58136 259.592 2.17436 259.791 3.29117C260.12 5.45562 259.941 8.37615 259.252 12.0528C258.315 15.9073 257.177 18.7289 255.84 20.5178C255.322 21.7335 254.468 22.6329 253.281 23.216C252.094 23.7991 250.962 23.6459 249.884 22.7564C248.797 21.8669 248.467 19.6629 248.896 16.1445C250.732 7.89187 253.566 3.01444 257.397 1.51217ZM251.096 20.0138C251.485 21.6445 252.049 22.2869 252.787 21.941C253.526 21.5852 254.324 20.7007 255.182 19.2873C256.309 17.6665 257.147 15.4922 257.696 12.7643C258.195 10.8272 258.484 9.14705 258.564 7.72385C258.654 6.30065 258.649 5.27772 258.549 4.65507C258.449 4.02254 258.26 3.5432 257.98 3.21705C257.701 2.8909 257.222 2.76242 256.544 2.8316C254.917 3.5432 253.491 6.10298 252.264 10.511C251.196 13.9504 250.807 17.118 251.096 20.0138Z" fill="black"/>
<path d="M272.751 1.42322L272.916 1.4084C273.873 1.36887 274.377 1.90751 274.427 3.02432C273.828 6.30559 272.277 9.19647 269.773 11.6969C269.873 12.3295 270.366 14.0245 271.254 16.7819C271.314 18.7092 270.93 20.2312 270.102 21.348C269.274 22.455 268.271 23.1814 267.094 23.5273C265.927 23.8732 264.774 23.7991 263.637 23.3049C262.49 22.8009 262.041 21.7681 262.29 20.2065C262.53 18.6449 263.837 16.7029 266.211 14.3803C267.089 13.5501 267.623 12.8681 267.812 12.3344C267.274 11.2374 266.835 9.76476 266.495 7.91657C266.495 4.79344 267.947 2.70312 270.85 1.6456L271.479 1.77902C271.868 1.56159 272.292 1.44299 272.751 1.42322ZM269.668 10.1996C271.883 7.71891 272.95 5.5594 272.871 3.7211C272.851 3.14787 272.621 2.84148 272.182 2.80195C271.284 2.84148 270.501 3.30106 269.833 4.18067C269.164 5.05041 268.8 5.91026 268.74 6.76023C268.68 7.60031 268.685 8.27732 268.755 8.79125C268.835 9.30518 268.905 9.72028 268.965 10.0366C269.025 10.3429 269.259 10.3973 269.668 10.1996ZM264.281 20.592C264.38 21.6692 264.804 22.2326 265.553 22.282C266.74 22.5686 267.807 21.9262 268.755 20.3547C269.244 19.2775 269.459 18.3237 269.399 17.4935C268.97 14.7756 268.356 13.7972 267.558 14.5582C265.513 16.6534 264.42 18.6647 264.281 20.592Z" fill="black"/>
<path d="M286.294 3.52837C286.215 4.36846 285.591 6.45878 284.424 9.79935L280.817 18.724C279.51 22.964 278.567 25.1482 277.989 25.2767C277.41 25.4051 277.605 24.0412 278.572 21.1849C279.55 18.3287 280.428 16.016 281.206 14.2469C284.828 3.6025 286.793 -1.07726 287.102 0.207575C287.152 1.60112 286.883 2.70806 286.294 3.52837Z" fill="black"/>
<path d="M292.176 19.999C293.293 21.6 294.64 22.455 296.216 22.5637C297.793 22.6625 299.234 21.7434 300.541 19.8062C301.309 19.8458 301.105 20.503 299.928 21.778C298.75 23.043 297.578 23.7003 296.411 23.7497C295.254 23.7991 294.211 23.6261 293.283 23.2308C292.365 22.8256 291.502 22.1189 290.694 21.1108C288.569 23.0282 286.863 23.8535 285.576 23.5866C284.279 23.3197 283.985 22.3166 284.693 20.5771C285.391 18.8377 286.324 17.3552 287.492 16.1296C288.669 14.8942 289.487 14.6274 289.946 15.3291C290.405 16.0308 290.929 17.0834 291.517 18.4868C293.213 16.6485 294.71 14.6521 296.007 12.4975C297.304 10.333 297.977 8.47004 298.027 6.90847C298.087 5.33703 297.548 4.36846 296.411 4.00277C295.273 3.63709 294.201 3.94842 293.193 4.93675C292.186 5.92508 291.692 6.83435 291.712 7.66455C291.632 8.4651 291.368 8.81102 290.919 8.7023C290.48 8.5837 290.465 7.90669 290.874 6.67128C291.283 5.42597 292.121 4.35363 293.388 3.45425C294.665 2.55487 296.037 2.28307 297.503 2.63887C298.98 2.99467 299.773 4.05713 299.883 5.82625C300.002 7.58548 299.409 9.58686 298.102 11.8304C296.795 14.064 294.82 16.7869 292.176 19.999ZM289.916 19.6432C289.786 19.3269 289.497 18.7438 289.048 17.8938C288.599 17.034 288.035 17.1081 287.357 18.1162C286.688 19.1243 286.264 20.2707 286.085 21.5556C285.905 22.8404 286.529 22.9244 287.956 21.8076C289.392 20.6809 290.046 19.9594 289.916 19.6432Z" fill="black"/>
<path d="M312.079 1.51217C313.476 1.58136 314.274 2.17436 314.474 3.29117C314.803 5.45562 314.623 8.37615 313.935 12.0528C312.997 15.9073 311.86 18.7289 310.523 20.5178C310.004 21.7335 309.151 22.6329 307.964 23.216C306.777 23.7991 305.644 23.6459 304.567 22.7564C303.479 21.8669 303.15 19.6629 303.579 16.1445C305.415 7.89187 308.248 3.01444 312.079 1.51217ZM305.779 20.0138C306.168 21.6445 306.732 22.2869 307.47 21.941C308.208 21.5852 309.006 20.7007 309.864 19.2873C310.992 17.6665 311.83 15.4922 312.379 12.7643C312.877 10.8272 313.167 9.14705 313.247 7.72385C313.336 6.30065 313.331 5.27772 313.232 4.65507C313.132 4.02254 312.942 3.5432 312.663 3.21705C312.384 2.8909 311.905 2.76242 311.226 2.8316C309.6 3.5432 308.173 6.10298 306.946 10.511C305.879 13.9504 305.49 17.118 305.779 20.0138Z" fill="black"/>
<path d="M328.122 2.03105C326.965 4.74897 326.186 6.83435 325.787 8.2872C325.388 9.74005 325.034 11.0545 324.725 12.2306C324.426 13.3969 324.136 14.8893 323.857 16.7078C323.588 18.5263 323.363 20.2114 323.183 21.7631C323.004 23.3049 322.759 24.061 322.45 24.0314C322.141 24.0017 321.906 23.8584 321.747 23.6014C321.587 23.3445 321.527 22.7366 321.567 21.778C321.607 20.8193 321.677 19.999 321.777 19.317C321.877 18.6252 322.071 17.6566 322.36 16.4113C322.66 15.1561 322.989 13.7477 323.348 12.1862L323.872 10.333L322.854 11.356C321.378 13.1943 320.345 14.3951 319.756 14.9585C319.178 15.5119 318.654 15.9171 318.185 16.1741C317.706 16.4212 317.532 16.3421 317.661 15.9369C317.791 15.5317 318.06 15.1265 318.469 14.7213C318.869 14.316 319.417 13.7181 320.116 12.9274C321.832 10.9804 323.607 7.88692 325.443 3.64697C325.792 2.83654 326.206 2.33743 326.685 2.14965C327.164 1.95198 327.643 1.91245 328.122 2.03105Z" fill="black"/>
<path d="M333.569 10.3479C335.176 8.27238 336.458 5.99921 337.415 3.52837C337.665 2.63887 338.338 2.0607 339.436 1.79385C340.344 2.42638 338.732 5.54952 334.602 11.1632C333.724 12.4283 333.175 13.2635 332.956 13.6687C332.916 14.1628 333.305 14.3062 334.123 14.0986C335.161 13.8713 336.024 13.5995 336.712 13.2832C337.41 12.9571 337.994 12.374 338.463 11.5339C339.441 8.86538 340.224 6.73552 340.812 5.1443C341.471 3.26647 342.279 2.10023 343.237 1.6456C344.195 1.19097 343.99 2.20401 342.623 4.68472L340.842 8.43545L340.319 10.1255C339.56 12.033 339.78 12.6556 340.977 11.9935L342.339 11.3856L344 10.4517L343.761 11.4301C342.813 12.1812 341.98 12.7298 341.261 13.0757C340.443 13.4216 339.83 13.7972 339.421 14.2024C338.942 16.2186 338.642 17.7159 338.523 18.6944C338.413 19.6728 338.323 20.5228 338.253 21.2443C338.184 21.9657 337.949 22.7712 337.55 23.6607C336.582 24.1549 336.138 23.8732 336.218 22.8157C336.298 21.7582 336.607 19.8902 337.146 17.2119C337.715 15.1759 337.72 14.2963 337.161 14.573C336.612 14.8497 335.54 15.2204 333.943 15.6849C332.357 16.1494 331.484 16.436 331.325 16.5447C331.165 16.6534 330.935 16.7424 330.636 16.8116C330.337 16.8709 330.087 16.777 329.888 16.5299C329.678 16.2828 329.604 16.0506 329.663 15.8331C329.713 15.6157 330.137 14.9733 330.935 13.9059C331.724 12.8286 332.602 11.6426 333.569 10.3479Z" fill="black"/>
</svg>
