<svg width="236" height="81" viewBox="0 0 236 81" fill="none" xmlns="http://www.w3.org/2000/svg">
<path d="M14.0821 31.8136C15.4751 32.1789 16.5241 32.1582 17.2289 31.7513C17.9337 31.3362 18.1576 30.9045 17.9006 30.4562C17.6435 30.0078 17.1294 29.8833 16.3582 30.0826C15.5954 30.2735 14.8366 30.8505 14.0821 31.8136ZM9.25605 37.0566C9.95259 35.4708 10.8108 34.0262 11.8307 32.7227C11.242 32.2744 10.475 31.8842 9.52969 31.5521C8.59268 31.2117 7.65568 31.2283 6.71867 31.6019C5.54119 32.0419 4.94831 32.8224 4.94002 33.9432C4.93172 34.6323 5.16805 35.2384 5.64899 35.7614L6.58185 36.4837L7.80079 36.9943L9.25605 37.0566ZM13.1243 33.1461C13.0497 33.2707 12.9709 33.4035 12.888 33.5447C12.1251 34.7319 11.4866 35.8652 10.9725 36.9445C12.2661 36.7868 13.1409 36.4837 13.597 36.0354C14.4179 35.23 14.9776 35.0183 15.2761 35.4002C15.5746 35.7822 15.0978 36.326 13.8457 37.0317C12.9585 37.5298 11.8473 37.8453 10.5123 37.9781C10.0562 39.0326 9.71626 40.087 9.49238 41.1414C9.13582 42.9098 9.06533 44.1178 9.28093 44.7654C9.58774 45.6371 10.0562 46.1436 10.6864 46.2847C11.3166 46.4258 11.9593 46.3262 12.6144 45.9858C13.2694 45.6454 13.8872 45.0352 14.4676 44.1551C14.9071 43.4826 15.2015 42.7811 15.3507 42.0505L15.4378 41.2036C15.4378 40.2738 15.2139 39.7549 14.7662 39.6469C13.8623 39.3148 12.7636 40.3236 11.47 42.6732C11.0306 44.0513 10.7072 44.1468 10.4999 42.9596C11.213 40.7013 12.3573 39.1405 13.9328 38.277L14.8283 37.9283L15.3756 37.9408L15.9229 38.2023C16.3624 38.6672 16.6153 39.1654 16.6816 39.6967C16.8143 40.7013 16.6733 41.735 16.2587 42.7977C15.4627 44.8235 14.136 46.3013 12.2785 47.2312C12.1044 47.2893 11.9303 47.3391 11.7561 47.3806C12.3034 47.4553 12.9295 47.3723 13.6343 47.1315C14.3474 46.8825 15.0854 46.4507 15.8483 45.8364L17.5399 43.9808L17.7389 44.3918C16.1219 47.0485 14.024 48.3603 11.4452 48.3271L10.5994 48.1901L9.15655 47.5051C9.04875 47.4885 8.93681 47.4678 8.82072 47.4429C7.88371 48.2814 7.04621 48.875 6.30821 49.2237C5.57851 49.5807 4.80734 49.7717 3.99472 49.7966C3.19038 49.8298 2.43166 49.6596 1.71854 49.286C1.00542 48.9124 0.516183 48.4184 0.250836 47.804C-0.0228033 47.198 -0.0725558 46.6666 0.101578 46.21C0.26742 45.745 0.536913 45.4752 0.910058 45.4005C1.2832 45.3175 1.56513 45.442 1.75585 45.7741C1.93828 46.1062 1.88438 46.6209 1.59416 47.3183C2.04193 48.1901 2.78407 48.6592 3.82058 48.7256C4.86539 48.8003 5.81483 48.6177 6.66892 48.1776C7.523 47.7459 8.09516 47.2934 8.38538 46.8202C7.95419 46.4383 7.69714 45.4918 7.61422 43.9808C7.70543 42.1127 8.04126 40.336 8.62171 38.6506C8.69634 38.4514 8.77096 38.2521 8.84559 38.0529H8.72121C7.44423 37.9864 6.52381 37.7332 5.95994 37.2932C5.34633 36.9528 4.79905 36.4422 4.31811 35.7614C3.64645 34.8149 3.58426 33.7688 4.13154 32.6231C4.68711 31.4691 5.78996 30.7385 7.44008 30.4313C8.67561 30.232 9.84064 30.2569 10.9352 30.506C11.8142 30.672 12.5522 30.9211 13.1492 31.2532C14.0613 30.3981 14.8698 29.8127 15.5746 29.4972C16.2795 29.1818 17.0092 29.1402 17.7637 29.3727C18.5183 29.6052 18.879 30.0867 18.8459 30.8173C18.8127 31.5396 18.3691 32.1416 17.515 32.6231C16.6609 33.1046 15.8192 33.3288 14.99 33.2956C14.1691 33.2624 13.5472 33.2126 13.1243 33.1461Z" fill="black"/>
<path d="M24.5923 32.6106C25.1561 30.9668 25.2474 29.9373 24.8659 29.5222C24.4928 29.107 23.9331 29.4433 23.1868 30.5309C22.4488 31.6185 21.7605 33.2624 21.122 35.4625C20.4918 37.6627 20.1394 39.0284 20.0648 39.5598C19.9985 40.0911 20.1767 40.1077 20.5996 39.6096C21.0308 39.1031 21.6652 38.2231 22.5027 36.9694C23.3402 35.7074 24.0367 34.2545 24.5923 32.6106ZM22.739 42.8724C23.3277 41.1455 23.3112 40.4191 22.6892 40.693C22.2829 40.8425 21.7066 41.4485 20.9603 42.5113C20.2223 43.5657 19.5673 44.8069 18.9951 46.2349L18.5225 47.281C17.6269 48.1195 17.1874 47.9742 17.204 46.8451L17.4404 45.662L17.7016 44.454C16.5904 45.8571 15.7736 46.6583 15.2512 46.8576C14.9942 46.733 15.131 46.4217 15.6617 45.9235L16.9553 44.1551C17.3201 43.5989 17.7389 42.8849 18.2115 42.0131C18.311 41.5316 18.4395 40.9338 18.5971 40.2198C19.0034 38.5427 19.3931 37.0234 19.7663 35.6618C20.1394 34.3002 20.6701 32.8805 21.3584 31.4026C22.0466 29.9248 22.7722 28.941 23.535 28.4511C24.2979 27.953 24.9157 27.8617 25.3883 28.1772C25.861 28.4844 26.0849 28.9783 26.06 29.6591C26.0351 30.3399 25.9273 31.0539 25.7366 31.8012C25.5542 32.5401 25.3013 33.2541 24.9779 33.9432C24.6545 34.6323 24.2855 35.3587 23.8709 36.1226C23.4646 36.8864 23.108 37.5091 22.8012 37.9906C22.5193 38.4306 21.5657 39.7216 19.9404 41.8637C19.8575 41.9799 19.7704 42.1003 19.6792 42.2248C19.4719 42.9305 19.3102 43.5366 19.1941 44.043L20.2514 42.4863C21.943 40.0371 23.1992 38.8582 24.0201 38.9495C24.584 39.0907 24.812 39.593 24.7042 40.4564L24.4803 41.2161C24.2482 42.1044 23.9165 43.3498 23.4853 44.9522C23.278 45.6496 23.2738 46.0564 23.4729 46.1726C23.6802 46.2888 23.8875 46.2764 24.0948 46.1353C24.3021 45.9941 24.6006 45.7118 24.9903 45.2884C25.3883 44.865 25.8112 44.3087 26.259 43.6196C26.5741 43.1879 26.8021 43.1049 26.9431 43.3706C26.1388 44.8982 25.4091 46.0024 24.754 46.6832C24.0989 47.3557 23.5309 47.6961 23.05 47.7044C22.5773 47.7127 22.2581 47.584 22.0922 47.3183C21.9347 47.0527 21.8683 46.7372 21.8932 46.3719C21.9264 45.9983 22.0342 45.4835 22.2166 44.8276C22.399 44.1634 22.5732 43.5117 22.739 42.8724Z" fill="black"/>
<path d="M32.3288 38.9246L33.2244 38.8748L33.498 39.4352C33.5312 39.8337 33.2948 40.6059 32.789 41.7516C32.4325 42.889 32.192 43.6445 32.0676 44.0181L31.8935 45.1763C31.7442 46.0315 31.8645 46.4217 32.2542 46.347L32.7268 46.0854C33.0585 45.8198 33.7882 45.0725 34.9159 43.8438C35.0984 43.8521 35.2145 43.9891 35.2642 44.2548C33.8628 46.4383 32.7517 47.5135 31.9308 47.4802C30.9274 47.6961 30.4548 47.1523 30.5128 45.8488L30.9357 43.6819C29.6505 45.3092 28.502 46.4424 27.4904 47.0817C27.0509 47.4055 26.4663 47.5342 25.7366 47.4678L25.3883 47.1066L25.2764 46.6708C25.2266 46.0315 25.293 45.3922 25.4754 44.7529C25.6744 44.1966 25.9729 43.5615 26.3709 42.8475C27.167 41.5689 28.2035 40.5353 29.4805 39.7466C30.7657 38.9495 31.7152 38.6755 32.3288 38.9246ZM27.6521 45.5873C28.5227 44.9646 29.1985 44.3502 29.6795 43.7442C30.2516 43.1713 30.7823 42.258 31.2716 41.0044C30.8735 40.3817 30.2931 40.3111 29.5302 40.7927C29.0907 41.0334 28.5849 41.5565 28.0128 42.3618C27.3743 43.2253 26.9514 44.0098 26.7441 44.7155C26.5368 45.8115 26.8394 46.102 27.6521 45.5873ZM29.4432 34.3168C29.667 33.8436 30.0609 33.7979 30.6248 34.1798C31.1886 34.5534 31.9681 34.9146 32.9632 35.2633L35.6498 36.0478C35.7327 36.2222 35.683 36.3343 35.5005 36.3841C35.3181 36.4339 35.0528 36.4464 34.7045 36.4214C34.3562 36.3965 34.0287 36.3924 33.7219 36.409L33.7468 36.3343C33.3073 36.3343 32.818 36.2429 32.2791 36.0603C30.8694 35.8278 29.9863 35.421 29.6297 34.8398L29.4432 34.3168Z" fill="black"/>
<path d="M36.6448 47.7418L36.508 47.1689L37.3289 43.6196L37.615 42.586C37.897 41.5814 37.7187 41.2493 37.0802 41.5897C35.4549 44.1053 34.3438 45.3341 33.7468 45.276C34.4184 44.2215 35.6871 42.4033 37.5528 39.8213C38.1582 39.456 38.5811 39.2733 38.8215 39.2733C39.1615 39.5058 39.3439 39.9085 39.3688 40.4813L39.319 41.5025L39.2195 42.2871L38.9957 43.2585L37.6648 47.4429C37.4658 47.8497 37.1258 47.9493 36.6448 47.7418ZM41.9062 47.6546C41.3009 47.6214 40.9775 47.2893 40.936 46.6583L41.0106 45.7243C41.3672 44.4623 41.645 43.4245 41.844 42.6109C42.3996 41.0583 42.3664 40.4191 41.7445 40.693L41.0977 41.1538C40.2851 41.8678 39.2693 43.3373 38.0504 45.5624L37.5155 45.1265L39.3066 42.4863C40.9982 40.0371 42.2544 38.8582 43.0754 38.9495C43.7221 39.0907 43.9916 39.593 43.8838 40.4564L43.66 41.2161C43.4278 42.1044 43.0961 43.3498 42.6649 44.9522C42.3747 45.9235 42.412 46.3594 42.7769 46.2598L42.6525 47.418L41.9062 47.6546ZM45.1028 43.7691C45.2355 43.7691 45.4013 43.686 45.6003 43.52H45.8366C45.1484 45.0892 44.1533 46.3553 42.8515 47.3183C42.6608 47.4097 42.4825 47.4844 42.3166 47.5425L42.7147 46.2473C43.5522 45.7824 44.3482 44.9563 45.1028 43.7691Z" fill="black"/>
<path d="M52.1303 32.6106C52.6942 30.9668 52.7854 29.9373 52.404 29.5222C52.0308 29.107 51.4711 29.4433 50.7248 30.5309C49.9868 31.6185 49.2986 33.2624 48.6601 35.4625C48.0299 37.6627 47.6775 39.0284 47.6029 39.5598C47.5365 40.0911 47.7148 40.1077 48.1377 39.6096C48.5689 39.1031 49.2032 38.2231 50.0407 36.9694C50.8782 35.7074 51.5748 34.2545 52.1303 32.6106ZM50.2771 42.8724C50.8658 41.1455 50.8492 40.4191 50.2273 40.693C49.821 40.8425 49.2447 41.4485 48.4984 42.5113C47.7604 43.5657 47.1053 44.8069 46.5332 46.2349L46.0605 47.281C45.165 48.1195 44.7255 47.9742 44.7421 46.8451L44.9784 45.662L45.2396 44.454C44.1285 45.8571 43.3117 46.6583 42.7893 46.8576C42.5322 46.733 42.6691 46.4217 43.1997 45.9235L44.4933 44.1551C44.8582 43.5989 45.2769 42.8849 45.7496 42.0131C45.8491 41.5316 45.9776 40.9338 46.1352 40.2198C46.5415 38.5427 46.9312 37.0234 47.3043 35.6618C47.6775 34.3002 48.2082 32.8805 48.8964 31.4026C49.5847 29.9248 50.3102 28.941 51.0731 28.4511C51.836 27.953 52.4537 27.8617 52.9264 28.1772C53.399 28.4844 53.6229 28.9783 53.598 29.6591C53.5732 30.3399 53.4654 31.0539 53.2746 31.8012C53.0922 32.5401 52.8393 33.2541 52.5159 33.9432C52.1925 34.6323 51.8235 35.3587 51.4089 36.1226C51.0026 36.8864 50.646 37.5091 50.3392 37.9906C50.0573 38.4306 49.1037 39.7216 47.4785 41.8637C47.3955 41.9799 47.3085 42.1003 47.2173 42.2248C47.01 42.9305 46.8483 43.5366 46.7322 44.043L47.7894 42.4863C49.481 40.0371 50.7373 38.8582 51.5582 38.9495C52.122 39.0907 52.3501 39.593 52.2423 40.4564L52.0184 41.2161C51.7862 42.1044 51.4545 43.3498 51.0233 44.9522C50.816 45.6496 50.8119 46.0564 51.0109 46.1726C51.2182 46.2888 51.4255 46.2764 51.6328 46.1353C51.8401 45.9941 52.1386 45.7118 52.5284 45.2884C52.9264 44.865 53.3493 44.3087 53.797 43.6196C54.1121 43.1879 54.3402 43.1049 54.4811 43.3706C53.6768 44.8982 52.9471 46.0024 52.292 46.6832C51.637 47.3557 51.0689 47.6961 50.588 47.7044C50.1154 47.7127 49.7961 47.584 49.6303 47.3183C49.4727 47.0527 49.4064 46.7372 49.4313 46.3719C49.4644 45.9983 49.5722 45.4835 49.7547 44.8276C49.9371 44.1634 50.1112 43.5117 50.2771 42.8724Z" fill="black"/>
<path d="M60.7873 45.1763L60.8992 46.1103C61.2641 46.7662 61.9067 46.7911 62.8271 46.1851C63.4656 45.6952 64.2907 44.7238 65.3023 43.2709L65.4267 43.2585C65.5262 43.2668 65.5677 43.3498 65.5511 43.5075C64.8877 45.2095 63.8056 46.5421 62.3047 47.5051L61.2972 47.8414C60.2359 47.8912 59.6098 47.1731 59.4191 45.6869L59.3818 45.662L59.4813 43.6196C59.5974 43.08 59.813 42.121 60.1281 40.7428L61.1231 42.6109C60.8661 43.5906 60.7541 44.4457 60.7873 45.1763ZM60.75 42.3369C59.8876 43.4826 59.4481 44.1302 59.4315 44.2797C58.254 45.7907 57.3917 46.65 56.8444 46.8576C56.5873 46.733 56.7242 46.4217 57.2549 45.9235L58.5484 44.1551C59.0294 43.2668 59.6057 42.3078 60.2773 41.2784L60.75 42.3369ZM66.4591 29.5222C66.0859 29.107 65.5262 29.4433 64.7799 30.5309C64.0419 31.6185 63.3537 33.2624 62.7152 35.4625C62.085 37.6627 61.7326 39.0284 61.658 39.5598C61.5916 40.0911 61.7699 40.1077 62.1928 39.6096C62.624 39.1031 63.2583 38.2231 64.0958 36.9694C64.9333 35.7074 65.6299 34.2545 66.1854 32.6106C66.7493 30.9668 66.8405 29.9373 66.4591 29.5222ZM59.8047 42.0131C59.9042 41.5316 60.0327 40.9338 60.1903 40.2198C60.5966 38.5427 60.9863 37.0234 61.3594 35.6618C61.7326 34.3002 62.2633 32.8805 62.9515 31.4026C63.6398 29.9248 64.3653 28.941 65.1282 28.4511C65.8911 27.953 66.5088 27.8617 66.9815 28.1772C67.4541 28.4844 67.678 28.9783 67.6531 29.6591C67.6283 30.3399 67.5205 31.0539 67.3298 31.8012C67.1473 32.5401 66.8944 33.2541 66.571 33.9432C66.2476 34.6323 65.8786 35.3587 65.464 36.1226C65.0577 36.8864 64.7011 37.5091 64.3943 37.9906C64.1124 38.4306 63.1588 39.7216 61.5336 41.8637C61.4506 41.9799 61.3636 42.1003 61.2724 42.2248C61.1977 42.4822 61.1273 42.7271 61.0609 42.9596L59.6181 42.3618C59.6761 42.2456 59.7383 42.1293 59.8047 42.0131Z" fill="black"/>
<path d="M71.0612 38.9246L71.9567 38.8748L72.2304 39.4352C72.2635 39.8337 72.0272 40.6059 71.5214 41.7516C71.1648 42.889 70.9244 43.6445 70.8 44.0181L70.6259 45.1763C70.4766 46.0315 70.5968 46.4217 70.9866 46.347L71.4592 46.0854C71.7909 45.8198 72.5206 45.0725 73.6483 43.8438C73.8307 43.8521 73.9468 43.9891 73.9966 44.2548C72.5952 46.4383 71.4841 47.5135 70.6632 47.4802C69.6598 47.6961 69.1872 47.1523 69.2452 45.8488L69.6681 43.6819C68.3828 45.3092 67.2344 46.4424 66.2228 47.0817C65.7833 47.4055 65.1987 47.5342 64.469 47.4678L64.1207 47.1066L64.0088 46.6708C63.959 46.0315 64.0253 45.3922 64.2078 44.7529C64.4068 44.1966 64.7053 43.5615 65.1033 42.8475C65.8994 41.5689 66.9359 40.5353 68.2129 39.7466C69.4981 38.9495 70.4476 38.6755 71.0612 38.9246ZM66.3844 45.5873C67.2551 44.9646 67.9309 44.3502 68.4119 43.7442C68.984 43.1713 69.5147 42.258 70.0039 41.0044C69.6059 40.3817 69.0255 40.3111 68.2626 40.7927C67.8231 41.0334 67.3173 41.5565 66.7452 42.3618C66.1067 43.2253 65.6838 44.0098 65.4765 44.7155C65.2692 45.8115 65.5718 46.102 66.3844 45.5873ZM73.4866 37.6045L72.902 37.4302L71.795 36.546C71.397 35.7074 70.3978 36.0271 68.7974 37.5049L68.0636 37.8661L67.479 37.8785L66.9939 37.5049L67.1307 36.8449L67.7775 36.6207C68.6979 36.4547 69.7054 35.7573 70.8 34.5285L71.2975 34.1798L71.6209 34.2421L73.0762 36.5584L73.9842 37.3181L73.8473 37.4925L73.4866 37.6045ZM67.2427 49.7468H67.5288C67.6614 49.7468 67.7982 49.8879 67.9392 50.1702V50.4442C67.8729 51.3741 67.5951 51.839 67.1059 51.839C66.8571 51.839 66.6249 51.6065 66.4093 51.1416C66.741 50.2117 67.0188 49.7468 67.2427 49.7468Z" fill="black"/>
<path d="M77.641 38.3891C78.7604 38.3393 79.4943 38.7918 79.8425 39.7466C80.1576 40.5104 80.1908 41.2908 79.942 42.0878C79.5025 43.6902 78.3707 45.1141 76.5464 46.3594C76.3474 46.5587 75.5389 47.0693 74.121 47.8912C73.4825 50.7389 73.0886 53.0262 72.9394 54.7531C72.7901 56.4883 72.7238 57.7462 72.7403 58.5266C72.7569 59.3153 72.8233 60.129 72.9394 60.9675L72.7652 61.2166C72.1101 61.1834 71.708 60.789 71.5587 60.0335C71.4012 59.2863 71.3514 58.5266 71.4095 57.7545C71.4675 56.9823 71.5919 55.7951 71.7826 54.1927C72.164 51.5775 72.4087 49.9502 72.5165 49.3109C72.6243 48.6799 72.7859 47.7708 73.0015 46.5836C73.7147 43.2543 74.2205 41.0459 74.519 39.9583C75.655 38.9454 76.6957 38.4223 77.641 38.3891ZM74.4319 46.3594L75.2155 46.1602C76.3681 45.8945 77.4378 44.6325 78.4246 42.3743L78.4868 41.3282C78.4619 40.3402 78.1468 39.8005 77.5415 39.7092L77.0191 39.7216C75.883 39.8545 75.0207 42.0671 74.4319 46.3594ZM74.5936 47.3308C75.3233 46.8908 75.995 46.6043 76.6086 46.4715C77.2305 46.3387 77.8566 46.0813 78.4868 45.6994C79.1253 45.3092 79.7969 44.7861 80.5017 44.1302L80.6759 44.4665C79.0755 46.6666 77.0481 47.6214 74.5936 47.3308Z" fill="black"/>
<path d="M89.6313 39.9085C88.0807 40.9878 87.2266 42.6898 87.0691 45.0144C87.0691 46.102 87.4961 46.567 88.3502 46.4092C89.3453 46.1685 90.6886 44.9854 92.3802 42.86L92.6414 43.0841C91.0493 45.6413 89.6811 47.1481 88.5368 47.6048C88.0475 47.8539 87.4795 47.8995 86.8328 47.7418C86.2606 47.5508 85.8833 47.1689 85.7009 46.596C85.5185 46.0232 85.4729 45.4669 85.5641 44.9273C85.7133 43.8562 86.1155 42.7728 86.7706 41.6769C87.4256 40.5726 88.1222 39.7922 88.8602 39.3356C89.5982 38.8707 90.2408 38.7254 90.7881 38.8997C91.3354 39.0658 91.6256 39.4435 91.6588 40.033C91.6919 40.6142 91.4971 40.9629 91.0742 41.0791C90.6596 41.1953 90.4315 40.9629 90.3901 40.3817C90.3486 39.7922 90.0957 39.6345 89.6313 39.9085Z" fill="black"/>
<path d="M98.8978 37.5547L98.3505 37.3928L97.3057 36.5584C96.9408 35.7697 96.008 36.0686 94.5071 37.4551L93.823 37.7913L93.2757 37.8038L92.8155 37.4551L92.9523 36.8324L93.5494 36.6332C94.4117 36.4754 95.3529 35.8195 96.3728 34.6655L96.8455 34.3417L97.144 34.404L98.5122 36.5709L99.358 37.2807L99.2336 37.4426L98.8978 37.5547ZM92.7284 44.1302C92.5128 45.5167 92.7036 46.2888 93.3006 46.4466C93.9059 46.6043 94.5154 46.2515 95.129 45.388C95.7426 44.5246 96.1199 43.5906 96.2609 42.586C96.4101 41.5731 96.4018 40.8342 96.236 40.3692C96.0784 39.9043 95.7799 39.6635 95.3404 39.6469C94.9093 39.622 94.42 40.0164 93.8727 40.83C93.3255 41.6437 92.944 42.7437 92.7284 44.1302ZM93.4125 47.6048C93.3628 47.6131 93.313 47.6214 93.2633 47.6297C92.3263 47.5716 91.7251 47.0734 91.4597 46.1353C91.1944 45.1888 91.3229 43.9932 91.8453 42.5486C92.3677 41.104 93.2301 40.0205 94.4325 39.2982C94.6398 38.9661 94.9507 38.7088 95.3653 38.5261C95.7882 38.3435 96.2277 38.3061 96.6838 38.414C97.1481 38.522 97.484 38.8997 97.6913 39.5473C97.9069 40.1949 97.8405 41.1995 97.4922 42.5611C97.1606 43.8313 96.5428 44.9937 95.639 46.0481C96.4267 45.5998 97.3803 44.7155 98.4997 43.3955L98.6739 43.7317C97.115 46.1726 95.4109 47.4636 93.5618 47.6048H93.4125Z" fill="black"/>
<path d="M99.9799 47.7418L99.8431 47.1689L100.664 43.6196L100.95 42.586C101.232 41.5814 101.054 41.2493 100.415 41.5897C98.79 44.1053 97.6788 45.3341 97.0818 45.276C97.7534 44.2215 99.0221 42.4033 100.888 39.8213C101.493 39.456 101.916 39.2733 102.157 39.2733C102.497 39.5058 102.679 39.9085 102.704 40.4813L102.654 41.5025L102.555 42.2871L102.331 43.2585L101 47.4429C100.801 47.8497 100.461 47.9493 99.9799 47.7418ZM105.241 47.6546C104.636 47.6214 104.312 47.2893 104.271 46.6583L104.346 45.7243C104.702 44.4623 104.98 43.4245 105.179 42.6109C105.735 41.0583 105.701 40.4191 105.08 40.693L104.433 41.1538C103.62 41.8678 102.604 43.3373 101.385 45.5624L100.851 45.1265L102.642 42.4863C104.333 40.0371 105.589 38.8582 106.41 38.9495C107.057 39.0907 107.327 39.593 107.219 40.4564L106.995 41.2161C106.763 42.1044 106.431 43.3498 106 44.9522C105.71 45.9235 105.747 46.3594 106.112 46.2598L105.987 47.418L105.241 47.6546ZM108.438 43.7691C108.57 43.7691 108.736 43.686 108.935 43.52H109.172C108.483 45.0892 107.488 46.3553 106.187 47.3183C105.996 47.4097 105.818 47.4844 105.652 47.5425L106.05 46.2473C106.887 45.7824 107.683 44.9563 108.438 43.7691Z" fill="black"/>
<path d="M113.015 48.1776C112.551 48.6675 111.999 49.286 111.361 50.0332C110.731 50.7804 110.005 51.7726 109.184 53.0096C108.371 54.255 107.799 55.4215 107.468 56.5091C107.128 57.5967 107.07 58.4394 107.294 59.0372C107.509 59.635 107.949 59.7761 108.612 59.4606C109.267 59.1451 109.889 58.3771 110.478 57.1567C111.066 55.9362 111.568 54.5207 111.983 52.91C112.406 51.2993 112.75 49.7219 113.015 48.1776ZM109.682 45.936C110.08 46.3594 110.602 46.4715 111.249 46.2722C111.896 46.073 112.447 45.6205 112.903 44.9148C113.359 44.2008 113.67 43.3415 113.836 42.3369C114.002 41.3323 113.778 40.5768 113.164 40.0704C112.551 39.5556 111.817 39.7341 110.963 40.6059C110.109 41.4693 109.582 42.4656 109.383 43.5947C109.192 44.7238 109.292 45.5043 109.682 45.936ZM115.528 45.0518C116.091 44.8193 117.078 43.8438 118.488 42.1252L118.438 42.8475L117.928 43.794C117.563 44.4333 116.556 45.5499 114.906 47.144L114.358 47.7916C113.736 51.0793 113.069 53.624 112.356 55.4256C111.643 57.2273 110.784 58.6677 109.781 59.747C108.786 60.8264 107.895 61.2747 107.107 61.092C106.319 60.9177 105.855 60.3116 105.714 59.2738C105.565 58.2443 105.83 57.0072 106.51 55.5626C107.19 54.1263 107.911 52.9515 108.674 52.0383C109.429 51.125 110.129 50.3238 110.776 49.6347C111.382 48.9788 112.198 48.1112 113.227 47.0319C113.309 46.5421 113.413 45.9734 113.537 45.3258C112.227 47.144 110.979 48.0033 109.794 47.9037C108.608 47.804 107.973 47.0361 107.891 45.5998C107.808 44.1634 108.247 42.723 109.209 41.2784C110.171 39.8337 111.133 39.0118 112.095 38.8125C113.065 38.605 113.765 38.6589 114.197 38.9744C114.636 39.2816 114.906 39.5971 115.005 39.9209C115.105 40.2364 115.217 40.0787 115.341 39.4477C115.474 38.8084 115.756 38.4763 116.187 38.4514C116.626 38.4265 116.676 38.9703 116.336 40.0828C115.996 41.1953 115.623 42.6067 115.217 44.317L115.266 44.7903C115.275 44.8816 115.362 44.9688 115.528 45.0518Z" fill="black"/>
<path d="M124.296 40.5187L124.01 40.2821H123.314L122.642 40.1949C122.02 40.0205 121.979 39.7507 122.518 39.3854C123.405 39.3854 124.019 39.3356 124.359 39.236C124.707 39.128 125.034 38.4763 125.341 37.2807C125.797 35.4293 126.17 34.1092 126.461 33.3205L126.896 32.5733C127.261 32.3408 127.501 32.3948 127.617 32.7352C127.734 33.0756 127.622 33.6401 127.282 34.4289L126.56 36.7203C126.328 37.4758 126.245 38.0778 126.311 38.5261C126.552 38.7337 126.817 38.908 127.107 39.0492C128.965 39.1571 129.889 39.1488 129.881 39.0242L130.217 39.1114L130.229 39.2235C130.205 39.4477 129.616 39.6428 128.463 39.8088L127.543 40.0579L126.747 40.17C126.166 40.2613 125.719 40.9463 125.403 42.2248C124.956 43.8189 124.757 44.9646 124.806 45.662C124.856 46.3594 125.258 46.4507 126.013 45.936C126.544 45.662 127.464 44.7072 128.774 43.0717H128.886L128.948 43.5449C127.704 45.3714 126.78 46.5213 126.175 46.9946C125.727 47.4595 125.2 47.7044 124.595 47.7293C123.6 47.6878 123.206 46.9364 123.413 45.4752C123.496 44.7446 123.708 43.7193 124.048 42.3992C123.409 43.5615 122.791 44.4831 122.194 45.1639C121.597 45.8364 121.241 46.127 121.125 46.0356C121 45.9443 120.975 45.8447 121.05 45.7367C121.125 45.6205 121.266 45.4254 121.473 45.1514C121.68 44.8774 122.016 44.4001 122.48 43.7193C122.937 43.0385 123.542 41.9716 124.296 40.5187Z" fill="black"/>
<path d="M134.284 47.8414C132.817 49.2196 131.374 50.8012 129.956 52.5862C128.546 54.3712 127.734 55.9611 127.518 57.3559C127.302 58.7508 127.547 59.5519 128.252 59.7595C128.948 59.9754 129.765 59.4814 130.702 58.2775C131.647 57.0737 132.427 55.3924 133.04 53.2338C133.654 51.0752 134.069 49.2777 134.284 47.8414ZM136.026 45.3382C136.598 44.6989 137.298 43.9061 138.128 42.9596C138.26 42.943 138.418 42.8434 138.6 42.6607L138.712 42.6358C138.082 43.9061 137.095 45.276 135.752 46.7455L135.677 47.144C135.487 47.6255 135.329 48.2358 135.205 48.9747C134.832 51.565 134.247 53.8357 133.451 55.7868C132.663 57.7462 131.759 59.1534 130.739 60.0086C129.728 60.872 128.766 61.229 127.854 61.0796C126.933 60.9384 126.444 60.241 126.386 58.9874C126.328 57.742 126.751 56.3057 127.655 54.6784C128.55 53.0595 130.296 50.8012 132.891 47.9037C133.969 46.65 134.574 45.4794 134.707 44.3918L134.67 44.0804C134.645 43.8645 134.512 43.8355 134.272 43.9932L133.861 44.4665C133.588 44.8899 133.244 45.3548 132.829 45.8613C131.734 47.4802 130.768 48.2026 129.931 48.0282C129.425 47.9203 129.185 47.4346 129.21 46.5711C129.724 44.4955 130.109 43.0675 130.366 42.2871C130.341 42.0795 130.051 42.3826 129.496 43.1962C128.94 44.0015 128.069 44.9522 126.884 46.0481L126.498 45.7741L127.518 44.4789C128.331 43.4992 129.695 41.6187 131.61 38.8374C132.215 38.7876 132.431 39.2526 132.257 40.2322C131.71 41.9924 131.245 43.6736 130.864 45.276C130.623 46.3055 130.698 46.7538 131.088 46.6209C131.486 46.4881 131.979 46.0605 132.568 45.3382H132.593C132.792 45.1058 133.016 44.8318 133.264 44.5163V44.4789C134.616 42.3369 135.769 40.4066 136.722 38.688C137.112 38.3476 137.46 38.4057 137.767 38.8624C137.286 40.3983 136.859 41.7848 136.486 43.0219L136.026 45.3382Z" fill="black"/>
<path d="M146.722 39.9085C145.172 40.9878 144.318 42.6898 144.16 45.0144C144.16 46.102 144.587 46.567 145.441 46.4092C146.436 46.1685 147.78 44.9854 149.471 42.86L149.732 43.0841C148.14 45.6413 146.772 47.1481 145.628 47.6048C145.139 47.8539 144.571 47.8995 143.924 47.7418C143.352 47.5508 142.974 47.1689 142.792 46.596C142.61 46.0232 142.564 45.4669 142.655 44.9273C142.804 43.8562 143.207 42.7728 143.862 41.6769C144.517 40.5726 145.213 39.7922 145.951 39.3356C146.689 38.8707 147.332 38.7254 147.879 38.8997C148.426 39.0658 148.717 39.4435 148.75 40.033C148.783 40.6142 148.588 40.9629 148.165 41.0791C147.751 41.1953 147.523 40.9629 147.481 40.3817C147.44 39.7922 147.187 39.6345 146.722 39.9085Z" fill="black"/>
<path d="M155.989 37.5547L155.442 37.3928L154.397 36.5584C154.032 35.7697 153.099 36.0686 151.598 37.4551L150.914 37.7913L150.367 37.8038L149.907 37.4551L150.043 36.8324L150.64 36.6332C151.503 36.4754 152.444 35.8195 153.464 34.6655L153.937 34.3417L154.235 34.404L155.603 36.5709L156.449 37.2807L156.325 37.4426L155.989 37.5547ZM149.82 44.1302C149.604 45.5167 149.795 46.2888 150.392 46.4466C150.997 46.6043 151.606 46.2515 152.22 45.388C152.834 44.5246 153.211 43.5906 153.352 42.586C153.501 41.5731 153.493 40.8342 153.327 40.3692C153.17 39.9043 152.871 39.6635 152.432 39.6469C152 39.622 151.511 40.0164 150.964 40.83C150.417 41.6437 150.035 42.7437 149.82 44.1302ZM150.504 47.6048C150.454 47.6131 150.404 47.6214 150.354 47.6297C149.417 47.5716 148.816 47.0734 148.551 46.1353C148.285 45.1888 148.414 43.9932 148.936 42.5486C149.459 41.104 150.321 40.0205 151.524 39.2982C151.731 38.9661 152.042 38.7088 152.456 38.5261C152.879 38.3435 153.319 38.3061 153.775 38.414C154.239 38.522 154.575 38.8997 154.782 39.5473C154.998 40.1949 154.932 41.1995 154.583 42.5611C154.252 43.8313 153.634 44.9937 152.73 46.0481C153.518 45.5998 154.471 44.7155 155.591 43.3955L155.765 43.7317C154.206 46.1726 152.502 47.4636 150.653 47.6048H150.504Z" fill="black"/>
<path d="M157.071 47.7418L156.934 47.1689L157.755 43.6196L158.041 42.586C158.323 41.5814 158.145 41.2493 157.506 41.5897C155.881 44.1053 154.77 45.3341 154.173 45.276C154.845 44.2215 156.113 42.4033 157.979 39.8213C158.584 39.456 159.007 39.2733 159.248 39.2733C159.588 39.5058 159.77 39.9085 159.795 40.4813L159.745 41.5025L159.646 42.2871L159.422 43.2585L158.091 47.4429C157.892 47.8497 157.552 47.9493 157.071 47.7418ZM162.332 47.6546C161.727 47.6214 161.404 47.2893 161.362 46.6583L161.437 45.7243C161.793 44.4623 162.071 43.4245 162.27 42.6109C162.826 41.0583 162.793 40.4191 162.171 40.693L161.524 41.1538C160.711 41.8678 159.695 43.3373 158.476 45.5624L157.942 45.1265L159.733 42.4863C161.424 40.0371 162.681 38.8582 163.501 38.9495C164.148 39.0907 164.418 39.593 164.31 40.4564L164.086 41.2161C163.854 42.1044 163.522 43.3498 163.091 44.9522C162.801 45.9235 162.838 46.3594 163.203 46.2598L163.079 47.418L162.332 47.6546ZM165.529 43.7691C165.662 43.7691 165.827 43.686 166.026 43.52H166.263C165.575 45.0892 164.579 46.3553 163.278 47.3183C163.087 47.4097 162.909 47.4844 162.743 47.5425L163.141 46.2473C163.978 45.7824 164.774 44.9563 165.529 43.7691Z" fill="black"/>
<path d="M170.106 48.1776C169.642 48.6675 169.09 49.286 168.452 50.0332C167.822 50.7804 167.096 51.7726 166.275 53.0096C165.463 54.255 164.89 55.4215 164.559 56.5091C164.219 57.5967 164.161 58.4394 164.385 59.0372C164.6 59.635 165.04 59.7761 165.703 59.4606C166.358 59.1451 166.98 58.3771 167.569 57.1567C168.157 55.9362 168.659 54.5207 169.074 52.91C169.497 51.2993 169.841 49.7219 170.106 48.1776ZM166.773 45.936C167.171 46.3594 167.693 46.4715 168.34 46.2722C168.987 46.073 169.538 45.6205 169.994 44.9148C170.45 44.2008 170.761 43.3415 170.927 42.3369C171.093 41.3323 170.869 40.5768 170.255 40.0704C169.642 39.5556 168.908 39.7341 168.054 40.6059C167.2 41.4693 166.673 42.4656 166.474 43.5947C166.283 44.7238 166.383 45.5043 166.773 45.936ZM172.619 45.0518C173.182 44.8193 174.169 43.8438 175.579 42.1252L175.529 42.8475L175.019 43.794C174.654 44.4333 173.647 45.5499 171.997 47.144L171.449 47.7916C170.828 51.0793 170.16 53.624 169.447 55.4256C168.734 57.2273 167.876 58.6677 166.872 59.747C165.877 60.8264 164.986 61.2747 164.198 61.092C163.41 60.9177 162.946 60.3116 162.805 59.2738C162.656 58.2443 162.921 57.0072 163.601 55.5626C164.281 54.1263 165.002 52.9515 165.765 52.0383C166.52 51.125 167.22 50.3238 167.867 49.6347C168.473 48.9788 169.289 48.1112 170.318 47.0319C170.4 46.5421 170.504 45.9734 170.629 45.3258C169.318 47.144 168.07 48.0033 166.885 47.9037C165.699 47.804 165.065 47.0361 164.982 45.5998C164.899 44.1634 165.338 42.723 166.3 41.2784C167.262 39.8337 168.224 39.0118 169.186 38.8125C170.156 38.605 170.857 38.6589 171.288 38.9744C171.727 39.2816 171.997 39.5971 172.096 39.9209C172.196 40.2364 172.308 40.0787 172.432 39.4477C172.565 38.8084 172.847 38.4763 173.278 38.4514C173.717 38.4265 173.767 38.9703 173.427 40.0828C173.087 41.1953 172.714 42.6067 172.308 44.317L172.357 44.7903C172.366 44.8816 172.453 44.9688 172.619 45.0518Z" fill="black"/>
<path d="M181.499 47.7418L181.363 47.1689L182.184 43.6196L182.47 42.586C182.752 41.5814 182.573 41.2493 181.935 41.5897C180.31 44.1053 179.198 45.3341 178.601 45.276C179.273 44.2215 180.542 42.4033 182.407 39.8213C183.013 39.456 183.436 39.2733 183.676 39.2733C184.016 39.5058 184.199 39.9085 184.223 40.4813L184.174 41.5025L184.074 42.2871L183.85 43.2585L182.519 47.4429C182.32 47.8497 181.98 47.9493 181.499 47.7418ZM186.761 47.6546C186.155 47.6214 185.832 47.2893 185.791 46.6583L185.865 45.7243C186.222 44.4623 186.5 43.4245 186.699 42.6109C187.254 41.0583 187.221 40.4191 186.599 40.693L185.952 41.1538C185.14 41.8678 184.124 43.3373 182.905 45.5624L182.37 45.1265L184.161 42.4863C185.853 40.0371 187.109 38.8582 187.93 38.9495C188.577 39.0907 188.846 39.593 188.738 40.4564L188.515 41.2161C188.282 42.1044 187.951 43.3498 187.52 44.9522C187.229 45.9235 187.267 46.3594 187.631 46.2598L187.507 47.418L186.761 47.6546ZM189.957 43.7691C190.09 43.7691 190.256 43.686 190.455 43.52H190.691C190.003 45.0892 189.008 46.3553 187.706 47.3183C187.515 47.4097 187.337 47.4844 187.171 47.5425L187.569 46.2473C188.407 45.7824 189.203 44.9563 189.957 43.7691Z" fill="black"/>
<path d="M194.535 48.1776C194.07 48.6675 193.519 49.286 192.88 50.0332C192.25 50.7804 191.525 51.7726 190.704 53.0096C189.891 54.255 189.319 55.4215 188.987 56.5091C188.647 57.5967 188.589 58.4394 188.813 59.0372C189.029 59.635 189.468 59.7761 190.132 59.4606C190.787 59.1451 191.409 58.3771 191.997 57.1567C192.586 55.9362 193.088 54.5207 193.502 52.91C193.925 51.2993 194.269 49.7219 194.535 48.1776ZM191.201 45.936C191.599 46.3594 192.122 46.4715 192.768 46.2722C193.415 46.073 193.967 45.6205 194.423 44.9148C194.879 44.2008 195.19 43.3415 195.356 42.3369C195.521 41.3323 195.298 40.5768 194.684 40.0704C194.07 39.5556 193.336 39.7341 192.482 40.6059C191.628 41.4693 191.102 42.4656 190.903 43.5947C190.712 44.7238 190.811 45.5043 191.201 45.936ZM197.047 45.0518C197.611 44.8193 198.598 43.8438 200.007 42.1252L199.958 42.8475L199.448 43.794C199.083 44.4333 198.075 45.5499 196.425 47.144L195.878 47.7916C195.256 51.0793 194.589 53.624 193.875 55.4256C193.162 57.2273 192.304 58.6677 191.301 59.747C190.306 60.8264 189.414 61.2747 188.627 61.092C187.839 60.9177 187.374 60.3116 187.233 59.2738C187.084 58.2443 187.35 57.0072 188.029 55.5626C188.709 54.1263 189.431 52.9515 190.194 52.0383C190.948 51.125 191.649 50.3238 192.296 49.6347C192.901 48.9788 193.718 48.1112 194.746 47.0319C194.829 46.5421 194.933 45.9734 195.057 45.3258C193.747 47.144 192.499 48.0033 191.313 47.9037C190.127 47.804 189.493 47.0361 189.41 45.5998C189.327 44.1634 189.767 42.723 190.729 41.2784C191.69 39.8337 192.652 39.0118 193.614 38.8125C194.584 38.605 195.285 38.6589 195.716 38.9744C196.156 39.2816 196.425 39.5971 196.525 39.9209C196.624 40.2364 196.736 40.0787 196.861 39.4477C196.993 38.8084 197.275 38.4763 197.706 38.4514C198.146 38.4265 198.196 38.9703 197.856 40.0828C197.516 41.1953 197.143 42.6067 196.736 44.317L196.786 44.7903C196.794 44.8816 196.881 44.9688 197.047 45.0518Z" fill="black"/>
<path d="M205.642 32.6106C206.206 30.9668 206.297 29.9373 205.916 29.5222C205.542 29.107 204.983 29.4433 204.236 30.5309C203.498 31.6185 202.81 33.2624 202.172 35.4625C201.541 37.6627 201.189 39.0284 201.114 39.5598C201.048 40.0911 201.226 40.1077 201.649 39.6096C202.08 39.1031 202.715 38.2231 203.552 36.9694C204.39 35.7074 205.086 34.2545 205.642 32.6106ZM203.789 42.8724C204.377 41.1455 204.361 40.4191 203.739 40.693C203.333 40.8425 202.756 41.4485 202.01 42.5113C201.272 43.5657 200.617 44.8069 200.045 46.2349L199.572 47.281C198.677 48.1195 198.237 47.9742 198.254 46.8451L198.49 45.662L198.751 44.454C197.64 45.8571 196.823 46.6583 196.301 46.8576C196.044 46.733 196.181 46.4217 196.711 45.9235L198.005 44.1551C198.37 43.5989 198.788 42.8849 199.261 42.0131C199.361 41.5316 199.489 40.9338 199.647 40.2198C200.053 38.5427 200.443 37.0234 200.816 35.6618C201.189 34.3002 201.72 32.8805 202.408 31.4026C203.096 29.9248 203.822 28.941 204.585 28.4511C205.348 27.953 205.965 27.8617 206.438 28.1772C206.911 28.4844 207.134 28.9783 207.11 29.6591C207.085 30.3399 206.977 31.0539 206.786 31.8012C206.604 32.5401 206.351 33.2541 206.027 33.9432C205.704 34.6323 205.335 35.3587 204.921 36.1226C204.514 36.8864 204.158 37.5091 203.851 37.9906C203.569 38.4306 202.615 39.7216 200.99 41.8637C200.907 41.9799 200.82 42.1003 200.729 42.2248C200.522 42.9305 200.36 43.5366 200.244 44.043L201.301 42.4863C202.993 40.0371 204.249 38.8582 205.07 38.9495C205.634 39.0907 205.862 39.593 205.754 40.4564L205.53 41.2161C205.298 42.1044 204.966 43.3498 204.535 44.9522C204.328 45.6496 204.323 46.0564 204.522 46.1726C204.73 46.2888 204.937 46.2764 205.144 46.1353C205.352 45.9941 205.65 45.7118 206.04 45.2884C206.438 44.865 206.861 44.3087 207.309 43.6196C207.624 43.1879 207.852 43.1049 207.993 43.3706C207.188 44.8982 206.459 46.0024 205.804 46.6832C205.149 47.3557 204.581 47.6961 204.1 47.7044C203.627 47.7127 203.308 47.584 203.142 47.3183C202.984 47.0527 202.918 46.7372 202.943 46.3719C202.976 45.9983 203.084 45.4835 203.266 44.8276C203.449 44.1634 203.623 43.5117 203.789 42.8724Z" fill="black"/>
<path d="M211.886 45.1888L212.856 44.0929C213.13 43.9185 213.312 43.9144 213.403 44.0804C211.919 46.2141 210.675 47.4304 209.672 47.7293C208.843 47.9535 208.208 47.8912 207.769 47.5425C207.329 47.2021 207.06 46.6708 206.96 45.9484C206.853 45.2178 206.944 44.454 207.234 43.657C207.516 42.8517 207.968 42.0131 208.59 41.1414C209.22 40.2613 209.95 39.6096 210.779 39.1861C211.608 38.7544 212.242 38.6631 212.682 38.9122C213.13 39.1612 213.333 39.5722 213.291 40.1451C213.25 40.7096 212.997 41.2451 212.533 41.7516C212.068 42.2497 211.38 42.723 210.468 43.1713C209.556 43.6113 208.971 43.9642 208.714 44.2299C208.465 44.4872 208.333 44.7654 208.316 45.0642C208.308 45.3631 208.341 45.6496 208.416 45.9235C208.499 46.1975 208.685 46.4134 208.975 46.5711C209.266 46.7289 209.68 46.7081 210.219 46.5089C210.758 46.3013 211.314 45.8613 211.886 45.1888ZM208.49 43.4577C210.057 42.6524 211.077 41.9674 211.55 41.4029C212.031 40.8383 212.222 40.3941 212.122 40.0704C212.031 39.7383 211.708 39.6843 211.152 39.9085C210.596 40.1326 210.07 40.5892 209.572 41.2784C209.083 41.9591 208.722 42.6856 208.49 43.4577ZM208.95 36.8324C209.904 36.4339 210.617 36.0105 211.09 35.5621C211.571 35.1055 211.915 34.7817 212.122 34.5908C212.329 34.3998 212.512 34.433 212.669 34.6904C212.835 34.9395 213.097 35.3421 213.453 35.8984C213.81 36.4547 214.174 36.8532 214.548 37.0939C214.929 37.3264 215.082 37.5091 215.008 37.6419C214.933 37.7747 214.751 37.7955 214.461 37.7042C214.179 37.6045 213.851 37.4094 213.478 37.1188C213.113 36.82 212.806 36.5418 212.558 36.2845C212.317 36.0271 211.82 36.189 211.065 36.7701C210.31 37.343 209.809 37.6917 209.56 37.8162C209.319 37.9325 209.1 37.9989 208.901 38.0155C208.71 38.0238 208.532 37.9615 208.366 37.8287C208.208 37.6959 208.159 37.534 208.217 37.343C208.275 37.1521 208.519 36.9819 208.95 36.8324ZM209.1 49.4977C209.39 49.5891 209.527 49.8215 209.51 50.1951C209.444 51.125 209.166 51.5899 208.677 51.5899C208.428 51.5899 208.196 51.3575 207.98 50.8925C208.312 49.9627 208.685 49.4977 209.1 49.4977Z" fill="black"/>
<path d="M218.18 45.0892C217.947 45.2884 217.823 45.2012 217.806 44.8276C219.15 42.8018 220.012 41.5731 220.394 41.1414C220.783 40.7096 221.09 40.4481 221.314 40.3568C221.538 40.2655 221.741 40.2862 221.923 40.4191C222.114 40.5436 222.21 40.83 222.21 41.2784C222.21 41.7184 222.06 42.449 221.762 43.4702C221.463 44.4831 221.273 45.251 221.19 45.7741C221.107 46.2888 221.173 46.5753 221.389 46.6334C221.612 46.6915 221.961 46.513 222.433 46.0979C222.914 45.6828 223.341 45.1514 223.715 44.5038C224.088 43.8479 224.382 43.163 224.598 42.449C224.822 41.7267 224.871 41.1953 224.747 40.8549C224.631 40.5145 224.548 40.1534 224.498 39.7715C224.448 39.3896 224.527 38.9703 224.734 38.5136C224.942 38.0487 225.228 37.8453 225.593 37.9034C225.966 37.9532 226.21 38.2397 226.327 38.7627C226.443 39.2858 226.244 40.4191 225.73 42.1626C225.083 44.1053 224.254 45.6413 223.242 46.7704C223.3 46.7455 223.42 46.7081 223.603 46.6583C223.785 46.6002 224.166 46.3511 224.747 45.9111C225.327 45.4628 226.032 44.7405 226.861 43.7442L227.036 44.0804C225.584 46.3055 224.013 47.5757 222.321 47.8912C221.907 47.9659 221.501 47.9867 221.103 47.9535C220.704 47.9203 220.385 47.775 220.145 47.5176C219.904 47.2519 219.821 46.8244 219.896 46.2349C219.971 45.6454 220.141 44.9273 220.406 44.0804C220.68 43.2336 220.808 42.723 220.792 42.5486C220.775 42.3743 220.617 42.4116 220.319 42.6607C220.029 42.9098 219.316 43.7193 218.18 45.0892Z" fill="black"/>
<path d="M231.289 45.1888L232.26 44.0929C232.533 43.9185 232.716 43.9144 232.807 44.0804C231.323 46.2141 230.079 47.4304 229.075 47.7293C228.246 47.9535 227.612 47.8912 227.172 47.5425C226.733 47.2021 226.463 46.6708 226.364 45.9484C226.256 45.2178 226.347 44.454 226.637 43.657C226.919 42.8517 227.371 42.0131 227.993 41.1414C228.623 40.2613 229.353 39.6096 230.182 39.1861C231.012 38.7544 231.646 38.6631 232.085 38.9122C232.533 39.1612 232.736 39.5722 232.695 40.1451C232.653 40.7096 232.4 41.2451 231.936 41.7516C231.472 42.2497 230.784 42.723 229.871 43.1713C228.959 43.6113 228.375 43.9642 228.118 44.2299C227.869 44.4872 227.736 44.7654 227.72 45.0642C227.711 45.3631 227.744 45.6496 227.819 45.9235C227.902 46.1975 228.089 46.4134 228.379 46.5711C228.669 46.7289 229.084 46.7081 229.623 46.5089C230.162 46.3013 230.717 45.8613 231.289 45.1888ZM227.894 43.4577C229.461 42.6524 230.481 41.9674 230.954 41.4029C231.434 40.8383 231.625 40.3941 231.526 40.0704C231.434 39.7383 231.111 39.6843 230.556 39.9085C230 40.1326 229.473 40.5892 228.976 41.2784C228.487 41.9591 228.126 42.6856 227.894 43.4577ZM228.354 36.8324C229.308 36.4339 230.021 36.0105 230.493 35.5621C230.974 35.1055 231.318 34.7817 231.526 34.5908C231.733 34.3998 231.915 34.433 232.073 34.6904C232.239 34.9395 232.5 35.3421 232.857 35.8984C233.213 36.4547 233.578 36.8532 233.951 37.0939C234.333 37.3264 234.486 37.5091 234.411 37.6419C234.337 37.7747 234.154 37.7955 233.864 37.7042C233.582 37.6045 233.255 37.4094 232.881 37.1188C232.517 36.82 232.21 36.5418 231.961 36.2845C231.721 36.0271 231.223 36.189 230.468 36.7701C229.714 37.343 229.212 37.6917 228.963 37.8162C228.723 37.9325 228.503 37.9989 228.304 38.0155C228.113 38.0238 227.935 37.9615 227.769 37.8287C227.612 37.6959 227.562 37.534 227.62 37.343C227.678 37.1521 227.923 36.9819 228.354 36.8324ZM235.979 33.3828C236.061 33.5571 235.904 33.665 235.506 33.7066C235.116 33.7481 234.631 33.7356 234.051 33.6692C233.478 33.6028 232.803 33.4616 232.023 33.2458C231.252 33.0216 230.701 32.8099 230.369 32.6106C230.046 32.4114 229.847 32.1748 229.772 31.9008C229.706 31.6185 229.764 31.4068 229.946 31.2657C230.128 31.1245 230.481 31.2241 231.003 31.5645C231.534 31.9049 232.131 32.2163 232.794 32.4986C233.466 32.7725 234.527 33.0673 235.979 33.3828Z" fill="black"/>
<path d="M190.554 58.2224C190.886 57.3672 191.247 56.977 191.637 57.0517C192.026 57.1264 191.96 57.8571 191.438 59.2436C190.65 61.9169 190.049 64.2541 189.634 66.2549C189.228 68.2558 188.904 69.8291 188.664 70.9749C188.432 72.1206 188.204 73.5486 187.98 75.2589C188.021 75.8318 188.345 75.8235 188.95 75.234L189.808 74.437C190.273 73.8475 190.807 73.1542 191.413 72.3572L191.612 72.7433C190.633 74.7441 189.501 76.1763 188.216 77.0398L187.619 77.1643C186.873 76.9401 186.52 76.359 186.562 75.4208C186.985 72.7142 187.014 71.5436 186.649 71.9089C186.898 71.1367 186.918 70.5888 186.711 70.265C186.512 69.9412 186.172 69.8001 185.691 69.8416C185.21 69.8831 184.646 70.1861 184 70.7507C183.353 71.3069 182.822 71.996 182.407 72.818C181.993 73.6399 181.844 74.3 181.96 74.7981C182.067 75.2962 182.345 75.5163 182.793 75.4581C183.249 75.3917 183.771 75.1094 184.36 74.6113C184.957 74.1049 185.728 73.175 186.674 71.8217C187.246 70.8005 187.47 70.7839 187.345 71.7719C186.524 73.2746 185.621 74.4951 184.634 75.4332C183.655 76.3631 182.917 76.8945 182.42 77.0273C181.922 77.1601 181.52 77.1684 181.213 77.0522C180.898 76.936 180.658 76.6703 180.492 76.2552C180.326 75.8401 180.339 75.2049 180.529 74.3498C180.72 73.4863 181.118 72.6353 181.723 71.7968C182.329 70.9499 182.951 70.265 183.589 69.7419C184.236 69.2189 184.854 68.8826 185.442 68.7332C186.031 68.5755 186.495 68.563 186.835 68.6958C187.175 68.8287 187.432 69.0362 187.607 69.3185L187.806 68.7083C188.063 67.7784 188.473 66.1179 189.037 63.7269C189.609 61.3358 190.115 59.5009 190.554 58.2224Z" fill="black"/>
<path d="M199.323 67.7245C199.796 67.5584 200.02 67.7162 199.995 68.1977C198.917 71.2779 198.32 73.1542 198.204 73.8267L198.08 74.5864C198.063 75.1593 198.229 75.4748 198.577 75.5329C199.556 75.0762 200.455 74.2045 201.276 72.9176C201.409 72.9176 201.575 72.8346 201.774 72.6685H202.01C201.322 74.2377 200.327 75.5038 199.025 76.4669C197.582 77.1809 196.794 76.7409 196.662 75.1468L196.91 73.7022C196.33 74.7566 195.579 75.6242 194.659 76.305C193.954 76.7948 193.394 77.0024 192.98 76.9277C192.565 76.8613 192.292 76.5873 192.159 76.1057C192.026 75.6159 192.225 74.549 192.756 72.9052L192.992 71.7594C193.158 71.0869 192.806 71.3485 191.935 72.544L190.243 74.686C189.763 74.7275 189.692 74.5283 190.032 74.0882C190.372 73.6482 190.666 73.2414 190.915 72.8678C191.164 72.4942 192.122 71.0496 193.788 68.5339C194.651 68.0773 195.136 68.0607 195.244 68.4841C194.713 70.3522 194.344 71.6349 194.137 72.3323C193.929 73.0214 193.747 73.8475 193.589 74.8106L193.664 75.2838L193.875 75.371C194.472 75.2962 195.447 74.3705 196.798 72.5938L198.453 68.7332L199.323 67.7245Z" fill="black"/>
<path d="M208.378 74.3249L208.49 75.2589C208.855 75.9148 209.498 75.9397 210.418 75.3336C211.057 74.8438 211.882 73.8724 212.893 72.4195L213.018 72.407C213.117 72.4153 213.159 72.4983 213.142 72.6561C212.479 74.3581 211.397 75.6906 209.896 76.6537L208.888 76.9899C207.827 77.0398 207.201 76.3216 207.01 74.8355L206.973 74.8106L207.072 72.7682C207.188 72.2285 207.404 71.2696 207.719 69.8914L208.714 71.7594C208.457 72.7391 208.345 73.5943 208.378 74.3249ZM208.341 71.4855C207.479 72.6312 207.039 73.2788 207.023 73.4282C205.845 74.9392 204.983 75.7985 204.435 76.0061C204.178 75.8816 204.315 75.5702 204.846 75.0721L206.139 73.3037C206.62 72.4153 207.197 71.4564 207.868 70.4269L208.341 71.4855ZM214.05 58.6707C213.677 58.2556 213.117 58.5918 212.371 59.6794C211.633 60.767 210.945 62.4109 210.306 64.6111C209.676 66.8112 209.324 68.1769 209.249 68.7083C209.183 69.2396 209.361 69.2563 209.784 68.7581C210.215 68.2517 210.849 67.3716 211.687 66.1179C212.524 64.856 213.221 63.4031 213.776 61.7592C214.34 60.1153 214.432 59.0858 214.05 58.6707ZM207.396 71.1617C207.495 70.6801 207.624 70.0823 207.781 69.3683C208.188 67.6913 208.577 66.1719 208.95 64.8103C209.324 63.4487 209.854 62.029 210.543 60.5512C211.231 59.0734 211.956 58.0895 212.719 57.5997C213.482 57.1015 214.1 57.0102 214.572 57.3257C215.045 57.6329 215.269 58.1269 215.244 58.8077C215.219 59.4885 215.111 60.2025 214.921 60.9497C214.738 61.6886 214.485 62.4026 214.162 63.0917C213.839 63.7808 213.47 64.5073 213.055 65.2711C212.649 66.0349 212.292 66.6576 211.985 67.1391C211.703 67.5792 210.75 68.8702 209.125 71.0122C209.042 71.1284 208.955 71.2488 208.863 71.3734C208.789 71.6307 208.718 71.8757 208.652 72.1081L207.209 71.5104C207.267 71.3941 207.329 71.2779 207.396 71.1617Z" fill="black"/>
<path d="M213.727 72.4195L212.781 73.6026C211.985 74.5407 211.533 74.8272 211.426 74.4619C212.164 73.5237 212.79 72.6436 213.304 71.8217L213.839 71.3236C214.303 71.1907 214.266 71.556 213.727 72.4195ZM213.067 72.2202C213.839 71.0413 214.701 69.7419 215.655 68.3222L215.953 68.1603C216.277 68.1686 216.426 68.4219 216.401 68.92C215.729 70.1903 215.232 71.8258 214.908 73.8267L214.722 74.8853L214.697 75.4083C214.713 75.5993 214.842 75.7114 215.082 75.7446C215.447 75.7114 216.102 75.1883 217.048 74.1754L218.043 72.9923L218.13 73.341C217.35 74.9351 216.409 76.085 215.306 76.7907C214.859 76.9816 214.432 77.019 214.025 76.9028C213.395 76.6786 213.167 76.1016 213.341 75.1717C213.374 74.6736 213.602 73.5818 214.025 71.8964L212.993 72.2202H213.067ZM217.495 64.4616L218.092 64.8352C218.134 65.3168 217.524 65.8315 216.264 66.3795C216.082 66.3047 215.937 66.2715 215.829 66.2798L215.804 65.8564C215.862 65.6073 216.426 65.1424 217.495 64.4616ZM213.64 78.9078H213.926C214.058 78.9078 214.195 79.0489 214.336 79.3312V79.6052C214.27 80.5351 213.992 81 213.503 81C213.254 81 213.022 80.7675 212.806 80.3026C213.138 79.3727 213.416 78.9078 213.64 78.9078Z" fill="black"/>
<path d="M221.774 69.057C220.224 70.1363 219.369 71.8383 219.212 74.163C219.212 75.2506 219.639 75.7155 220.493 75.5578C221.488 75.317 222.831 74.1339 224.523 72.0085L224.784 72.2327C223.192 74.7898 221.824 76.2967 220.68 76.7533C220.19 77.0024 219.622 77.0481 218.976 76.8903C218.403 76.6994 218.026 76.3174 217.844 75.7446C217.661 75.1717 217.616 74.6155 217.707 74.0758C217.856 73.0048 218.258 71.9213 218.913 70.8254C219.568 69.7212 220.265 68.9408 221.003 68.4841C221.741 68.0192 222.384 67.8739 222.931 68.0483C223.478 68.2143 223.768 68.5921 223.802 69.1815C223.835 69.7627 223.64 70.1114 223.217 70.2276C222.802 70.3439 222.574 70.1114 222.533 69.5302C222.491 68.9408 222.239 68.783 221.774 69.057Z" fill="black"/>
<path d="M230.866 61.7592C231.43 60.1153 231.522 59.0858 231.14 58.6707C230.767 58.2556 230.207 58.5918 229.461 59.6794C228.723 60.767 228.035 62.4109 227.396 64.6111C226.766 66.8112 226.414 68.1769 226.339 68.7083C226.273 69.2396 226.451 69.2563 226.874 68.7581C227.305 68.2517 227.939 67.3716 228.777 66.1179C229.614 64.856 230.311 63.4031 230.866 61.7592ZM229.013 72.021C229.602 70.2941 229.585 69.5676 228.963 69.8416C228.557 69.991 227.981 70.5971 227.235 71.6598C226.497 72.7142 225.841 73.9554 225.269 75.3834L224.797 76.4295C223.901 77.2681 223.462 77.1228 223.478 75.9937L223.715 74.8106L223.976 73.6026C222.865 75.0057 222.048 75.8068 221.525 76.0061C221.268 75.8816 221.405 75.5702 221.936 75.0721L223.229 73.3037C223.594 72.7474 224.013 72.0334 224.486 71.1617C224.585 70.6801 224.714 70.0823 224.871 69.3683C225.278 67.6913 225.667 66.1719 226.04 64.8103C226.414 63.4487 226.944 62.029 227.633 60.5512C228.321 59.0734 229.046 58.0895 229.809 57.5997C230.572 57.1015 231.19 57.0102 231.663 57.3257C232.135 57.6329 232.359 58.1269 232.334 58.8077C232.309 59.4885 232.201 60.2025 232.011 60.9497C231.828 61.6886 231.575 62.4026 231.252 63.0917C230.929 63.7808 230.56 64.5073 230.145 65.2711C229.739 66.0349 229.382 66.6576 229.075 67.1391C228.793 67.5792 227.84 68.8702 226.215 71.0122C226.132 71.1284 226.045 71.2488 225.953 71.3734C225.746 72.0791 225.584 72.6851 225.468 73.1916L226.526 71.6349C228.217 69.1857 229.473 68.0067 230.294 68.0981C230.858 68.2392 231.086 68.7415 230.978 69.605L230.755 70.3646C230.522 71.253 230.191 72.4983 229.759 74.1007C229.552 74.7981 229.548 75.2049 229.747 75.3212C229.954 75.4374 230.162 75.4249 230.369 75.2838C230.576 75.1427 230.875 74.8604 231.264 74.437C231.663 74.0135 232.085 73.4573 232.533 72.7682C232.848 72.3364 233.076 72.2534 233.217 72.5191C232.413 74.0467 231.683 75.151 231.028 75.8318C230.373 76.5042 229.805 76.8447 229.324 76.853C228.851 76.8613 228.532 76.7326 228.366 76.4669C228.209 76.2012 228.143 75.8857 228.167 75.5204C228.201 75.1468 228.308 74.6321 228.491 73.9762C228.673 73.312 228.847 72.6602 229.013 72.021Z" fill="black"/>
<path d="M186.811 15.5296C187.739 16.8746 188.859 17.5928 190.169 17.6841C191.479 17.7671 192.677 16.995 193.763 15.3677C194.402 15.401 194.232 15.9531 193.254 17.0241C192.275 18.0868 191.301 18.6389 190.331 18.6804C189.369 18.7219 188.502 18.5766 187.731 18.2445C186.968 17.9041 186.251 17.3105 185.579 16.4637C183.813 18.0743 182.395 18.7676 181.325 18.5434C180.247 18.3192 180.003 17.4766 180.591 16.0153C181.172 14.5541 181.947 13.3087 182.917 12.2793C183.896 11.2415 184.576 11.0173 184.957 11.6068C185.339 12.1962 185.774 13.0804 186.263 14.2594C187.673 12.7151 188.917 11.038 189.995 9.22812C191.073 7.40989 191.632 5.84489 191.674 4.53311C191.724 3.21303 191.276 2.39939 190.331 2.09221C189.385 1.78502 188.494 2.04654 187.656 2.87678C186.819 3.70702 186.408 4.47084 186.425 5.16824C186.359 5.84074 186.139 6.13132 185.766 6.04C185.401 5.94037 185.388 5.37165 185.728 4.33385C186.068 3.28775 186.765 2.38694 187.818 1.63142C188.879 0.875903 190.02 0.647587 191.239 0.946474C192.466 1.24536 193.125 2.13787 193.216 3.624C193.316 5.10183 192.822 6.78306 191.736 8.66771C190.65 10.544 189.008 12.8314 186.811 15.5296ZM184.932 15.2308C184.825 14.9651 184.584 14.4752 184.211 13.7612C183.838 13.0389 183.369 13.1012 182.805 13.948C182.25 14.7949 181.897 15.758 181.748 16.8373C181.599 17.9166 182.117 17.9872 183.303 17.049C184.497 16.1025 185.04 15.4964 184.932 15.2308Z" fill="black"/>
<path d="M203.353 0C204.514 0.0581168 205.178 0.556261 205.343 1.49443C205.617 3.31266 205.468 5.76602 204.896 8.85451C204.116 12.0924 203.171 14.4628 202.06 15.9655C201.629 16.9867 200.92 17.7422 199.933 18.2321C198.946 18.7219 198.005 18.5932 197.109 17.846C196.206 17.0988 195.932 15.2474 196.288 12.2917C197.814 5.3592 200.169 1.26196 203.353 0ZM198.117 15.5421C198.44 16.912 198.909 17.4516 199.522 17.1611C200.136 16.8622 200.799 16.1191 201.512 14.9319C202.449 13.5703 203.146 11.7437 203.602 9.45228C204.017 7.82501 204.257 6.4136 204.323 5.21806C204.398 4.02251 204.394 3.16321 204.311 2.64016C204.228 2.10881 204.071 1.70614 203.838 1.43216C203.606 1.15818 203.208 1.05025 202.644 1.10837C201.293 1.70614 200.107 3.85647 199.087 7.55934C198.2 10.4486 197.876 13.1095 198.117 15.5421Z" fill="black"/>
<path d="M213.677 15.5296C214.606 16.8746 215.725 17.5928 217.035 17.6841C218.345 17.7671 219.544 16.995 220.63 15.3677C221.268 15.401 221.098 15.9531 220.12 17.0241C219.141 18.0868 218.167 18.6389 217.197 18.6804C216.235 18.7219 215.369 18.5766 214.597 18.2445C213.835 17.9041 213.117 17.3105 212.446 16.4637C210.679 18.0743 209.261 18.7676 208.192 18.5434C207.114 18.3192 206.869 17.4766 207.458 16.0153C208.038 14.5541 208.814 13.3087 209.784 12.2793C210.762 11.2415 211.442 11.0173 211.824 11.6068C212.205 12.1962 212.64 13.0804 213.13 14.2594C214.539 12.7151 215.783 11.038 216.861 9.22812C217.939 7.40989 218.499 5.84489 218.54 4.53311C218.59 3.21303 218.142 2.39939 217.197 2.09221C216.252 1.78502 215.36 2.04654 214.523 2.87678C213.685 3.70702 213.275 4.47084 213.291 5.16824C213.225 5.84074 213.005 6.13132 212.632 6.04C212.267 5.94037 212.255 5.37165 212.595 4.33385C212.935 3.28775 213.631 2.38694 214.684 1.63142C215.746 0.875903 216.886 0.647587 218.105 0.946474C219.332 1.24536 219.991 2.13787 220.083 3.624C220.182 5.10183 219.689 6.78306 218.602 8.66771C217.516 10.544 215.874 12.8314 213.677 15.5296ZM211.799 15.2308C211.691 14.9651 211.451 14.4752 211.077 13.7612C210.704 13.0389 210.236 13.1012 209.672 13.948C209.116 14.7949 208.764 15.758 208.615 16.8373C208.465 17.9166 208.984 17.9872 210.169 17.049C211.363 16.1025 211.907 15.4964 211.799 15.2308Z" fill="black"/>
<path d="M230.22 0C231.381 0.0581168 232.044 0.556261 232.21 1.49443C232.483 3.31266 232.334 5.76602 231.762 8.85451C230.983 12.0924 230.037 14.4628 228.926 15.9655C228.495 16.9867 227.786 17.7422 226.799 18.2321C225.812 18.7219 224.871 18.5932 223.976 17.846C223.072 17.0988 222.798 15.2474 223.155 12.2917C224.681 5.3592 227.036 1.26196 230.22 0ZM224.983 15.5421C225.307 16.912 225.775 17.4516 226.389 17.1611C227.002 16.8622 227.666 16.1191 228.379 14.9319C229.316 13.5703 230.012 11.7437 230.468 9.45228C230.883 7.82501 231.124 6.4136 231.19 5.21806C231.264 4.02251 231.26 3.16321 231.177 2.64016C231.094 2.10881 230.937 1.70614 230.705 1.43216C230.473 1.15818 230.075 1.05025 229.511 1.10837C228.159 1.70614 226.973 3.85647 225.953 7.55934C225.066 10.4486 224.743 13.1095 224.983 15.5421Z" fill="black"/>
</svg>
