<svg width="249" height="75" viewBox="0 0 249 75" fill="none" xmlns="http://www.w3.org/2000/svg">
<path d="M14.0313 36.4687C15.4049 36.6367 16.4721 37.3828 17.233 38.7069C17.9939 40.0311 18.1075 41.6467 17.5739 43.5539C17.0502 45.4611 15.3604 47.4375 12.5046 49.483C13.0876 50.7478 13.4038 51.7508 13.4532 52.492C13.5026 53.2331 13.6756 54.3695 13.972 55.9012C14.3179 57.2253 15.2221 57.4773 16.6846 56.6571L18.6412 54.5968L18.7746 54.8488V55.1304C17.1638 57.6799 15.8298 58.9448 14.7725 58.925C14.0017 58.9448 13.389 58.5297 12.9344 57.6799C12.4898 56.8301 12.1983 55.4367 12.0599 53.4999C11.9314 51.5532 11.2743 50.0956 10.0885 49.1272C9.9205 48.475 10.548 48.2181 11.971 48.3565C12.9987 47.8426 13.8831 47.1064 14.6242 46.1479C15.3752 45.1795 15.8298 44.0529 15.9879 42.7683C16.1559 41.4738 16.062 40.4609 15.7063 39.7297C15.3505 38.9885 14.7774 38.5043 13.9869 38.2771C13.2062 38.0399 12.5688 38.3018 12.0747 39.0627C11.0767 40.1398 10.2812 42.0766 9.68828 44.8731C9.41159 46.4542 9.11514 48.5393 8.79892 51.1283C8.48271 53.7074 7.6724 55.8073 6.36801 57.4279C5.06362 59.0485 3.65052 59.7501 2.12873 59.5327C1.18008 59.6414 0.478475 59.2215 0.0239139 58.2728C-0.0847856 57.2056 0.177081 56.6423 0.809514 56.583C1.44195 56.5237 1.82734 56.84 1.96568 57.5317C2.11391 58.2135 2.58329 58.4853 3.37383 58.3469C4.64858 58.0406 5.73558 56.5929 6.63482 54.0039C7.14867 51.0196 7.73169 47.5807 8.38389 43.6873C8.78904 42.2742 9.30783 41.0341 9.94027 39.9668L10.7407 38.7514C10.8593 38.2968 10.38 38.2573 9.30289 38.6328C8.22578 39.0083 7.2129 39.7494 6.26425 40.8562C5.32548 41.963 4.82151 43.1092 4.75234 44.2951C4.68317 45.471 4.38671 45.8317 3.86298 45.3771C3.34913 44.9225 3.46277 43.88 4.2039 42.2495C4.95492 40.619 6.0765 39.3146 7.56864 38.3363C9.06079 37.3581 10.2664 36.7849 11.1854 36.6169C12.1143 36.4489 13.0629 36.3995 14.0313 36.4687Z" fill="black"/>
<path d="M25.9043 48.564L26.9715 48.5047L27.2976 49.1717C27.3371 49.646 27.0555 50.565 26.4527 51.9287C26.0278 53.2825 25.7412 54.1818 25.593 54.6264L25.3855 56.0049C25.2076 57.0228 25.3509 57.4872 25.8153 57.3983L26.3786 57.087C26.7739 56.7708 27.6435 55.8814 28.9874 54.4189C29.2048 54.4288 29.3431 54.5919 29.4024 54.9081C27.7324 57.507 26.4082 58.7867 25.4299 58.7471C24.2342 59.0041 23.671 58.3568 23.7402 56.8054L24.2441 54.2262C22.7125 56.1631 21.3438 57.5119 20.1383 58.2728C19.6145 58.6582 18.9179 58.8114 18.0483 58.7323L17.6332 58.3025L17.4998 57.7837C17.4405 57.0228 17.5196 56.2619 17.737 55.501C17.9741 54.8389 18.3299 54.0829 18.8042 53.2331C19.7529 51.7113 20.9881 50.481 22.5099 49.5423C24.0416 48.5936 25.173 48.2675 25.9043 48.564ZM20.3309 56.4941C21.3685 55.753 22.1739 55.0217 22.747 54.3003C23.4289 53.6185 24.0613 52.5315 24.6443 51.0394C24.17 50.2982 23.4783 50.2142 22.5692 50.7874C22.0454 51.0739 21.4426 51.6965 20.7608 52.655C19.9999 53.6827 19.4959 54.6166 19.2489 55.4565C19.0019 56.7609 19.3625 57.1068 20.3309 56.4941Z" fill="black"/>
<path d="M43.7656 57.2649C43.4691 58.2926 43.1084 58.8558 42.6835 58.9547C42.2685 59.0535 42.0807 58.8114 42.1202 58.2283C42.4068 56.0544 42.8564 54.1175 43.4691 52.4179L43.5432 51.5581C43.3653 51.3309 43.1776 51.2271 42.98 51.2469L42.3722 51.4247C40.8998 53.0256 39.9216 54.4041 39.4373 55.5603C38.9531 56.7164 38.6666 57.5514 38.5776 58.0653C37.9353 59.1226 37.4116 59.3302 37.0064 58.6878C37.0855 57.9467 37.3572 56.6818 37.8217 54.8932L38.2515 53.2331C38.8049 51.6323 38.4887 51.4198 37.3029 52.5957C37.2634 52.823 36.5618 53.8161 35.1981 55.5751L34.1308 56.8943L33.6565 56.9239L33.6713 56.4793C34.0666 55.6492 35.1882 54.1669 37.0361 52.0325C38.0934 50.7973 39.0322 49.982 39.8524 49.5867L40.6676 49.7201C40.9246 50.4119 40.7664 51.4396 40.1933 52.8032C41.4088 50.9652 42.6094 49.6954 43.7952 48.9938L44.4178 48.9494C45.3466 49.315 45.6678 50.3625 45.3812 52.0918C45.233 52.5562 44.6944 54.2806 43.7656 57.2649ZM48.2568 58.9547C47.5355 58.9151 47.1501 58.5199 47.1007 57.7688L47.1896 56.6571C47.6145 55.1551 47.9456 53.9199 48.1827 52.9515C48.8448 51.1036 48.8053 50.3427 48.0641 50.6688L47.2934 51.2172C46.3249 52.0671 45.1144 53.8161 43.6618 56.4644L43.0244 55.9457L45.1589 52.8032C47.1748 49.8881 48.6719 48.4849 49.6502 48.5936C50.4209 48.7616 50.7421 49.3595 50.6136 50.3872L50.3468 51.2913C50.0701 52.3487 49.6749 53.831 49.161 55.7381C48.8151 56.8943 48.8596 57.4131 49.2944 57.2945L49.1462 58.673L48.2568 58.9547ZM52.0662 54.33C52.2244 54.33 52.422 54.2312 52.6592 54.0335H52.9408C52.1206 55.9012 50.9348 57.4082 49.3833 58.5544C49.1561 58.6631 48.9436 58.7521 48.746 58.8212L49.2203 57.2797C50.2184 56.7263 51.167 55.7431 52.0662 54.33Z" fill="black"/>
<path d="M62.0419 43.9838L62.872 43.2575L63.035 43.7614C62.1457 44.9077 61.1328 45.7477 59.9964 46.2813C58.8698 46.805 57.9508 46.9187 57.2394 46.6222C56.5279 46.3159 56.1425 45.886 56.0832 45.3326C56.0239 44.7694 56.1524 44.3692 56.4686 44.132C56.7947 43.8948 57.1059 43.796 57.4024 43.8355C57.7087 43.8751 57.8718 44.0529 57.8916 44.3692C57.9212 44.6854 58.0941 44.9374 58.4103 45.1251C58.7266 45.303 59.2898 45.2783 60.1001 45.051C60.9104 44.8237 61.5577 44.468 62.0419 43.9838ZM59.3442 48.564L60.4114 48.5047L60.7375 49.1717C60.777 49.646 60.4954 50.565 59.8926 51.9287C59.4677 53.2825 59.1811 54.1818 59.0329 54.6264L58.8254 56.0049C58.6475 57.0228 58.7908 57.4872 59.2552 57.3983L59.8185 57.087C60.2138 56.7708 61.0834 55.8814 62.4273 54.4189C62.6447 54.4288 62.783 54.5919 62.8423 54.9081C61.1723 57.507 59.8481 58.7867 58.8698 58.7471C57.6742 59.0041 57.1109 58.3568 57.1801 56.8054L57.684 54.2262C56.1524 56.1631 54.7837 57.5119 53.5782 58.2728C53.0544 58.6582 52.3578 58.8114 51.4882 58.7323L51.0731 58.3025L50.9397 57.7837C50.8804 57.0228 50.9595 56.2619 51.1769 55.501C51.4141 54.8389 51.7698 54.0829 52.2441 53.2331C53.1928 51.7113 54.428 50.481 55.9498 49.5423C57.4815 48.5936 58.6129 48.2675 59.3442 48.564ZM53.7709 56.4941C54.8084 55.753 55.6138 55.0217 56.1869 54.3003C56.8688 53.6185 57.5012 52.5315 58.0842 51.0394C57.6099 50.2982 56.9182 50.2142 56.0091 50.7874C55.4853 51.0739 54.8826 51.6965 54.2007 52.655C53.4398 53.6827 52.9358 54.6166 52.6888 55.4565C52.4418 56.7609 52.8024 57.1068 53.7709 56.4941ZM63.6724 37.9658C63.7613 38.7662 63.2178 39.784 62.0419 41.0192C61.6664 41.5825 61.2711 42.0272 60.8561 42.3533L60.9302 42.3829C60.6239 42.6003 60.3126 42.8474 59.9964 43.1241C59.69 43.4007 59.4331 43.5836 59.2256 43.6725C59.0181 43.7516 58.8896 43.6774 58.8402 43.4502L60.8264 40.7673C61.5083 39.7198 61.9826 38.8107 62.2494 38.0399C62.5162 37.2691 62.9263 37.027 63.4797 37.3136L63.6724 37.9658Z" fill="black"/>
<path d="M64.3542 50.4613L64.0133 50.1796H63.1832L62.3828 50.0759C61.6417 49.8684 61.5923 49.5472 62.2346 49.1124C63.2919 49.1124 64.0232 49.0531 64.4283 48.9345C64.8434 48.8061 65.2337 48.0304 65.5993 46.6074C66.1428 44.4037 66.5875 42.8326 66.9334 41.8938L67.4522 41.0044C67.887 40.7277 68.1735 40.792 68.3119 41.1971C68.4502 41.6023 68.3168 42.2742 67.9117 43.213L67.0519 45.9404C66.7753 46.8396 66.6764 47.556 66.7555 48.0896C67.0421 48.3367 67.3583 48.5442 67.7041 48.7122C69.9177 48.8407 71.0195 48.8308 71.0096 48.6826L71.4098 48.7863L71.4246 48.9197C71.395 49.1865 70.6934 49.4187 69.3198 49.6164L68.2229 49.9128L67.2743 50.0462C66.5826 50.1549 66.049 50.9702 65.6734 52.492C65.1398 54.3893 64.9027 55.753 64.962 56.583C65.0212 57.4131 65.5005 57.5218 66.3997 56.9091C67.0322 56.583 68.1291 55.4466 69.6904 53.4999H69.8238L69.8979 54.0632C68.4156 56.2372 67.3138 57.6058 66.5924 58.1691C66.0588 58.7224 65.4313 59.0139 64.71 59.0436C63.5242 58.9942 63.0548 58.0999 63.3018 56.3607C63.4006 55.4911 63.6526 54.2707 64.0578 52.6995C63.2969 54.0829 62.5607 55.1798 61.8492 55.9901C61.1377 56.7905 60.7128 57.1364 60.5745 57.0277C60.4262 56.919 60.3966 56.8004 60.4855 56.672C60.5745 56.5336 60.7424 56.3014 60.9895 55.9753C61.2365 55.6492 61.6367 55.081 62.1901 54.2707C62.7336 53.4604 63.455 52.1906 64.3542 50.4613Z" fill="black"/>
<path d="M83.8164 57.2649C83.5199 58.2926 83.1592 58.8558 82.7343 58.9547C82.3193 59.0535 82.1315 58.8114 82.1711 58.2283C82.4576 56.0544 82.9072 54.1175 83.5199 52.4179L83.594 51.5581C83.4162 51.3309 83.2284 51.2271 83.0308 51.2469L82.423 51.4247C80.9507 53.0256 79.9724 54.4041 79.4882 55.5603C79.004 56.7164 78.7174 57.5514 78.6284 58.0653C77.9861 59.1226 77.4624 59.3302 77.0572 58.6878C77.1363 57.9467 77.408 56.6818 77.8725 54.8932L78.3023 53.2331C78.8557 51.6323 78.5395 51.4198 77.3537 52.5957C77.3142 52.823 76.6126 53.8161 75.2489 55.5751L74.1816 56.8943L73.7073 56.9239L73.7221 56.4793C74.1174 55.6492 75.239 54.1669 77.0869 52.0325C78.1442 50.7973 79.083 49.982 79.9032 49.5867L80.7184 49.7201C80.9754 50.4119 80.8173 51.4396 80.2441 52.8032C81.4596 50.9652 82.6602 49.6954 83.846 48.9938L84.4686 48.9494C85.3975 49.315 85.7186 50.3625 85.432 52.0918C85.2838 52.5562 84.7453 54.2806 83.8164 57.2649ZM88.3076 58.9547C87.5863 58.9151 87.2009 58.5199 87.1515 57.7688L87.2404 56.6571C87.6653 55.1551 87.9964 53.9199 88.2335 52.9515C88.8956 51.1036 88.8561 50.3427 88.1149 50.6688L87.3442 51.2172C86.3757 52.0671 85.1652 53.8161 83.7126 56.4644L83.0752 55.9457L85.2097 52.8032C87.2256 49.8881 88.7227 48.4849 89.701 48.5936C90.4717 48.7616 90.7929 49.3595 90.6644 50.3872L90.3976 51.2913C90.1209 52.3487 89.7257 53.831 89.2118 55.7381C88.866 56.8943 88.9104 57.4131 89.3452 57.2945L89.197 58.673L88.3076 58.9547ZM92.1171 54.33C92.2752 54.33 92.4728 54.2312 92.71 54.0335H92.9916C92.1714 55.9012 90.9856 57.4082 89.4342 58.5544C89.2069 58.6631 88.9944 58.7521 88.7968 58.8212L89.2711 57.2797C90.2692 56.7263 91.2178 55.7431 92.1171 54.33Z" fill="black"/>
<path d="M94.8444 61.5931H95.1853C95.3434 61.5931 95.5065 61.7611 95.6745 62.0971V62.4232C95.5954 63.5299 95.2644 64.0833 94.6814 64.0833C94.3849 64.0833 94.1082 63.8066 93.8513 63.2532C94.2466 62.1465 94.5776 61.5931 94.8444 61.5931ZM99.395 48.564L100.462 48.5047L100.788 49.1717C100.828 49.646 100.546 50.565 99.9434 51.9287C99.5185 53.2825 99.2319 54.1818 99.0837 54.6264L98.8762 56.0049C98.6983 57.0228 98.8416 57.4872 99.306 57.3983L99.8693 57.087C100.265 56.7708 101.134 55.8814 102.478 54.4189C102.695 54.4288 102.834 54.5919 102.893 54.9081C101.223 57.507 99.8989 58.7867 98.9206 58.7471C97.725 59.0041 97.1617 58.3568 97.2309 56.8054L97.7348 54.2262C96.2032 56.1631 94.8345 57.5119 93.629 58.2728C93.1052 58.6582 92.4086 58.8114 91.539 58.7323L91.1239 58.3025L90.9905 57.7837C90.9312 57.0228 91.0103 56.2619 91.2277 55.501C91.4649 54.8389 91.8206 54.0829 92.2949 53.2331C93.2436 51.7113 94.4788 50.481 96.0006 49.5423C97.5323 48.5936 98.6637 48.2675 99.395 48.564ZM93.8217 56.4941C94.8592 55.753 95.6646 55.0217 96.2377 54.3003C96.9196 53.6185 97.552 52.5315 98.135 51.0394C97.6607 50.2982 96.969 50.2142 96.0599 50.7874C95.5361 51.0739 94.9334 51.6965 94.2515 52.655C93.4906 53.6827 92.9866 54.6166 92.7396 55.4565C92.4926 56.7609 92.8532 57.1068 93.8217 56.4941Z" fill="black"/>
<path d="M104.538 59.0584L104.375 58.3766L105.354 54.1521L105.695 52.9218C106.031 51.7261 105.818 51.3309 105.057 51.736C103.12 54.7302 101.796 56.1927 101.085 56.1235C101.885 54.8685 103.397 52.7044 105.62 49.6312C106.342 49.1964 106.846 48.979 107.132 48.979C107.538 49.2557 107.755 49.735 107.785 50.4168L107.725 51.6323L107.607 52.5661L107.34 53.7223L105.754 58.7027C105.517 59.1869 105.112 59.3055 104.538 59.0584ZM110.808 58.9547C110.087 58.9151 109.702 58.5199 109.652 57.7688L109.741 56.6571C110.166 55.1551 110.497 53.9199 110.734 52.9515C111.396 51.1036 111.357 50.3427 110.616 50.6688L109.845 51.2172C108.877 52.0671 107.666 53.8161 106.213 56.4644L105.576 55.9457L107.71 52.8032C109.726 49.8881 111.223 48.4849 112.202 48.5936C112.973 48.7616 113.294 49.3595 113.165 50.3872L112.898 51.2913C112.622 52.3487 112.226 53.831 111.713 55.7381C111.367 56.8943 111.411 57.4131 111.846 57.2945L111.698 58.673L110.808 58.9547ZM114.618 54.33C114.776 54.33 114.974 54.2312 115.211 54.0335H115.492C114.672 55.9012 113.486 57.4082 111.935 58.5544C111.708 58.6631 111.495 58.7521 111.298 58.8212L111.772 57.2797C112.77 56.7263 113.719 55.7431 114.618 54.33Z" fill="black"/>
<path d="M120.073 59.5772C119.519 60.1602 118.862 60.8964 118.101 61.7858C117.35 62.6751 116.485 63.856 115.507 65.3284C114.539 66.8107 113.857 68.199 113.462 69.4936C113.057 70.7881 112.987 71.7911 113.254 72.5026C113.511 73.214 114.035 73.382 114.825 73.0065C115.606 72.631 116.347 71.717 117.049 70.2643C117.75 68.8117 118.348 67.1269 118.842 65.2098C119.346 63.2927 119.756 61.4152 120.073 59.5772ZM116.1 56.9091C116.574 57.4131 117.197 57.5465 117.968 57.3093C118.739 57.0722 119.396 56.5336 119.939 55.6937C120.483 54.8438 120.853 53.8211 121.051 52.6254C121.249 51.4297 120.982 50.5304 120.25 49.9277C119.519 49.315 118.645 49.5274 117.627 50.565C116.609 51.5927 115.982 52.7785 115.744 54.1225C115.517 55.4664 115.636 56.3953 116.1 56.9091ZM123.067 55.8567C123.739 55.58 124.915 54.4189 126.595 52.3734L126.535 53.2331L125.928 54.3596C125.493 55.1205 124.292 56.4496 122.326 58.3469L121.673 59.1177C120.932 63.0309 120.137 66.0596 119.287 68.204C118.437 70.3483 117.414 72.0628 116.219 73.3475C115.033 74.6321 113.971 75.1657 113.032 74.9483C112.093 74.7408 111.54 74.0194 111.372 72.7842C111.194 71.5588 111.51 70.0865 112.32 68.367C113.131 66.6575 113.99 65.2592 114.899 64.1722C115.799 63.0852 116.634 62.1316 117.404 61.3115C118.126 60.5308 119.099 59.4981 120.325 58.2135C120.423 57.6305 120.547 56.9536 120.695 56.1828C119.134 58.3469 117.647 59.3697 116.234 59.2511C114.82 59.1325 114.064 58.2185 113.966 56.5089C113.867 54.7994 114.391 53.0849 115.537 51.3655C116.683 49.646 117.829 48.6677 118.976 48.4306C120.132 48.1835 120.967 48.2478 121.481 48.6233C122.004 48.9889 122.326 49.3644 122.444 49.7498C122.563 50.1253 122.696 49.9375 122.844 49.1865C123.003 48.4256 123.338 48.0304 123.852 48.0007C124.376 47.9711 124.435 48.6183 124.03 49.9425C123.625 51.2666 123.18 52.9465 122.696 54.9822L122.755 55.5454C122.765 55.6541 122.869 55.7579 123.067 55.8567Z" fill="black"/>
<path d="M128.685 58.1542C127.904 58.8163 127.751 58.8262 128.225 58.1839C129.757 56.4941 131.14 54.8142 132.375 53.1442C133.611 51.4643 134.727 50.1747 135.725 49.2755C136.723 48.3663 137.474 47.7833 137.978 47.5264C138.492 47.2596 138.843 47.1706 139.031 47.2596C139.218 47.3485 139.085 47.561 138.631 47.897C138.176 48.2231 137.371 48.9691 136.214 50.1352C135.058 51.3012 132.548 53.9742 128.685 58.1542ZM133.457 46.3702C133.517 47.8228 133.685 49.5719 133.961 51.6174C134.248 53.6531 134.628 55.1106 135.103 55.9901C135.587 56.8696 136.155 57.2006 136.807 56.9832C137.469 56.7658 138.314 56.0198 139.342 54.745C139.974 53.9644 140.35 53.6481 140.469 53.7964C140.597 53.9347 140.276 54.5622 139.505 55.6788C138.734 56.7955 137.993 57.5811 137.282 58.0356C136.58 58.4902 135.878 58.589 135.177 58.3321C134.475 58.0752 133.907 57.4823 133.472 56.5534C133.037 55.6146 132.726 54.3794 132.538 52.8477C132.351 51.316 132.281 49.8881 132.331 48.564C132.39 47.2398 132.766 46.5086 133.457 46.3702ZM132.301 53.3665H132.435L133.28 53.3962C131.432 55.5603 129.974 57.1265 128.907 58.0949C127.84 59.0535 127.024 59.5772 126.461 59.6661C127.143 59.1029 127.899 58.4013 128.729 57.5613C129.549 56.7115 130.74 55.3132 132.301 53.3665Z" fill="black"/>
<path d="M146.946 48.564L148.013 48.5047L148.339 49.1717C148.379 49.646 148.097 50.565 147.494 51.9287C147.07 53.2825 146.783 54.1818 146.635 54.6264L146.427 56.0049C146.249 57.0228 146.393 57.4872 146.857 57.3983L147.42 57.087C147.816 56.7708 148.685 55.8814 150.029 54.4189C150.247 54.4288 150.385 54.5919 150.444 54.9081C148.774 57.507 147.45 58.7867 146.472 58.7471C145.276 59.0041 144.713 58.3568 144.782 56.8054L145.286 54.2262C143.754 56.1631 142.386 57.5119 141.18 58.2728C140.656 58.6582 139.96 58.8114 139.09 58.7323L138.675 58.3025L138.542 57.7837C138.482 57.0228 138.561 56.2619 138.779 55.501C139.016 54.8389 139.372 54.0829 139.846 53.2331C140.795 51.7113 142.03 50.481 143.552 49.5423C145.083 48.5936 146.215 48.2675 146.946 48.564ZM141.373 56.4941C142.41 55.753 143.216 55.0217 143.789 54.3003C144.471 53.6185 145.103 52.5315 145.686 51.0394C145.212 50.2982 144.52 50.2142 143.611 50.7874C143.087 51.0739 142.484 51.6965 141.803 52.655C141.042 53.6827 140.538 54.6166 140.291 55.4565C140.044 56.7609 140.404 57.1068 141.373 56.4941ZM148.71 45.3771C148.157 45.3178 147.717 45.1894 147.391 44.9917C147.065 44.7842 146.734 44.6656 146.398 44.636C146.072 44.5964 145.74 44.7002 145.404 44.9472C145.069 45.1844 144.767 45.4413 144.5 45.718C144.233 45.9947 143.962 46.1084 143.685 46.0589C143.408 45.9997 143.25 45.8267 143.211 45.5402C143.181 45.2536 143.285 44.9374 143.522 44.5915C143.769 44.2358 144.13 43.9294 144.604 43.6725C145.088 43.4057 145.568 43.2772 146.042 43.2871C146.526 43.2871 147.05 43.4353 147.613 43.7318C148.176 44.0282 148.67 44.1913 149.095 44.2209C149.52 44.2407 149.901 44.1271 150.237 43.88C150.573 43.6231 150.859 43.3217 151.096 42.9758C151.343 42.6201 151.511 42.5707 151.6 42.8276C151.689 43.0845 151.571 43.4502 151.245 43.9245C150.928 44.3988 150.568 44.7743 150.163 45.051C149.757 45.3178 149.273 45.4265 148.71 45.3771Z" fill="black"/>
<path d="M164.733 41.0489C165.405 39.0923 165.514 37.867 165.059 37.3729C164.615 36.8788 163.948 37.279 163.058 38.5735C162.179 39.868 161.359 41.8246 160.598 44.4433C159.847 47.0619 159.427 48.6875 159.338 49.3199C159.259 49.9524 159.471 49.9721 159.975 49.3792C160.489 48.7764 161.245 47.729 162.243 46.2368C163.241 44.7348 164.071 43.0055 164.733 41.0489ZM162.525 53.2628C163.226 51.2073 163.206 50.3427 162.465 50.6688C161.981 50.8467 161.294 51.568 160.405 52.8329C159.526 54.0879 158.745 55.5652 158.063 57.2649L157.5 58.51C156.433 59.508 155.909 59.3351 155.929 57.9912L156.21 56.583L156.521 55.1452C155.197 56.8153 154.224 57.7688 153.601 58.006C153.295 57.8578 153.458 57.4872 154.091 56.8943L155.632 54.7895C156.067 54.1274 156.566 53.2776 157.129 52.24C157.248 51.6668 157.401 50.9554 157.589 50.1055C158.073 48.1094 158.537 46.301 158.982 44.6804C159.427 43.0598 160.059 41.37 160.879 39.6111C161.7 37.8521 162.564 36.6811 163.473 36.0981C164.382 35.5052 165.119 35.3965 165.682 35.772C166.245 36.1376 166.512 36.7256 166.482 37.5359C166.453 38.3462 166.324 39.1961 166.097 40.0854C165.88 40.9649 165.578 41.8147 165.193 42.6349C164.807 43.4551 164.368 44.3198 163.874 45.2289C163.389 46.138 162.964 46.8791 162.599 47.4523C162.263 47.976 161.126 49.5126 159.19 52.0621C159.091 52.2005 158.987 52.3438 158.878 52.492C158.631 53.3319 158.439 54.0533 158.3 54.6561L159.56 52.8032C161.576 49.8881 163.073 48.4849 164.051 48.5936C164.723 48.7616 164.995 49.3595 164.867 50.3872L164.6 51.2913C164.323 52.3487 163.928 53.831 163.414 55.7381C163.167 56.5682 163.162 57.0524 163.399 57.1908C163.646 57.3291 163.893 57.3143 164.14 57.1463C164.387 56.9783 164.743 56.6423 165.208 56.1383C165.682 55.6344 166.186 54.9723 166.719 54.1521C167.095 53.6383 167.367 53.5394 167.535 53.8557C166.576 55.6739 165.707 56.9882 164.926 57.7985C164.145 58.5989 163.468 59.0041 162.895 59.0139C162.332 59.0238 161.952 58.8707 161.754 58.5544C161.566 58.2382 161.487 57.8627 161.517 57.4279C161.556 56.9832 161.685 56.3706 161.902 55.5899C162.119 54.7994 162.327 54.0236 162.525 53.2628Z" fill="black"/>
<path d="M175.198 46.9335L174.546 46.7408L173.301 45.7477C172.866 44.8089 171.754 45.1646 169.966 46.8149L169.15 47.2151L168.498 47.2299L167.95 46.8149L168.113 46.0738L168.824 45.8366C169.852 45.6489 170.974 44.8682 172.189 43.4946L172.752 43.1092L173.108 43.1834L174.739 45.7625L175.746 46.6074L175.598 46.8001L175.198 46.9335ZM168.513 61.1484H168.854C169.012 61.1484 169.175 61.3164 169.343 61.6524V61.9785C169.264 63.0852 168.933 63.6386 168.35 63.6386C168.053 63.6386 167.777 63.3619 167.52 62.8085C167.915 61.7018 168.246 61.1484 168.513 61.1484ZM167.846 54.7598C167.589 56.4101 167.816 57.3291 168.528 57.5169C169.249 57.7046 169.975 57.2846 170.707 56.2569C171.438 55.2292 171.888 54.1175 172.056 52.9218C172.233 51.7163 172.224 50.8368 172.026 50.2834C171.838 49.73 171.482 49.4435 170.959 49.4237C170.445 49.394 169.862 49.8634 169.21 50.8318C168.557 51.8003 168.103 53.1096 167.846 54.7598ZM168.661 58.8954C168.602 58.9052 168.543 58.9151 168.483 58.925C167.367 58.8558 166.65 58.2629 166.334 57.1463C166.018 56.0198 166.171 54.5968 166.794 52.8774C167.416 51.1579 168.444 49.8684 169.877 49.0087C170.124 48.6134 170.494 48.307 170.988 48.0896C171.492 47.8722 172.016 47.8278 172.56 47.9562C173.113 48.0847 173.513 48.5343 173.76 49.3051C174.017 50.0759 173.938 51.2716 173.523 52.8922C173.128 54.4041 172.392 55.7875 171.314 57.0425C172.253 56.5089 173.39 55.4565 174.724 53.8853L174.931 54.2855C173.073 57.1908 171.043 58.7274 168.839 58.8954H168.661Z" fill="black"/>
<path d="M175.732 53.7371L174.605 55.1452C173.656 56.2619 173.118 56.6028 172.989 56.168C173.869 55.0514 174.615 54.0039 175.228 53.0256L175.865 52.4327C176.418 52.2746 176.374 52.7094 175.732 53.7371ZM174.946 53.4999C175.865 52.0967 176.893 50.5502 178.029 48.8604L178.385 48.6677C178.77 48.6776 178.948 48.979 178.919 49.5719C178.118 51.0838 177.525 53.0305 177.14 55.412L176.917 56.672L176.888 57.2945C176.908 57.5218 177.061 57.6552 177.347 57.6947C177.782 57.6552 178.563 57.0326 179.689 55.8271L180.875 54.4189L180.979 54.834C180.05 56.7313 178.928 58.0999 177.614 58.9398C177.08 59.1671 176.572 59.2116 176.087 59.0732C175.336 58.8064 175.065 58.1196 175.272 57.0129C175.312 56.42 175.583 55.1205 176.087 53.1145L174.857 53.4999H174.946ZM180.223 44.2654L180.934 44.7101C180.984 45.2832 180.257 45.8959 178.755 46.5481C178.538 46.4592 178.365 46.4196 178.237 46.4295L178.207 45.9255C178.276 45.6291 178.948 45.0757 180.223 44.2654Z" fill="black"/>
<path d="M198.158 36.8393C198.554 35.8214 198.983 35.357 199.448 35.4459C199.912 35.5349 199.833 36.4045 199.211 38.0547C198.272 41.2366 197.556 44.0184 197.061 46.3999C196.577 48.7814 196.192 50.654 195.905 52.0177C195.629 53.3813 195.357 55.081 195.09 57.1166C195.139 57.7985 195.525 57.7886 196.246 57.087L197.269 56.1383C197.822 55.4367 198.46 54.6116 199.181 53.663L199.418 54.1225C198.252 56.504 196.903 58.2086 195.372 59.2363L194.66 59.3845C193.771 59.1177 193.351 58.426 193.4 57.3093C193.904 54.0879 193.939 52.6945 193.504 53.1293C193.8 52.2103 193.825 51.5581 193.578 51.1728C193.341 50.7874 192.936 50.6194 192.363 50.6688C191.79 50.7182 191.118 51.0789 190.347 51.7508C189.576 52.4129 188.944 53.2331 188.449 54.2114C187.955 55.1897 187.778 55.9753 187.916 56.5682C188.044 57.1611 188.375 57.423 188.909 57.3538C189.452 57.2747 190.075 56.9388 190.777 56.3459C191.488 55.7431 192.407 54.6363 193.534 53.0256C194.215 51.8101 194.482 51.7904 194.334 52.9663C193.356 54.7549 192.279 56.2075 191.103 57.3242C189.937 58.4309 189.057 59.0634 188.464 59.2215C187.871 59.3796 187.392 59.3895 187.026 59.2511C186.651 59.1128 186.364 58.7965 186.167 58.3025C185.969 57.8084 185.984 57.0524 186.211 56.0346C186.439 55.0069 186.913 53.994 187.634 52.9959C188.356 51.988 189.097 51.1728 189.858 50.5502C190.628 49.9277 191.365 49.5274 192.066 49.3496C192.768 49.1618 193.321 49.147 193.726 49.3051C194.131 49.4632 194.438 49.7103 194.645 50.0462L194.882 49.3199C195.189 48.2132 195.678 46.2368 196.35 43.3909C197.032 40.5449 197.635 38.361 198.158 36.8393Z" fill="black"/>
<path d="M208.608 48.1489C209.172 47.9513 209.438 48.1391 209.409 48.7122C208.124 52.3783 207.413 54.6116 207.274 55.412L207.126 56.3162C207.106 56.9981 207.304 57.3736 207.719 57.4427C208.885 56.8992 209.957 55.8617 210.935 54.33C211.094 54.33 211.291 54.2312 211.528 54.0335H211.81C210.99 55.9012 209.804 57.4082 208.253 58.5544C206.533 59.4043 205.594 58.8805 205.436 56.9832L205.733 55.2638C205.041 56.5188 204.147 57.5514 203.05 58.3617C202.21 58.9448 201.543 59.1918 201.049 59.1029C200.555 59.0238 200.229 58.6977 200.07 58.1246C199.912 57.5416 200.149 56.2718 200.782 54.3152L201.064 52.9515C201.261 52.1511 200.841 52.4623 199.804 53.8853L197.788 56.4348C197.215 56.4842 197.131 56.247 197.536 55.7233C197.941 55.1996 198.292 54.7154 198.588 54.2707C198.885 53.826 200.026 52.1066 202.012 49.1124C203.04 48.5689 203.618 48.5491 203.746 49.0531C203.114 51.2765 202.674 52.8032 202.427 53.6333C202.18 54.4535 201.963 55.4367 201.775 56.583L201.864 57.1463L202.116 57.25C202.827 57.1611 203.989 56.0593 205.599 53.9446L207.571 49.3496L208.608 48.1489Z" fill="black"/>
<path d="M219.399 56.0049L219.533 57.1166C219.967 57.8973 220.733 57.9269 221.83 57.2056C222.591 56.6226 223.574 55.4664 224.78 53.7371L224.928 53.7223C225.047 53.7321 225.096 53.831 225.076 54.0187C224.286 56.0445 222.996 57.6305 221.208 58.7768L220.007 59.177C218.742 59.2363 217.996 58.3815 217.769 56.6127L217.724 56.583L217.843 54.1521C217.981 53.5098 218.238 52.3685 218.614 50.7281L219.799 52.9515C219.493 54.1175 219.36 55.1353 219.399 56.0049ZM219.355 52.6254C218.327 53.9891 217.803 54.7598 217.783 54.9377C216.38 56.7362 215.353 57.759 214.7 58.006C214.394 57.8578 214.557 57.4872 215.19 56.8943L216.731 54.7895C217.304 53.7321 217.991 52.5908 218.791 51.3655L219.355 52.6254ZM226.158 37.3729C225.714 36.8788 225.047 37.279 224.157 38.5735C223.278 39.868 222.458 41.8246 221.697 44.4433C220.946 47.0619 220.526 48.6875 220.437 49.3199C220.358 49.9524 220.57 49.9721 221.074 49.3792C221.588 48.7764 222.344 47.729 223.342 46.2368C224.34 44.7348 225.17 43.0055 225.832 41.0489C226.504 39.0923 226.613 37.867 226.158 37.3729ZM218.228 52.24C218.347 51.6668 218.5 50.9554 218.688 50.1055C219.172 48.1094 219.636 46.301 220.081 44.6804C220.526 43.0598 221.158 41.37 221.978 39.6111C222.798 37.8521 223.663 36.6811 224.572 36.0981C225.481 35.5052 226.218 35.3965 226.781 35.772C227.344 36.1376 227.611 36.7256 227.581 37.5359C227.552 38.3462 227.423 39.1961 227.196 40.0854C226.978 40.9649 226.677 41.8147 226.292 42.6349C225.906 43.4551 225.467 44.3198 224.972 45.2289C224.488 46.138 224.063 46.8791 223.698 47.4523C223.362 47.976 222.225 49.5126 220.289 52.0621C220.19 52.2005 220.086 52.3438 219.977 52.492C219.888 52.7983 219.804 53.0898 219.725 53.3665L218.006 52.655C218.075 52.5167 218.149 52.3783 218.228 52.24Z" fill="black"/>
<path d="M225.773 53.7371L224.646 55.1452C223.698 56.2619 223.159 56.6028 223.031 56.168C223.91 55.0514 224.656 54.0039 225.269 53.0256L225.906 52.4327C226.46 52.2746 226.415 52.7094 225.773 53.7371ZM224.987 53.4999C225.906 52.0967 226.934 50.5502 228.07 48.8604L228.426 48.6677C228.812 48.6776 228.989 48.979 228.96 49.5719C228.159 51.0838 227.566 53.0305 227.181 55.412L226.959 56.672L226.929 57.2945C226.949 57.5218 227.102 57.6552 227.389 57.6947C227.823 57.6552 228.604 57.0326 229.731 55.8271L230.916 54.4189L231.02 54.834C230.091 56.7313 228.97 58.0999 227.655 58.9398C227.122 59.1671 226.613 59.2116 226.129 59.0732C225.378 58.8064 225.106 58.1196 225.313 57.0129C225.353 56.42 225.625 55.1205 226.129 53.1145L224.898 53.4999H224.987ZM230.264 44.2654L230.976 44.7101C231.025 45.2832 230.299 45.8959 228.797 46.5481C228.579 46.4592 228.406 46.4196 228.278 46.4295L228.248 45.9255C228.317 45.6291 228.989 45.0757 230.264 44.2654ZM225.669 61.4597H226.01C226.168 61.4597 226.331 61.6277 226.499 61.9636V62.2897C226.42 63.3965 226.089 63.9499 225.506 63.9499C225.21 63.9499 224.933 63.6732 224.676 63.1198C225.071 62.0131 225.402 61.4597 225.669 61.4597Z" fill="black"/>
<path d="M235.363 49.735C233.515 51.0196 232.497 53.0454 232.31 55.8122C232.31 57.1068 232.819 57.6601 233.836 57.4724C235.022 57.1858 236.623 55.7777 238.639 53.2479L238.95 53.5147C237.053 56.5583 235.422 58.3519 234.059 58.8954C233.476 59.1918 232.799 59.2462 232.028 59.0584C231.346 58.8311 230.897 58.3766 230.679 57.6947C230.462 57.0129 230.407 56.3508 230.516 55.7085C230.694 54.4337 231.173 53.1442 231.954 51.8398C232.735 50.5255 233.565 49.5966 234.444 49.0531C235.324 48.4997 236.089 48.3268 236.742 48.5343C237.394 48.732 237.74 49.1816 237.779 49.8832C237.819 50.5749 237.587 50.9899 237.083 51.1283C236.589 51.2666 236.317 50.9899 236.267 50.2982C236.218 49.5966 235.917 49.4089 235.363 49.735Z" fill="black"/>
<path d="M246.199 41.0489C246.87 39.0923 246.979 37.867 246.525 37.3729C246.08 36.8788 245.413 37.279 244.524 38.5735C243.644 39.868 242.824 41.8246 242.063 44.4433C241.312 47.0619 240.892 48.6875 240.803 49.3199C240.724 49.9524 240.936 49.9721 241.44 49.3792C241.954 48.7764 242.71 47.729 243.708 46.2368C244.706 44.7348 245.536 43.0055 246.199 41.0489ZM243.99 53.2628C244.692 51.2073 244.672 50.3427 243.931 50.6688C243.446 50.8467 242.76 51.568 241.87 52.8329C240.991 54.0879 240.21 55.5652 239.528 57.2649L238.965 58.51C237.898 59.508 237.374 59.3351 237.394 57.9912L237.675 56.583L237.987 55.1452C236.663 56.8153 235.689 57.7688 235.067 58.006C234.76 57.8578 234.923 57.4872 235.556 56.8943L237.097 54.7895C237.532 54.1274 238.031 53.2776 238.594 52.24C238.713 51.6668 238.866 50.9554 239.054 50.1055C239.538 48.1094 240.003 46.301 240.447 44.6804C240.892 43.0598 241.524 41.37 242.345 39.6111C243.165 37.8521 244.029 36.6811 244.939 36.0981C245.848 35.5052 246.584 35.3965 247.147 35.772C247.71 36.1376 247.977 36.7256 247.948 37.5359C247.918 38.3462 247.789 39.1961 247.562 40.0854C247.345 40.9649 247.043 41.8147 246.658 42.6349C246.273 43.4551 245.833 44.3198 245.339 45.2289C244.855 46.138 244.43 46.8791 244.064 47.4523C243.728 47.976 242.592 49.5126 240.655 52.0621C240.556 52.2005 240.452 52.3438 240.344 52.492C240.097 53.3319 239.904 54.0533 239.765 54.6561L241.025 52.8032C243.041 49.8881 244.538 48.4849 245.517 48.5936C246.189 48.7616 246.46 49.3595 246.332 50.3872L246.065 51.2913C245.788 52.3487 245.393 53.831 244.879 55.7381C244.632 56.5682 244.627 57.0524 244.864 57.1908C245.112 57.3291 245.359 57.3143 245.606 57.1463C245.853 56.9783 246.208 56.6423 246.673 56.1383C247.147 55.6344 247.651 54.9723 248.185 54.1521C248.56 53.6383 248.832 53.5394 249 53.8557C248.041 55.6739 247.172 56.9882 246.391 57.7985C245.611 58.5989 244.934 59.0041 244.361 59.0139C243.797 59.0238 243.417 58.8707 243.219 58.5544C243.031 58.2382 242.952 57.8627 242.982 57.4279C243.022 56.9832 243.15 56.3706 243.367 55.5899C243.585 54.7994 243.792 54.0236 243.99 53.2628Z" fill="black"/>
<path d="M10.9687 1.51194C12.3521 1.58111 13.1427 2.17401 13.3403 3.29065C13.6664 5.45476 13.4885 8.37482 12.8067 12.0508C11.8778 15.9047 10.7513 18.726 9.42712 20.5146C8.91327 21.73 8.06838 22.6293 6.89245 23.2123C5.71652 23.7953 4.59494 23.6422 3.52771 22.7528C2.45059 21.8634 2.1245 19.6598 2.54941 16.1419C4.36766 7.89062 7.17408 3.01396 10.9687 1.51194ZM4.72834 20.0106C5.11373 21.6411 5.67205 22.2834 6.4033 21.9375C7.13455 21.5818 7.92509 20.6974 8.77493 19.2843C9.89157 17.6637 10.7216 15.4897 11.2651 12.7623C11.7592 10.8255 12.0458 9.1456 12.1248 7.72263C12.2138 6.29965 12.2088 5.27689 12.11 4.65434C12.0112 4.0219 11.8235 3.54264 11.5468 3.21654C11.2701 2.89044 10.7957 2.76198 10.1238 2.83115C8.51306 3.54264 7.09997 6.10202 5.88451 10.5093C4.82716 13.9481 4.44177 17.1152 4.72834 20.0106Z" fill="black"/>
<path d="M26.1767 1.423L26.3398 1.40818C27.2884 1.36865 27.7874 1.90721 27.8369 3.02385C27.2439 6.30459 25.7073 9.19501 23.227 11.6951C23.3258 12.3275 23.815 14.0223 24.6945 16.7793C24.7537 18.7062 24.3733 20.228 23.5531 21.3446C22.7329 22.4514 21.7398 23.1777 20.5738 23.5236C19.4176 23.8694 18.2762 23.7953 17.1497 23.3012C16.0133 22.7973 15.5686 21.7646 15.8157 20.2033C16.0528 18.642 17.3474 16.7002 19.6992 14.378C20.5688 13.5479 21.0975 12.8661 21.2852 12.3325C20.7516 11.2356 20.3168 9.76321 19.9809 7.91532C19.9809 4.79268 21.4186 2.70269 24.2942 1.64534L24.9168 1.77874C25.3022 1.56134 25.7222 1.44276 26.1767 1.423ZM23.1233 10.198C25.317 7.71769 26.3744 5.55852 26.2953 3.72051C26.2755 3.14737 26.0483 2.84103 25.6135 2.80151C24.7241 2.84103 23.9484 3.30053 23.2863 4.18001C22.6242 5.04961 22.2635 5.90932 22.2042 6.75915C22.145 7.5991 22.1499 8.27601 22.2191 8.78986C22.2981 9.30371 22.3673 9.71874 22.4266 10.035C22.4859 10.3413 22.7181 10.3956 23.1233 10.198ZM17.7871 20.5887C17.8859 21.6658 18.3059 22.2291 19.047 22.2785C20.223 22.565 21.2803 21.9227 22.2191 20.3515C22.7033 19.2744 22.9157 18.3208 22.8564 17.4908C22.4315 14.7733 21.8238 13.795 21.0333 14.5559C19.0075 16.6508 17.9254 18.6617 17.7871 20.5887Z" fill="black"/>
<path d="M39.5912 3.52782C39.5122 4.36777 38.8946 6.45776 37.7384 9.7978L34.1661 18.721C32.8716 22.9603 31.9378 25.1442 31.3646 25.2726C30.7915 25.4011 30.9842 24.0374 31.9427 21.1816C32.9111 18.3258 33.7807 16.0134 34.5515 14.2446C38.1386 3.60193 40.0853 -1.07709 40.3916 0.207542C40.4411 1.60087 40.1742 2.70763 39.5912 3.52782Z" fill="black"/>
<path d="M46.9581 1.51194C48.3415 1.58111 49.1321 2.17401 49.3297 3.29065C49.6558 5.45476 49.4779 8.37482 48.7961 12.0508C47.8672 15.9047 46.7407 18.726 45.4165 20.5146C44.9027 21.73 44.0578 22.6293 42.8818 23.2123C41.7059 23.7953 40.5843 23.6422 39.5171 22.7528C38.44 21.8634 38.1139 19.6598 38.5388 16.1419C40.3571 7.89062 43.1635 3.01396 46.9581 1.51194ZM40.7177 20.0106C41.1031 21.6411 41.6614 22.2834 42.3927 21.9375C43.124 21.5818 43.9145 20.6974 44.7643 19.2843C45.881 17.6637 46.711 15.4897 47.2545 12.7623C47.7486 10.8255 48.0352 9.1456 48.1142 7.72263C48.2032 6.29965 48.1982 5.27689 48.0994 4.65434C48.0006 4.0219 47.8129 3.54264 47.5362 3.21654C47.2595 2.89044 46.7851 2.76198 46.1132 2.83115C44.5025 3.54264 43.0894 6.10202 41.8739 10.5093C40.8166 13.9481 40.4312 17.1152 40.7177 20.0106Z" fill="black"/>
<path d="M62.1661 1.423L62.3292 1.40818C63.2778 1.36865 63.7768 1.90721 63.8263 3.02385C63.2334 6.30459 61.6967 9.19501 59.2164 11.6951C59.3152 12.3275 59.8044 14.0223 60.6839 16.7793C60.7431 18.7062 60.3627 20.228 59.5425 21.3446C58.7223 22.4514 57.7292 23.1777 56.5632 23.5236C55.407 23.8694 54.2656 23.7953 53.1391 23.3012C52.0027 22.7973 51.558 21.7646 51.8051 20.2033C52.0423 18.642 53.3368 16.7002 55.6886 14.378C56.5582 13.5479 57.0869 12.8661 57.2746 12.3325C56.741 11.2356 56.3062 9.76321 55.9703 7.91532C55.9703 4.79268 57.4081 2.70269 60.2836 1.64534L60.9062 1.77874C61.2916 1.56134 61.7116 1.44276 62.1661 1.423ZM59.1127 10.198C61.3064 7.71769 62.3638 5.55852 62.2847 3.72051C62.2649 3.14737 62.0377 2.84103 61.6029 2.80151C60.7135 2.84103 59.9378 3.30053 59.2757 4.18001C58.6136 5.04961 58.2529 5.90932 58.1936 6.75915C58.1344 7.5991 58.1393 8.27601 58.2085 8.78986C58.2875 9.30371 58.3567 9.71874 58.416 10.035C58.4753 10.3413 58.7075 10.3956 59.1127 10.198ZM53.7765 20.5887C53.8753 21.6658 54.2953 22.2291 55.0364 22.2785C56.2124 22.565 57.2697 21.9227 58.2085 20.3515C58.6927 19.2744 58.9051 18.3208 58.8458 17.4908C58.4209 14.7733 57.8132 13.795 57.0227 14.5559C54.9969 16.6508 53.9148 18.6617 53.7765 20.5887Z" fill="black"/>
<path d="M75.5806 3.52782C75.5016 4.36777 74.884 6.45776 73.7278 9.7978L70.1555 18.721C68.861 22.9603 67.9272 25.1442 67.354 25.2726C66.7809 25.4011 66.9736 24.0374 67.9321 21.1816C68.9005 18.3258 69.7701 16.0134 70.5409 14.2446C74.128 3.60193 76.0747 -1.07709 76.381 0.207542C76.4305 1.60087 76.1636 2.70763 75.5806 3.52782Z" fill="black"/>
<path d="M81.4059 19.9958C82.5127 21.5966 83.8467 22.4514 85.408 22.5601C86.9694 22.6589 88.3973 21.7399 89.6918 19.8031C90.4527 19.8426 90.2501 20.4998 89.0841 21.7745C87.918 23.0394 86.7569 23.6965 85.6007 23.7459C84.4545 23.7953 83.4218 23.6224 82.5028 23.2271C81.5937 22.822 80.7389 22.1154 79.9385 21.1075C77.8337 23.0245 76.1439 23.8497 74.8691 23.5829C73.5845 23.3161 73.293 22.3131 73.9946 20.5739C74.6863 18.8347 75.6103 17.3524 76.7664 16.1271C77.9325 14.8918 78.7428 14.625 79.1973 15.3266C79.6519 16.0283 80.1707 17.0807 80.7537 18.4839C82.4336 16.6459 83.9159 14.6497 85.2005 12.4955C86.4852 10.3314 87.1522 8.4687 87.2016 6.90738C87.2609 5.33618 86.7273 4.36777 85.6007 4.00214C84.4742 3.63652 83.4119 3.94779 82.4139 4.93597C81.4158 5.92414 80.9267 6.83327 80.9464 7.66334C80.8674 8.46376 80.6055 8.80962 80.1608 8.70092C79.726 8.58234 79.7112 7.90544 80.1164 6.67022C80.5215 5.42512 81.3516 4.35294 82.6066 3.4537C83.8714 2.55446 85.2302 2.28271 86.6828 2.63846C88.1453 2.9942 88.9309 4.05649 89.0396 5.82533C89.1582 7.58428 88.5702 9.58534 87.2757 11.8285C85.9812 14.0618 84.0246 16.7842 81.4059 19.9958ZM79.1677 19.64C79.0392 19.3238 78.7527 18.7408 78.308 17.891C77.8633 17.0313 77.305 17.1054 76.633 18.1133C75.971 19.1212 75.551 20.2675 75.3731 21.5522C75.1952 22.8368 75.8128 22.9208 77.2259 21.8041C78.6489 20.6776 79.2962 19.9563 79.1677 19.64Z" fill="black"/>
<path d="M101.12 1.51194C102.503 1.58111 103.294 2.17401 103.492 3.29065C103.818 5.45476 103.64 8.37482 102.958 12.0508C102.029 15.9047 100.903 18.726 99.5785 20.5146C99.0646 21.73 98.2197 22.6293 97.0438 23.2123C95.8679 23.7953 94.7463 23.6422 93.6791 22.7528C92.602 21.8634 92.2759 19.6598 92.7008 16.1419C94.519 7.89062 97.3254 3.01396 101.12 1.51194ZM94.8797 20.0106C95.2651 21.6411 95.8234 22.2834 96.5547 21.9375C97.2859 21.5818 98.0765 20.6974 98.9263 19.2843C100.043 17.6637 100.873 15.4897 101.416 12.7623C101.911 10.8255 102.197 9.1456 102.276 7.72263C102.365 6.29965 102.36 5.27689 102.261 4.65434C102.163 4.0219 101.975 3.54264 101.698 3.21654C101.421 2.89044 100.947 2.76198 100.275 2.83115C98.6644 3.54264 97.2513 6.10202 96.0359 10.5093C94.9785 13.9481 94.5931 17.1152 94.8797 20.0106Z" fill="black"/>
<path d="M113.423 19.9958C114.53 21.5966 115.864 22.4514 117.425 22.5601C118.986 22.6589 120.414 21.7399 121.709 19.8031C122.47 19.8426 122.267 20.4998 121.101 21.7745C119.935 23.0394 118.774 23.6965 117.618 23.7459C116.471 23.7953 115.439 23.6224 114.52 23.2271C113.611 22.822 112.756 22.1154 111.955 21.1075C109.851 23.0245 108.161 23.8497 106.886 23.5829C105.601 23.3161 105.31 22.3131 106.012 20.5739C106.703 18.8347 107.627 17.3524 108.783 16.1271C109.949 14.8918 110.76 14.625 111.214 15.3266C111.669 16.0283 112.188 17.0807 112.771 18.4839C114.451 16.6459 115.933 14.6497 117.217 12.4955C118.502 10.3314 119.169 8.4687 119.219 6.90738C119.278 5.33618 118.744 4.36777 117.618 4.00214C116.491 3.63652 115.429 3.94779 114.431 4.93597C113.433 5.92414 112.944 6.83327 112.963 7.66334C112.884 8.46376 112.622 8.80962 112.178 8.70092C111.743 8.58234 111.728 7.90544 112.133 6.67022C112.538 5.42512 113.368 4.35294 114.623 3.4537C115.888 2.55446 117.247 2.28271 118.7 2.63846C120.162 2.9942 120.948 4.05649 121.057 5.82533C121.175 7.58428 120.587 9.58534 119.293 11.8285C117.998 14.0618 116.042 16.7842 113.423 19.9958ZM111.185 19.64C111.056 19.3238 110.77 18.7408 110.325 17.891C109.88 17.0313 109.322 17.1054 108.65 18.1133C107.988 19.1212 107.568 20.2675 107.39 21.5522C107.212 22.8368 107.83 22.9208 109.243 21.8041C110.666 20.6776 111.313 19.9563 111.185 19.64Z" fill="black"/>
<path d="M135.182 2.03073C134.036 4.74821 133.265 6.83327 132.87 8.28589C132.475 9.73851 132.124 11.0528 131.818 12.2287C131.521 13.3948 131.235 14.8869 130.958 16.7052C130.691 18.5234 130.469 20.2082 130.291 21.7597C130.113 23.3012 129.871 24.0572 129.565 24.0275C129.258 23.9979 129.026 23.8546 128.868 23.5977C128.71 23.3408 128.651 22.733 128.69 21.7745C128.73 20.816 128.799 19.9958 128.898 19.3139C128.997 18.6222 129.189 17.6538 129.476 16.4087C129.772 15.1537 130.098 13.7456 130.454 12.1842L130.973 10.3314L129.965 11.3542C128.502 13.1922 127.48 14.3928 126.897 14.9561C126.323 15.5095 125.805 15.9146 125.34 16.1715C124.866 16.4186 124.693 16.3395 124.821 15.9344C124.95 15.5292 125.217 15.1241 125.622 14.7189C126.017 14.3138 126.561 13.7159 127.252 12.9254C128.952 10.9787 130.711 7.88568 132.529 3.6464C132.875 2.83609 133.285 2.33706 133.76 2.14931C134.234 1.95167 134.708 1.91215 135.182 2.03073Z" fill="black"/>
</svg>
