<svg width="32" height="32" viewBox="0 0 32 32" fill="none" xmlns="http://www.w3.org/2000/svg">
<rect width="32" height="32" rx="2" fill="#20552B"/>
<path d="M16.0009 25.3331C15.8061 25.3331 15.6132 25.2947 15.4333 25.2201C15.2533 25.1456 15.0898 25.0363 14.952 24.8986C14.8143 24.7609 14.705 24.5973 14.6305 24.4174C14.5559 24.2374 14.5176 24.0445 14.5176 23.8497V14.2997C14.5176 13.9063 14.6739 13.529 14.952 13.2509C15.2302 12.9727 15.6075 12.8164 16.0009 12.8164C16.3943 12.8164 16.7716 12.9727 17.0498 13.2509C17.328 13.529 17.4842 13.9063 17.4842 14.2997V23.8497C17.4842 24.2431 17.328 24.6204 17.0498 24.8986C16.7716 25.1768 16.3943 25.3331 16.0009 25.3331Z" fill="white"/>
<path d="M16 7.00002C16.3956 7.00002 16.7823 7.11732 17.1112 7.33708C17.4401 7.55684 17.6964 7.8692 17.8478 8.23465C17.9991 8.6001 18.0388 9.00223 17.9616 9.3902C17.8844 9.77816 17.6939 10.1345 17.4142 10.4142C17.1345 10.6939 16.7782 10.8844 16.3902 10.9616C16.0022 11.0388 15.6001 10.9991 15.2346 10.8478C14.8692 10.6964 14.5568 10.4401 14.3371 10.1112C14.1173 9.78226 14 9.39558 14 9.00002C13.9989 8.73706 14.0499 8.4765 14.15 8.23335C14.2501 7.9902 14.3974 7.76928 14.5833 7.58335C14.7693 7.39741 14.9902 7.25013 15.2333 7.15001C15.4765 7.04989 15.7371 6.99891 16 7.00002Z" fill="white"/>
</svg>
