<svg width="22" height="22" viewBox="0 0 22 22" fill="none" xmlns="http://www.w3.org/2000/svg">
<path fill-rule="evenodd" clip-rule="evenodd" d="M18.4992 3.70324C18.7593 3.42607 18.9238 3.08344 18.9556 2.75274C18.9875 2.42133 18.8833 2.129 18.667 1.94206L17.1257 0.67335C16.8898 0.542474 16.5949 0.505784 16.2837 0.570778C15.9447 0.641432 15.6083 0.827998 15.3314 1.09583L13.6733 2.95717L16.8411 5.56459L18.4992 3.70324Z" fill="black"/>
<path fill-rule="evenodd" clip-rule="evenodd" d="M12.7041 4.04688L15.8719 6.65429L6.79774 16.8406L3.62998 14.2332L12.7041 4.04688Z" fill="black"/>
<path fill-rule="evenodd" clip-rule="evenodd" d="M2.63281 15.3496L5.80057 17.957L1.89643 19.6658C1.78616 19.7019 1.67934 19.6883 1.6067 19.6285C1.53406 19.5687 1.50357 19.4694 1.52372 19.3591C1.8934 18.0226 2.2631 16.6861 2.63281 15.3496Z" fill="black"/>
<rect x="1.5" y="20.2695" width="19.7927" height="0.906586" rx="0.453293" fill="black"/>
</svg>
